<svg xmlns="http://www.w3.org/2000/svg" viewBox="0 0 1024 1024"><title>logo-dark</title><polygon points="206.72 567.74 199.25 567.69 199.3 561.74 197.9 561.73 197.8 575.44 199.19 575.45 199.24 568.97 206.72 569.02 206.67 575.51 208.06 575.52 208.16 561.81 206.77 561.8 206.72 567.74" style="fill:#1e1e1e"/><path d="M223.73,561.92l-6.07,13.67h1.63l1.54-3.59,7,0,1.49,3.61,1.62,0-5.86-13.76Zm-2.37,8.81,3-7.18,2.91,7.23Z" style="fill:#1e1e1e"/><rect x="234.44" y="568.21" width="13.71" height="1.39" transform="translate(-329.18 806.46) rotate(-89.62)" style="fill:#1e1e1e"/><path d="M261.29,568.27a3.42,3.42,0,0,0,.92-2.4,3.22,3.22,0,0,0-1.19-2.76,5.46,5.46,0,0,0-3.3-.94l-4.22,0-.1,13.71h1.4l0-6.37,2.33,0,3.71,6.4h1.7l-3.9-6.54A3.83,3.83,0,0,0,261.29,568.27Zm-6.44-.06,0-4.78,2.48,0a5.82,5.82,0,0,1,1.57.2,2.62,2.62,0,0,1,1,.52,1.89,1.89,0,0,1,.56.77,2.35,2.35,0,0,1,.17.92,2.5,2.5,0,0,1-.18.94,2,2,0,0,1-.57.75,2.88,2.88,0,0,1-1,.5,5.24,5.24,0,0,1-1.58.18Z" style="fill:#1e1e1e"/><path d="M293.64,568.51a3.42,3.42,0,0,0,.92-2.4,3.22,3.22,0,0,0-1.19-2.76,5.38,5.38,0,0,0-3.29-.94l-4.22,0-.11,13.71h1.4l.05-6.37,2.32,0,3.71,6.4h1.7l-3.9-6.54A3.81,3.81,0,0,0,293.64,568.51Zm-6.43-.06,0-4.78,2.48,0a5.45,5.45,0,0,1,1.57.2,2.54,2.54,0,0,1,1,.52,1.89,1.89,0,0,1,.55.77,2.35,2.35,0,0,1,.17.92,2.41,2.41,0,0,1-.18.93,2,2,0,0,1-.57.76,2.88,2.88,0,0,1-1,.5,5.24,5.24,0,0,1-1.58.18Z" style="fill:#1e1e1e"/><polygon points="306.42 569.76 313.06 569.8 313.07 568.53 306.43 568.48 306.46 563.81 313.57 563.87 313.58 562.59 305.08 562.52 304.98 576.23 313.71 576.3 313.72 575.02 306.38 574.97 306.42 569.76" style="fill:#1e1e1e"/><path d="M330.37,569.69a8,8,0,0,0-1.69-.71,15.81,15.81,0,0,1-1.69-.6,4.26,4.26,0,0,1-1.29-.85,2,2,0,0,1-.51-1.45,2.33,2.33,0,0,1,.26-1.11,2.27,2.27,0,0,1,.67-.77,3.12,3.12,0,0,1,.94-.44,3.92,3.92,0,0,1,1.07-.13,3,3,0,0,1,2.64,1.35L332,564a4.6,4.6,0,0,0-1.75-1.31,5.66,5.66,0,0,0-2.11-.38,5.58,5.58,0,0,0-1.63.22,4.33,4.33,0,0,0-1.43.7,3.54,3.54,0,0,0-1,1.22,3.58,3.58,0,0,0-.39,1.72,3.54,3.54,0,0,0,.29,1.58,3.07,3.07,0,0,0,.78,1.05,4.38,4.38,0,0,0,1.12.69c.42.19.85.35,1.29.5l1.3.43a5.54,5.54,0,0,1,1.12.54,2.7,2.7,0,0,1,.78.8,2.34,2.34,0,0,1,0,2.26,2.59,2.59,0,0,1-.69.78,2.86,2.86,0,0,1-.94.47,3.48,3.48,0,0,1-1.05.16,3.57,3.57,0,0,1-1.86-.47,3.2,3.2,0,0,1-1.23-1.22l-1.29.9a4.67,4.67,0,0,0,1.92,1.58,6.23,6.23,0,0,0,2.39.49,5.08,5.08,0,0,0,1.62-.26,4.81,4.81,0,0,0,1.45-.77,3.75,3.75,0,0,0,1.06-1.24,3.53,3.53,0,0,0,.41-1.67,3.35,3.35,0,0,0-.51-2A4.21,4.21,0,0,0,330.37,569.69Z" style="fill:#1e1e1e"/><polygon points="341.22 564.07 345.81 564.11 345.71 576.53 347.11 576.54 347.2 564.12 351.79 564.15 351.8 562.87 341.23 562.79 341.22 564.07" style="fill:#1e1e1e"/><path d="M373,564.72a6.93,6.93,0,0,0-2.25-1.52,7.51,7.51,0,0,0-2.83-.56,7.36,7.36,0,0,0-2.84.52,6.83,6.83,0,0,0-2.28,1.49,7,7,0,0,0-1.52,2.26,8,8,0,0,0,0,5.77,6.8,6.8,0,0,0,3.74,3.8,7.71,7.71,0,0,0,5.67,0A7,7,0,0,0,372.9,575a6.79,6.79,0,0,0,1.51-2.26,7.55,7.55,0,0,0,.57-2.88,7.74,7.74,0,0,0-.52-2.89A7,7,0,0,0,373,564.72Zm.09,7.42a5.83,5.83,0,0,1-1.12,1.88,5.47,5.47,0,0,1-4.15,1.75,5.75,5.75,0,0,1-2.36-.5,5.51,5.51,0,0,1-1.76-1.31,5.71,5.71,0,0,1-1.1-1.9,6.58,6.58,0,0,1-.37-2.26,6.74,6.74,0,0,1,.4-2.25,5.75,5.75,0,0,1,1.13-1.88,5.4,5.4,0,0,1,1.78-1.29,6.07,6.07,0,0,1,4.73,0,5.51,5.51,0,0,1,1.76,1.31,5.88,5.88,0,0,1,1.1,1.9,6.78,6.78,0,0,1,.37,2.26A6.59,6.59,0,0,1,373.06,572.14Z" style="fill:#1e1e1e"/><path d="M393.35,569.25a3.47,3.47,0,0,0,.92-2.41,3.24,3.24,0,0,0-1.19-2.75,5.35,5.35,0,0,0-3.3-.94l-4.22,0-.1,13.71h1.39l0-6.37h2.32l3.71,6.4h1.71l-3.91-6.53A3.85,3.85,0,0,0,393.35,569.25Zm-6.44-.06,0-4.78,2.47,0a5.94,5.94,0,0,1,1.58.19,2.76,2.76,0,0,1,1,.52,2,2,0,0,1,.56.77,2.59,2.59,0,0,1,.17.92,2.62,2.62,0,0,1-.19.94,1.77,1.77,0,0,1-.56.75,3.06,3.06,0,0,1-1,.51,6,6,0,0,1-1.58.18Z" style="fill:#1e1e1e"/><path d="M408.89,563.29,402.83,577h1.62l1.54-3.59,7,0,1.48,3.61h1.63l-5.87-13.75Zm-2.37,8.81,3-7.18,2.91,7.23Z" style="fill:#1e1e1e"/><polygon points="422.9 564.67 427.49 564.71 427.39 577.14 428.79 577.15 428.88 564.72 433.47 564.75 433.48 563.47 422.91 563.4 422.9 564.67" style="fill:#1e1e1e"/><rect x="437.14" y="569.71" width="13.71" height="1.39" transform="translate(-129.31 1010.65) rotate(-89.62)" style="fill:#1e1e1e"/><path d="M467.51,565.42a7,7,0,0,0-2.25-1.52,7.57,7.57,0,0,0-2.84-.56,7.39,7.39,0,0,0-2.84.52,7,7,0,0,0-2.27,1.48,6.86,6.86,0,0,0-1.52,2.27,7.29,7.29,0,0,0-.56,2.88,7.39,7.39,0,0,0,.52,2.89,6.81,6.81,0,0,0,1.48,2.28,6.88,6.88,0,0,0,2.25,1.52,7.74,7.74,0,0,0,5.68,0,6.82,6.82,0,0,0,3.79-3.74,8,8,0,0,0,0-5.77A6.85,6.85,0,0,0,467.51,565.42Zm.09,7.42a5.69,5.69,0,0,1-1.13,1.88,5.41,5.41,0,0,1-1.78,1.28,5.93,5.93,0,0,1-4.72,0,5.14,5.14,0,0,1-1.76-1.31,5.56,5.56,0,0,1-1.1-1.89,6.35,6.35,0,0,1-.37-2.26,6.5,6.5,0,0,1,.4-2.25,5.59,5.59,0,0,1,1.13-1.88,5.4,5.4,0,0,1,1.78-1.29,5.62,5.62,0,0,1,2.36-.46,5.42,5.42,0,0,1,2.36.5,5.27,5.27,0,0,1,1.76,1.31,5.61,5.61,0,0,1,1.1,1.9,6.29,6.29,0,0,1,.37,2.25A6.6,6.6,0,0,1,467.6,572.84Z" style="fill:#1e1e1e"/><polygon points="489.96 575.51 489.92 575.51 481.84 563.83 480.1 563.82 480 577.53 481.39 577.54 481.48 565.8 481.51 565.8 489.6 577.6 491.34 577.61 491.44 563.9 490.05 563.89 489.96 575.51" style="fill:#1e1e1e"/><path d="M546.27,564.31l-4,0-.1,13.71h1.4l0-6.37,2.6,0a5.35,5.35,0,0,0,3.31-.9,3.76,3.76,0,0,0,0-5.51A5.41,5.41,0,0,0,546.27,564.31Zm2.79,4.62a1.85,1.85,0,0,1-.56.75,2.88,2.88,0,0,1-1,.5,5.6,5.6,0,0,1-1.58.19l-2.25,0,0-4.78h2.24a5.9,5.9,0,0,1,1.58.2,2.76,2.76,0,0,1,1,.52,2,2,0,0,1,.56.77,2.38,2.38,0,0,1,.16.92A2.42,2.42,0,0,1,549.06,568.93Z" style="fill:#1e1e1e"/><polygon points="562.53 564.43 561.14 564.42 561.04 578.12 568.82 578.18 568.83 576.9 562.44 576.86 562.53 564.43" style="fill:#1e1e1e"/><path d="M582.67,564.58l-6.06,13.66h1.62l1.54-3.59,7,.05,1.48,3.62h1.63L584,564.59Zm-2.37,8.81,3-7.18,2.91,7.22Z" style="fill:#1e1e1e"/><path d="M605.66,571.73A7.72,7.72,0,0,0,604,571a15.06,15.06,0,0,1-1.69-.6,4,4,0,0,1-1.29-.86,1.91,1.91,0,0,1-.52-1.44,2.39,2.39,0,0,1,.26-1.11,2.12,2.12,0,0,1,.68-.77,2.8,2.8,0,0,1,.94-.44,3.83,3.83,0,0,1,1.07-.14,3,3,0,0,1,2.64,1.36l1.23-.94a4.56,4.56,0,0,0-1.76-1.32,6.08,6.08,0,0,0-2.1-.38,5.94,5.94,0,0,0-1.63.22,4.26,4.26,0,0,0-1.43.71,3.64,3.64,0,0,0-1,1.21,4.19,4.19,0,0,0-.1,3.3,3.09,3.09,0,0,0,.79,1,4.52,4.52,0,0,0,1.12.7,13.22,13.22,0,0,0,1.29.49c.44.15.88.29,1.29.44a4.65,4.65,0,0,1,1.12.54,2.51,2.51,0,0,1,.79.8,2.08,2.08,0,0,1,.29,1.19,2,2,0,0,1-.28,1.06,2.59,2.59,0,0,1-.69.78,3.09,3.09,0,0,1-.94.48,3.37,3.37,0,0,1-1,.16,3.84,3.84,0,0,1-1.87-.47,3.51,3.51,0,0,1-1.23-1.22l-1.28.9a4.45,4.45,0,0,0,1.92,1.57,6,6,0,0,0,2.38.49,4.78,4.78,0,0,0,1.62-.26,4.84,4.84,0,0,0,1.46-.76,3.82,3.82,0,0,0,1-1.24,3.44,3.44,0,0,0,.41-1.67,3.26,3.26,0,0,0-.5-2A4.09,4.09,0,0,0,605.66,571.73Z" style="fill:#1e1e1e"/><polygon points="616.5 566.11 621.09 566.14 621 578.57 622.39 578.58 622.48 566.15 627.07 566.18 627.08 564.9 616.51 564.83 616.5 566.11" style="fill:#1e1e1e"/><rect x="630.75" y="571.14" width="13.71" height="1.39" transform="translate(61.31 1205.42) rotate(-89.6)" style="fill:#1e1e1e"/><path d="M659,576.86a4,4,0,0,1-1,.63,4.45,4.45,0,0,1-1,.32,6.56,6.56,0,0,1-1.08.09,5.6,5.6,0,0,1-2.36-.51,5.24,5.24,0,0,1-1.76-1.31,5.56,5.56,0,0,1-1.1-1.89,6.82,6.82,0,0,1-.37-2.26,6.74,6.74,0,0,1,.4-2.25,5.75,5.75,0,0,1,1.13-1.88,5.4,5.4,0,0,1,1.78-1.29,5.63,5.63,0,0,1,2.37-.46,4,4,0,0,1,1.08.16,6.09,6.09,0,0,1,1,.41,4.47,4.47,0,0,1,.84.59,3.15,3.15,0,0,1,.58.67l1.22-.91a5.18,5.18,0,0,0-2.17-1.68,7,7,0,0,0-2.55-.52,7.36,7.36,0,0,0-2.84.52,6.86,6.86,0,0,0-3.8,3.75,7.66,7.66,0,0,0-.56,2.88,7.54,7.54,0,0,0,.52,2.89,6.88,6.88,0,0,0,3.74,3.8,7.15,7.15,0,0,0,2.83.56,6.1,6.1,0,0,0,1.62-.18,6.3,6.3,0,0,0,1.42-.52,5.29,5.29,0,0,0,1.18-.79,5,5,0,0,0,.87-1l-1.13-.82A5,5,0,0,1,659,576.86Z" style="fill:#1e1e1e"/><path d="M690.38,572.35a8.24,8.24,0,0,0-1.69-.71A15.06,15.06,0,0,1,687,571a4,4,0,0,1-1.29-.85,1.91,1.91,0,0,1-.51-1.45,2.33,2.33,0,0,1,.26-1.11,2.27,2.27,0,0,1,.67-.77,3,3,0,0,1,.94-.44,3.87,3.87,0,0,1,1.07-.13,3,3,0,0,1,2.64,1.35l1.23-.94a4.68,4.68,0,0,0-1.75-1.31,5.74,5.74,0,0,0-2.11-.38,5.58,5.58,0,0,0-1.63.22,4.24,4.24,0,0,0-1.43.7,3.54,3.54,0,0,0-1,1.22,3.73,3.73,0,0,0-.4,1.72,3.84,3.84,0,0,0,.29,1.58,3.09,3.09,0,0,0,.79,1,4.38,4.38,0,0,0,1.12.69c.42.19.85.35,1.29.5l1.29.43a5.3,5.3,0,0,1,1.12.54,2.73,2.73,0,0,1,.79.8,2.14,2.14,0,0,1,.29,1.2,2,2,0,0,1-.28,1.06,2.59,2.59,0,0,1-.69.78,2.77,2.77,0,0,1-.94.47,3.37,3.37,0,0,1-1,.16,3.63,3.63,0,0,1-1.87-.47,3.32,3.32,0,0,1-1.22-1.22l-1.29.9a4.55,4.55,0,0,0,1.92,1.58,6.21,6.21,0,0,0,2.38.49,5,5,0,0,0,1.62-.26,4.86,4.86,0,0,0,1.46-.77,3.75,3.75,0,0,0,1.06-1.24,3.52,3.52,0,0,0,.4-1.67,3.28,3.28,0,0,0-.5-2A4.21,4.21,0,0,0,690.38,572.35Z" style="fill:#1e1e1e"/><path d="M711.16,574a6.33,6.33,0,0,1-.21,1.69,4,4,0,0,1-.52,1.19,2.92,2.92,0,0,1-.72.76,4.47,4.47,0,0,1-.8.43,3.21,3.21,0,0,1-.77.19,6,6,0,0,1-.63,0,3.91,3.91,0,0,1-.64-.06,3.37,3.37,0,0,1-.77-.2,4.27,4.27,0,0,1-.79-.45,2.8,2.8,0,0,1-.71-.77,4,4,0,0,1-.5-1.19,6.11,6.11,0,0,1-.18-1.7l.06-8.44h-1.39l-.07,8.6a9.06,9.06,0,0,0,.19,1.81,4.9,4.9,0,0,0,.75,1.78A4.54,4.54,0,0,0,705,579a5.25,5.25,0,0,0,2.52.56A5.31,5.31,0,0,0,710,579a4.4,4.4,0,0,0,1.55-1.33,5,5,0,0,0,.78-1.77,8.46,8.46,0,0,0,.21-1.81l.07-8.59h-1.4Z" style="fill:#1e1e1e"/><path d="M731.63,571.75a3.43,3.43,0,0,0,.92-2.41,3.21,3.21,0,0,0-1.19-2.75,5.33,5.33,0,0,0-3.3-.94l-4.22,0-.1,13.71h1.4l0-6.37,2.33,0,3.71,6.39h1.7l-3.9-6.53A3.83,3.83,0,0,0,731.63,571.75Zm-6.44-.06,0-4.78,2.48,0a5.86,5.86,0,0,1,1.57.19,2.76,2.76,0,0,1,1,.52,2,2,0,0,1,.56.77,2.59,2.59,0,0,1,.17.92,2.62,2.62,0,0,1-.18.94,1.88,1.88,0,0,1-.57.75,3.06,3.06,0,0,1-1,.51,6,6,0,0,1-1.58.18Z" style="fill:#1e1e1e"/><path d="M749.75,573l3.28,0,0,4.59a7.34,7.34,0,0,1-1.76.69,8,8,0,0,1-2,.25,5.6,5.6,0,0,1-2.36-.51,5.24,5.24,0,0,1-1.76-1.31,5.56,5.56,0,0,1-1.1-1.89,6.58,6.58,0,0,1-.37-2.26,6.5,6.5,0,0,1,.4-2.25,5.75,5.75,0,0,1,1.13-1.88,5.4,5.4,0,0,1,1.78-1.29,5.63,5.63,0,0,1,2.37-.46,5.39,5.39,0,0,1,2.24.44,5.2,5.2,0,0,1,1.66,1.17l1.05-1a5.86,5.86,0,0,0-2.11-1.4,8,8,0,0,0-2.83-.48,7.36,7.36,0,0,0-2.84.52,6.77,6.77,0,0,0-3.8,3.75,7.47,7.47,0,0,0-.56,2.88,7.39,7.39,0,0,0,.52,2.89,6.8,6.8,0,0,0,3.74,3.8,7.15,7.15,0,0,0,2.83.56,10.09,10.09,0,0,0,2.65-.34,10.2,10.2,0,0,0,2.55-1l0-6.72-4.67,0Z" style="fill:#1e1e1e"/><polygon points="767.22 573.16 773.86 573.21 773.87 571.93 767.23 571.88 767.26 567.22 774.37 567.27 774.38 565.99 765.88 565.93 765.77 579.64 774.51 579.7 774.52 578.42 767.18 578.37 767.22 573.16" style="fill:#1e1e1e"/><path d="M792.89,572.2a3.47,3.47,0,0,0,.92-2.4,3.25,3.25,0,0,0-1.19-2.76,5.41,5.41,0,0,0-3.3-.94l-4.22,0-.1,13.71h1.39l.05-6.37,2.32,0,3.71,6.39,1.71,0-3.9-6.54A3.85,3.85,0,0,0,792.89,572.2Zm-6.44-.06,0-4.78,2.47,0a5.94,5.94,0,0,1,1.58.19,2.63,2.63,0,0,1,1,.53,2,2,0,0,1,.56.76,2.64,2.64,0,0,1,.17.93,2.62,2.62,0,0,1-.19.93,1.77,1.77,0,0,1-.56.75,2.89,2.89,0,0,1-1,.51,5.63,5.63,0,0,1-1.58.18Z" style="fill:#1e1e1e"/><polygon points="807.73 572.71 803.69 566.21 801.94 566.2 807.02 574.04 806.97 579.94 808.37 579.95 808.41 574.05 813.6 566.28 811.86 566.27 807.73 572.71" style="fill:#1e1e1e"/><rect x="171.47" y="435.18" width="2.7" height="22.07" transform="translate(-274.66 615.75) rotate(-89.58)" style="fill:#1e1e1e"/><polygon points="141.35 447.33 141.37 444.64 106.21 444.38 106.19 447.08 112.5 447.13 140.49 529.91 144.57 529.94 152.07 509.29 130.98 447.25 141.35 447.33" style="fill:#1e1e1e"/><polygon points="97.96 447.01 97.97 444.32 62.02 444.05 62 446.75 71.49 446.82 99.14 529.61 103.22 529.65 110.62 509.27 89.86 446.96 97.96 447.01" style="fill:#1e1e1e"/><path d="M304.14,456A44,44,0,0,0,275,444.35a40.6,40.6,0,0,0-14.94,2.91,45,45,0,0,0-24,21.87,40.74,40.74,0,0,0-.65,34.05,43.48,43.48,0,0,0,22.85,22.33,41.41,41.41,0,0,0,16.15,3.36,40,40,0,0,0,16.25-3.24,44.09,44.09,0,0,0,13.63-9.07,45,45,0,0,0,9.44-13.43,39,39,0,0,0,3.59-16.2,40.55,40.55,0,0,0-3.57-17.63A42.41,42.41,0,0,0,304.14,456ZM298,502.56a41.46,41.46,0,0,1-3.12,13.08,19.16,19.16,0,0,1-7.23,8.6q-4.81,3.1-13.24,3a29.83,29.83,0,0,1-11-1.91,15.47,15.47,0,0,1-7.47-6.49,34.63,34.63,0,0,1-4.18-12.44,117.16,117.16,0,0,1-1.22-19.66,155.66,155.66,0,0,1,.92-16.51,41.59,41.59,0,0,1,3.4-13,19.2,19.2,0,0,1,7.35-8.44q4.8-3,12.78-2.92,8.53.06,13.36,3.34a19.8,19.8,0,0,1,7.17,8.83,38.93,38.93,0,0,1,2.81,12.78q.45,7.23.4,15.21Q298.66,495,298,502.56Z" style="fill:#1e1e1e"/><path d="M439.27,514a29.37,29.37,0,0,1-6.09,7.48,21,21,0,0,1-7.21,4.1,24.32,24.32,0,0,1-7.58,1.2l-18.8-.14.58-77.91,10.48.07v-1.59l-37.48-.28v1.6l10.48.07-.57,77.92-10.48-.08V528l72.21.54.19-25.75h-1.48A39.42,39.42,0,0,1,439.27,514Z" style="fill:#1e1e1e"/><path d="M565.65,467.8l1.48,0,.15-19.48-67.32-.5v1.59l10.48.08-.58,77.91-10.48-.07v1.59l37.59.28v-1.6l-10.59-.08.29-39.63,7.63,0a14.52,14.52,0,0,1,6.66,1.42,13.45,13.45,0,0,1,4.47,3.73,19.14,19.14,0,0,1,2.86,5.44,62.35,62.35,0,0,1,1.83,6.39h1.48l.27-35.43h-1.48a42.11,42.11,0,0,1-2.11,7,18.42,18.42,0,0,1-3.22,5.33,13,13,0,0,1-4.87,3.39,18.81,18.81,0,0,1-7.13,1.14l-6.38-.05.27-36.68,17.2.13a22.62,22.62,0,0,1,7.91,1.31,17.6,17.6,0,0,1,5.84,3.63,23.39,23.39,0,0,1,4.34,5.67A55.88,55.88,0,0,1,565.65,467.8Z" style="fill:#1e1e1e"/><path d="M691.07,514.58A28.38,28.38,0,0,1,685.6,522a23.57,23.57,0,0,1-7.5,4.9,24.27,24.27,0,0,1-9.46,1.7L650,528.46l.31-41.12,7.63.06a14.48,14.48,0,0,1,6.65,1.41,13.41,13.41,0,0,1,4.48,3.74,19,19,0,0,1,2.86,5.43,63.09,63.09,0,0,1,1.83,6.39h1.48l.26-35.42H674a41.2,41.2,0,0,1-2.1,7,18.36,18.36,0,0,1-3.23,5.33,12.82,12.82,0,0,1-4.86,3.38,18.81,18.81,0,0,1-7.13,1.14l-6.38-.05.26-35.19,18.11.13a19.51,19.51,0,0,1,9.44,2.18,22.23,22.23,0,0,1,6.29,5,25,25,0,0,1,3.77,5.9,40.68,40.68,0,0,1,1.9,5h1.48l.14-19.47-68.11-.51v1.6l10.47.07-.57,77.92L623,528.26v1.59l72.78.54.19-24.94h-1.48A41,41,0,0,1,691.07,514.58Z" style="fill:#1e1e1e"/><path d="M818.46,516.77a29.19,29.19,0,0,1-6.09,7.48,20.88,20.88,0,0,1-7.21,4.1,24,24,0,0,1-7.58,1.2l-18.8-.14.58-77.91,10.47.08,0-1.6-37.48-.28v1.6l10.48.08-.58,77.91-10.48-.08v1.6l72.22.53.19-25.74H822.7A39.76,39.76,0,0,1,818.46,516.77Z" style="fill:#1e1e1e"/><path d="M959.83,477.1a34.38,34.38,0,0,0-14.9-18.45,51.37,51.37,0,0,0-10.56-4.81,61.61,61.61,0,0,0-11.26-2.53,88.53,88.53,0,0,0-10.81-.76q-5.82,0-11.62.08t-11.62.08l-10.48-.07v1.59l10.48.08-.58,77.91L878,530.14v1.6l10.48.08q6.49,0,12.93.21c4.28.1,8.6.17,12.92.21a74.4,74.4,0,0,0,9.63-.62,56.52,56.52,0,0,0,10.5-2.37,50.51,50.51,0,0,0,10.23-4.65,35.06,35.06,0,0,0,8.77-7.45,35.55,35.55,0,0,0,6.17-10.78,48.1,48.1,0,0,0,.22-29.27ZM943,500.84a51.84,51.84,0,0,1-1.48,8.53,35.44,35.44,0,0,1-3.25,8.12,23.94,23.94,0,0,1-5.75,6.85,27,27,0,0,1-8.86,4.72A39.77,39.77,0,0,1,911,530.73a56.52,56.52,0,0,1-6-.39l.57-77.91a19.57,19.57,0,0,1,3-.26c1.21,0,2.58,0,4.1,0q9.9.08,16,3a21.85,21.85,0,0,1,9.39,8.21,32.72,32.72,0,0,1,4.41,12.79,112.31,112.31,0,0,1,1,16.7C943.41,495.32,943.27,498,943,500.84Z" style="fill:#1e1e1e"/><rect x="195.14" y="485.87" width="3.7" height="3.7" style="fill:#1e1e1e"/><rect x="348.82" y="485.87" width="3.7" height="3.7" style="fill:#1e1e1e"/><rect x="470.32" y="485.87" width="3.7" height="3.7" style="fill:#1e1e1e"/><rect x="593.26" y="485.87" width="3.7" height="3.7" style="fill:#1e1e1e"/><rect x="721.99" y="485.87" width="3.7" height="3.7" style="fill:#1e1e1e"/><rect x="849.23" y="485.87" width="3.7" height="3.7" style="fill:#1e1e1e"/></svg>