<?xml version="1.0" encoding="utf-8"?>
<!-- Generator: Adobe Illustrator 22.0.1, SVG Export Plug-In . SVG Version: 6.00 Build 0)  -->
<svg version="1.1" id="Layer_1" xmlns="http://www.w3.org/2000/svg" xmlns:xlink="http://www.w3.org/1999/xlink" x="0px" y="0px"
	 viewBox="0 0 250 250" style="enable-background:new 0 0 250 250;" xml:space="preserve">
<style type="text/css">
	.st0{fill:none;}
	.st1{fill-rule:evenodd;clip-rule:evenodd;fill:#6400FA;}
</style>
<title>Bitcoin Exchange Guide</title>
<rect class="st0" width="250" height="250"/>
<g>
	<path class="st1" d="M79.4,87.6c2-0.5,4-0.5,6-0.3c2.2,0.3,4.4,1,6.3,2.3c0,1.7,0,3.5,0,5.2c-1.2-0.9-2.4-1.7-3.8-2.3
		c-1.8-0.8-3.8-1.1-5.8-0.9c-0.9,0.1-1.9,0.3-2.7,0.8c-0.5,0.3-1,0.7-1.3,1.3c-0.4,0.7-0.4,1.5-0.3,2.3c0.1,0.7,0.5,1.3,1,1.7
		c0.7,0.6,1.5,0.9,2.4,1.3c1.8,0.6,3.5,1.3,5.3,1.9c1.5,0.6,3,1.3,4.2,2.4c1.2,1,2,2.4,2.3,3.9c0.3,1.5,0.4,3.2-0.1,4.7
		c-0.4,1.4-1.2,2.6-2.3,3.6c-1.2,1-2.6,1.7-4.1,2.1c-2,0.5-4.1,0.6-6.2,0.4c-2.6-0.3-5.2-1-7.3-2.5c0-1.8,0-3.6,0-5.3
		c2.6,2.1,5.8,3.4,9.2,3.5c1.4,0,2.9-0.1,4.2-0.8c0.7-0.4,1.3-1,1.6-1.7c0.3-0.8,0.3-1.8,0-2.6c-0.3-0.8-1-1.5-1.7-1.9
		c-1.3-0.8-2.8-1.2-4.2-1.7c-1.7-0.6-3.5-1.2-5.1-2.1c-1.2-0.7-2.3-1.6-3.1-2.8c-1-1.6-1.3-3.6-1.1-5.4c0.2-1.7,1-3.4,2.3-4.6
		C76.4,88.6,77.9,87.9,79.4,87.6L79.4,87.6z"/>
	<path class="st1" d="M197.6,88.9c2-1.3,4.5-1.8,6.9-1.7c3,0,6,0.8,8.5,2.4c0,1.7,0,3.5,0,5.2c-1.1-0.8-2.2-1.6-3.5-2.1
		c-2.1-1-4.6-1.3-6.9-1c-1.2,0.2-2.6,0.8-3.2,1.9c-0.7,1.3-0.4,3,0.7,4c0.9,0.8,2,1.1,3,1.5c1.7,0.6,3.5,1.3,5.2,1.9
		c1.5,0.6,3,1.4,4.2,2.7c1.1,1.1,1.7,2.6,1.9,4.1c0.2,1.6,0.2,3.4-0.5,4.9c-0.5,1.3-1.5,2.5-2.7,3.3c-1.4,1-3,1.5-4.6,1.8
		c-2.3,0.4-4.7,0.3-6.9-0.2c-1.9-0.4-3.7-1.1-5.3-2.2c0-1.8,0-3.6,0-5.3c2,1.6,4.4,2.8,7,3.3c1.1,0.2,2.3,0.2,3.4,0.2
		c1.1-0.1,2.3-0.3,3.3-1c0.8-0.5,1.3-1.3,1.5-2.2c0.2-1,0-2.2-0.7-3c-0.6-0.7-1.5-1.2-2.4-1.6c-1.4-0.6-2.9-1.1-4.3-1.6
		c-1.4-0.5-2.8-1-4-1.7c-1.2-0.7-2.2-1.6-2.9-2.8c-0.7-1.1-1-2.5-1.1-3.8c-0.1-1.2,0.1-2.4,0.5-3.6
		C195.2,90.9,196.3,89.7,197.6,88.9L197.6,88.9z"/>
	<path class="st1" d="M230.1,87.9c1.4-0.5,2.9-0.8,4.4-0.7c3.1-0.1,6.2,0.7,8.8,2.3c0.1,0,0.1,0.2,0.1,0.3c0,1.7,0,3.4,0,5.1
		c-1.2-0.9-2.5-1.7-3.9-2.3c-1.8-0.7-3.7-1-5.6-0.9c-1,0.1-1.9,0.3-2.8,0.8c-0.6,0.3-1.1,0.9-1.4,1.5c-0.5,1.3-0.2,2.9,0.9,3.8
		c1.2,1,2.7,1.3,4.1,1.9c1.7,0.6,3.4,1.2,5,1.9c1.5,0.7,2.9,1.7,3.8,3c1,1.4,1.5,3.2,1.4,5c0,1.6-0.4,3.1-1.3,4.4
		c-0.9,1.3-2.2,2.3-3.6,3c-1.5,0.7-3.2,1-4.9,1.1c-1.9,0.1-3.8-0.1-5.6-0.5c-1.7-0.4-3.3-1.1-4.8-2.1c-0.1-1.8,0-3.6,0-5.3
		c2.6,2.1,5.9,3.4,9.2,3.5c1.4,0,3-0.1,4.3-0.8c0.7-0.4,1.2-0.9,1.5-1.7c0.3-0.9,0.3-1.8,0-2.7c-0.3-0.8-0.9-1.4-1.7-1.9
		c-1.3-0.8-2.8-1.2-4.3-1.8c-1.7-0.6-3.5-1.2-5.1-2.1c-1.3-0.7-2.5-1.7-3.2-3c-0.8-1.4-1.1-3-1-4.6c0.1-1.5,0.5-2.9,1.4-4.1
		C227,89.4,228.5,88.4,230.1,87.9L230.1,87.9z"/>
	<path class="st1" d="M125.7,87.1c6.8,6.5,13.6,13,20.5,19.5c0-6.4,0-12.7,0-19.1c1.6,0,3.3,0,4.9,0c0,10.1,0,20.3,0,30.4
		c-4.6-4.5-9.2-8.9-13.8-13.4c-2.2-2.1-4.4-4.3-6.7-6.5c0,6.5,0,12.9,0,19.4c-1.6,0-3.3,0-4.9,0C125.7,107.4,125.7,97.3,125.7,87.1
		L125.7,87.1z"/>
	<path class="st1" d="M5,87.6c2.6,0,5.2,0,7.8,0c1.8,0,3.7-0.1,5.5,0.2c1.7,0.3,3.4,0.9,4.8,2.1c1.1,0.9,1.8,2.2,2.2,3.6
		c0.4,1.6,0.4,3.2-0.1,4.8c-0.5,1.6-1.7,3.1-3.4,3.7c0.3,0.2,0.6,0.3,0.9,0.4c1.5,0.8,2.7,2.1,3.3,3.6c0.5,1.2,0.6,2.5,0.5,3.7
		c-0.1,1.6-0.6,3.2-1.7,4.5c-1.2,1.5-2.9,2.3-4.7,2.8c-1.5,0.4-3.1,0.4-4.7,0.4c-3.5,0-6.9,0-10.4,0C5,107.5,5,97.6,5,87.6L5,87.6z
		 M9.9,92c0,2.7,0,5.4,0,8.2c2,0,4,0,6,0c1.3-0.1,2.6-0.3,3.6-1.2c0.7-0.6,1.1-1.6,1.1-2.5c0.1-1-0.1-2.1-0.8-3
		c-0.6-0.7-1.5-1.1-2.4-1.3c-1-0.2-2.1-0.2-3.1-0.2C12.9,92,11.4,92,9.9,92L9.9,92z M9.9,104.4c0,2.9,0,5.8,0,8.7c2.1,0,4.3,0,6.4,0
		c1.2,0,2.5-0.2,3.5-0.9c0.9-0.6,1.5-1.5,1.7-2.5c0.2-1.1,0.1-2.3-0.5-3.3c-0.5-0.8-1.3-1.4-2.2-1.7c-0.8-0.3-1.6-0.4-2.5-0.4
		C14.2,104.4,12.1,104.4,9.9,104.4L9.9,104.4z"/>
	<path class="st1" d="M37.3,87.6c1.7,0,3.4,0,5.1,0c0,5.1,0,10.3,0,15.4c0,1.8-0.1,3.7,0.4,5.4c0.3,1.4,1.1,2.9,2.3,3.8
		c1.2,0.9,2.7,1.2,4.2,1.2c1.5,0,3.1-0.3,4.3-1.2c1-0.8,1.7-1.9,2.1-3.1c0.5-1.4,0.6-2.9,0.6-4.4c0-5.7,0-11.4,0-17.1
		c1.7,0,3.4,0,5.1,0c0,5.9,0,11.9,0,17.8c0,2.4-0.4,5-1.6,7.1c-1,1.9-2.7,3.4-4.7,4.3c-2.2,1-4.7,1.3-7.2,1.1
		c-1.7-0.1-3.4-0.6-4.9-1.4c-1.1-0.6-2.1-1.4-2.9-2.3c-1-1.1-1.6-2.5-2.1-3.9c-0.5-1.6-0.7-3.3-0.6-5C37.3,99.4,37.3,93.5,37.3,87.6
		L37.3,87.6z"/>
	<path class="st1" d="M106.3,87.6c1.7,0,3.4,0,5.1,0c0,10,0,19.9,0,29.9c-1.7,0-3.4,0-5.1,0C106.3,107.5,106.2,97.6,106.3,87.6
		L106.3,87.6z"/>
	<path class="st1" d="M164.5,87.6c6,0,12,0,18.1,0c0,1.5,0,3,0,4.5c-4.4,0-8.7,0-13.1,0c0,2.4,0,4.8,0,7.2c3.9,0,7.8,0,11.7,0
		c0,1.5,0,3,0,4.4c-3.9,0-7.8,0-11.7,0c0,3.1,0,6.2,0,9.2c4.4,0,8.7,0,13.1,0c0,1.5,0,3,0,4.6c-6,0-12,0-18.1,0c0-8.1,0-16.2,0-24.2
		C164.5,91.4,164.5,89.5,164.5,87.6L164.5,87.6z"/>
	<path class="st1" d="M44.4,132.5c6.8,6.4,13.6,12.8,20.3,19.2c0-6.3,0-12.5,0-18.8c1.6,0,3.2,0,4.8,0c0,10,0,19.9,0,29.9
		c-6.8-6.5-13.5-13-20.3-19.6c0,6.4,0,12.7,0,19.1c-1.6,0-3.2,0-4.9,0C44.4,152.5,44.4,142.5,44.4,132.5L44.4,132.5z"/>
	<path class="st1" d="M86.8,133.6c1.9-0.9,4.1-1.2,6.2-1.1c2.8,0.1,5.6,0.9,8,2.4c0,1.7,0,3.4,0,5.2c-1.2-0.9-2.5-1.7-3.8-2.2
		c-1.8-0.7-3.8-1-5.8-0.9c-0.9,0.1-1.9,0.3-2.7,0.8c-0.6,0.4-1.1,0.9-1.4,1.6c-0.4,1.1-0.2,2.5,0.7,3.4c0.7,0.7,1.6,1.1,2.5,1.4
		c1.8,0.6,3.6,1.3,5.3,1.9c1.4,0.5,2.8,1.2,4,2.2c1.1,1,2,2.2,2.4,3.7c0.4,1.5,0.5,3,0.1,4.5c-0.3,1.4-1,2.7-2.1,3.7
		c-1.1,1.1-2.5,1.8-4,2.2c-1.8,0.5-3.8,0.6-5.7,0.5c-2-0.1-3.9-0.6-5.8-1.3c-0.8-0.3-1.6-0.7-2.3-1.2c0-1.7,0-3.5,0-5.2
		c2.6,2.1,5.8,3.4,9.2,3.4c1.4,0,2.9-0.1,4.2-0.8c0.7-0.4,1.4-1.1,1.6-1.9c0.2-0.8,0.2-1.7-0.1-2.5c-0.3-0.8-1-1.4-1.8-1.9
		c-1.3-0.7-2.7-1.2-4.1-1.7c-1.6-0.6-3.2-1.1-4.7-1.9c-1.3-0.7-2.6-1.7-3.4-3c-0.8-1.3-1.1-2.9-1.1-4.4c0-1.4,0.4-2.9,1.2-4.1
		C84.3,135.1,85.5,134.2,86.8,133.6L86.8,133.6z"/>
	<path class="st1" d="M25,133c1.7,0,3.4,0,5.1,0c0,9.8,0,19.6,0,29.4c-1.7,0-3.4,0-5.1,0C25,152.6,25,142.8,25,133L25,133z"/>
	<path class="st1" d="M115.4,133c1.7,0,3.4,0,5,0c0,9.8,0,19.6,0,29.4c-1.7,0-3.4,0-5,0C115.4,152.6,115.4,142.8,115.4,133
		L115.4,133z"/>
	<path class="st1" d="M135.1,133c3.9,0,7.8,0,11.7,0c3,0,6.1,0.8,8.6,2.6c2.1,1.5,3.6,3.7,4.5,6.1c0.7,2,1,4.1,1,6.2
		c0,3-0.7,6.1-2.4,8.6c-1.4,2.1-3.5,3.8-5.8,4.7c-1.8,0.7-3.8,1.1-5.8,1.1c-3.9,0-7.8,0-11.7,0C135.1,152.6,135.1,142.8,135.1,133
		L135.1,133z M140.2,137.4c0,6.8,0,13.7,0,20.5c1.6,0,3.2,0,4.8,0c1,0,2,0,2.9-0.1c1.9-0.2,3.7-0.9,5.1-2.2c1.2-1.1,2-2.6,2.4-4.2
		c0.4-1.6,0.5-3.2,0.4-4.8c-0.1-1.5-0.4-2.9-1-4.2c-0.6-1.3-1.5-2.4-2.6-3.2c-1.3-1-2.9-1.4-4.5-1.6c-1-0.1-2-0.1-2.9-0.1
		C143.2,137.4,141.7,137.4,140.2,137.4L140.2,137.4z"/>
	<path class="st1" d="M171.4,133c6,0,12,0,18,0c0,1.5,0,2.9,0,4.4c-4.3,0-8.7,0-13,0c0,2.4,0,4.7,0,7.1c3.9,0,7.8,0,11.7,0
		c0,1.4,0,2.9,0,4.3c-3.9,0-7.8,0-11.7,0c0,3,0,6.1,0,9.1c4.3,0,8.7,0,13,0c0,1.5,0,3,0,4.5c-6,0-12,0-18,0
		C171.4,152.6,171.4,142.8,171.4,133L171.4,133z"/>
	<path class="st1" d="M204.4,133c3.7,0,7.3,0,11,0c1.8,0,3.7,0.3,5.3,1.1c1.3,0.6,2.5,1.6,3.2,2.8c0.9,1.5,1.3,3.2,1.2,4.9
		c0,1.7-0.3,3.5-1.2,5.1c-0.7,1.1-1.7,2-2.9,2.6c-0.9,0.4-1.8,0.6-2.8,0.8c3.5,4,7.1,8.1,10.6,12.1c-1.9,0-3.8,0-5.7,0
		c-3.4-4-6.9-8-10.3-11.9c-1.2,0-2.4,0-3.5,0c0,4,0,8,0,11.9c-1.7,0-3.3,0-5,0C204.4,152.6,204.4,142.8,204.4,133L204.4,133z
		 M209.4,137.3c0,3,0,6,0,9c1.9,0,3.9,0,5.8,0c1.3,0,2.7-0.4,3.7-1.3c0.7-0.6,1.1-1.5,1.2-2.4c0.2-1.1,0-2.3-0.6-3.3
		c-0.6-0.9-1.6-1.5-2.6-1.8c-1.1-0.3-2.2-0.2-3.3-0.2C212.2,137.3,210.8,137.3,209.4,137.3L209.4,137.3z"/>
</g>
</svg>
