<?xml version="1.0" encoding="utf-8"?>
<!-- Generator: Adobe Illustrator 22.1.0, SVG Export Plug-In . SVG Version: 6.00 Build 0)  -->
<svg version="1.1" id="Layer_1" xmlns="http://www.w3.org/2000/svg" xmlns:xlink="http://www.w3.org/1999/xlink" x="0px" y="0px"
	 viewBox="0 0 250 250" style="enable-background:new 0 0 250 250;" xml:space="preserve">
<style type="text/css">
	.st0{fill:none;}
	.st1{fill:#6400FA;}
	.st2{fill-rule:evenodd;clip-rule:evenodd;fill:#6400FA;}
</style>
<title>Bitcoin Exchange Guide</title>
<rect class="st0" width="250" height="250"/>
<g>
	<path class="st1" d="M66.8,132.5c-1.1,0-2-0.2-3-0.6c-0.9-0.4-1.7-0.9-2.4-1.6c-0.7-0.7-1.2-1.5-1.6-2.4c-0.4-0.9-0.6-1.9-0.6-2.9
		v0c0-1,0.2-2,0.6-2.9c0.4-0.9,0.9-1.7,1.6-2.4c0.7-0.7,1.5-1.2,2.4-1.6c0.9-0.4,1.9-0.6,3.1-0.6c0.7,0,1.3,0.1,1.9,0.2
		c0.6,0.1,1.1,0.3,1.5,0.5c0.5,0.2,0.9,0.4,1.3,0.7c0.4,0.3,0.7,0.6,1.1,0.9l-2,2.3c-0.6-0.5-1.1-0.9-1.7-1.2
		c-0.6-0.3-1.2-0.4-2-0.4c-0.6,0-1.2,0.1-1.7,0.4c-0.5,0.2-1,0.6-1.3,1c-0.4,0.4-0.7,0.9-0.9,1.4c-0.2,0.5-0.3,1.1-0.3,1.7v0
		c0,0.6,0.1,1.2,0.3,1.8c0.2,0.6,0.5,1,0.9,1.4c0.4,0.4,0.8,0.7,1.3,1c0.5,0.2,1.1,0.4,1.7,0.4c0.8,0,1.5-0.2,2.1-0.5
		c0.6-0.3,1.1-0.7,1.7-1.2l2,2c-0.4,0.4-0.8,0.8-1.2,1.1c-0.4,0.3-0.8,0.6-1.3,0.8c-0.5,0.2-1,0.4-1.6,0.5
		C68.2,132.4,67.5,132.5,66.8,132.5L66.8,132.5z M81.9,129.6c0.6,0,1.2-0.1,1.8-0.4c0.5-0.2,1-0.6,1.4-1c0.4-0.4,0.7-0.9,0.9-1.4
		c0.2-0.5,0.3-1.1,0.3-1.7v0c0-0.6-0.1-1.2-0.3-1.8c-0.2-0.6-0.5-1-0.9-1.4c-0.4-0.4-0.9-0.7-1.4-1c-0.5-0.2-1.1-0.4-1.8-0.4
		c-0.6,0-1.2,0.1-1.8,0.4c-0.5,0.2-1,0.6-1.4,1c-0.4,0.4-0.7,0.9-0.9,1.4c-0.2,0.5-0.3,1.1-0.3,1.7v0c0,0.6,0.1,1.2,0.3,1.8
		c0.2,0.6,0.5,1,0.9,1.4c0.4,0.4,0.9,0.7,1.4,1C80.6,129.4,81.2,129.6,81.9,129.6L81.9,129.6z M81.8,132.5c-1.1,0-2.1-0.2-3.1-0.6
		c-0.9-0.4-1.7-0.9-2.4-1.6c-0.7-0.7-1.2-1.5-1.6-2.4c-0.4-0.9-0.6-1.9-0.6-2.9v0c0-1,0.2-2,0.6-2.9c0.4-0.9,0.9-1.7,1.6-2.4
		c0.7-0.7,1.5-1.2,2.4-1.6c0.9-0.4,2-0.6,3.1-0.6c1.1,0,2.1,0.2,3.1,0.6c0.9,0.4,1.7,0.9,2.4,1.6c0.7,0.7,1.2,1.5,1.6,2.4
		c0.4,0.9,0.6,1.9,0.6,2.9v0c0,1-0.2,2-0.6,2.9c-0.4,0.9-0.9,1.7-1.6,2.4c-0.7,0.7-1.5,1.2-2.4,1.6C84,132.3,82.9,132.5,81.8,132.5
		L81.8,132.5z M92,117.8h3.2v14.5H92V117.8L92,117.8z M98.3,117.8h2.9l6.8,8.9v-8.9h3.1v14.5h-2.7l-7-9.2v9.2h-3.1V117.8L98.3,117.8
		z"/>
	<path class="st1" d="M114.9,117.8h1.7l5.3,7.9l5.3-7.9h1.7v14.5h-1.6v-11.7l-5.3,7.8h-0.1l-5.3-7.7v11.7h-1.6V117.8L114.9,117.8z
		 M132.2,117.8h10.5v1.5h-8.8v4.9h7.9v1.5h-7.9v5.1h8.9v1.5h-10.6V117.8L132.2,117.8z M151.4,125.1c0.5,0,1-0.1,1.5-0.2
		c0.5-0.1,0.8-0.3,1.2-0.6c0.3-0.3,0.6-0.6,0.8-0.9c0.2-0.4,0.3-0.8,0.3-1.3v0c0-0.9-0.3-1.6-1-2.1c-0.6-0.5-1.6-0.8-2.7-0.8H147
		v5.9H151.4L151.4,125.1z M145.3,117.8h6.2c0.9,0,1.7,0.1,2.4,0.4c0.7,0.3,1.3,0.6,1.7,1.1c0.4,0.4,0.6,0.8,0.8,1.3
		c0.2,0.5,0.3,1,0.3,1.6v0c0,0.6-0.1,1.1-0.3,1.6c-0.2,0.5-0.5,0.9-0.8,1.2c-0.4,0.4-0.8,0.6-1.3,0.9c-0.5,0.2-1,0.4-1.6,0.5
		l4.5,5.9h-2l-4.2-5.6h0H147v5.6h-1.6V117.8L145.3,117.8z M166.2,132.5c-1,0-2-0.2-2.9-0.6c-0.9-0.4-1.6-0.9-2.3-1.6
		c-0.6-0.7-1.2-1.5-1.5-2.4c-0.4-0.9-0.5-1.9-0.5-2.9v0c0-1,0.2-2,0.5-2.9c0.4-0.9,0.9-1.7,1.5-2.4c0.6-0.7,1.4-1.2,2.3-1.6
		c0.9-0.4,1.9-0.6,2.9-0.6c0.7,0,1.3,0.1,1.8,0.2c0.5,0.1,1,0.3,1.5,0.5c0.5,0.2,0.9,0.4,1.3,0.7c0.4,0.3,0.8,0.6,1.1,0.9l-1.1,1.2
		c-0.6-0.6-1.3-1.1-2-1.4c-0.7-0.4-1.6-0.6-2.6-0.6c-0.8,0-1.5,0.2-2.2,0.5c-0.7,0.3-1.3,0.7-1.8,1.3c-0.5,0.5-0.9,1.2-1.2,1.9
		c-0.3,0.7-0.4,1.5-0.4,2.3v0c0,0.8,0.1,1.6,0.4,2.4c0.3,0.7,0.7,1.4,1.2,1.9c0.5,0.5,1.1,1,1.8,1.3c0.7,0.3,1.4,0.5,2.2,0.5
		c1,0,1.8-0.2,2.6-0.5c0.7-0.4,1.4-0.9,2.1-1.5l1.1,1.1c-0.4,0.4-0.8,0.7-1.2,1c-0.4,0.3-0.8,0.6-1.3,0.8c-0.5,0.2-1,0.4-1.5,0.5
		C167.5,132.4,166.9,132.5,166.2,132.5L166.2,132.5z M174.1,117.8h10.5v1.5h-8.8v4.9h7.9v1.5h-7.9v5.1h8.9v1.5h-10.6V117.8
		L174.1,117.8z M187.3,117.8h1.5l9.1,11.6v-11.6h1.6v14.5h-1.3l-9.4-11.9v11.9h-1.6V117.8L187.3,117.8z M212.3,126.9l-3.3-7.4
		l-3.3,7.4H212.3L212.3,126.9z M208.3,117.6h1.5l6.6,14.6h-1.8l-1.7-3.8h-7.9l-1.7,3.8h-1.7L208.3,117.6L208.3,117.6z M224.6,125.1
		c0.5,0,1-0.1,1.5-0.2c0.5-0.1,0.8-0.3,1.2-0.6c0.3-0.3,0.6-0.6,0.8-0.9c0.2-0.4,0.3-0.8,0.3-1.3v0c0-0.9-0.3-1.6-1-2.1
		c-0.6-0.5-1.6-0.8-2.7-0.8h-4.5v5.9H224.6L224.6,125.1z M218.5,117.8h6.2c0.9,0,1.7,0.1,2.4,0.4c0.7,0.3,1.3,0.6,1.7,1.1
		c0.4,0.4,0.6,0.8,0.8,1.3c0.2,0.5,0.3,1,0.3,1.6v0c0,0.6-0.1,1.1-0.3,1.6c-0.2,0.5-0.5,0.9-0.8,1.2c-0.4,0.4-0.8,0.6-1.3,0.9
		c-0.5,0.2-1,0.4-1.6,0.5l4.5,5.9h-2l-4.2-5.6h0h-4.1v5.6h-1.6V117.8L218.5,117.8z M237.3,126.5l-6-8.8h2l4.9,7.2l4.9-7.2h1.9
		l-6,8.7v5.8h-1.7V126.5L237.3,126.5z"/>
	<path class="st2" d="M27.6,102.4c7.5,0,14.1,3.6,18.2,9.2l-3.2,2.7c-3.3-4.7-8.8-7.7-15-7.7c-10.2,0-18.4,8.2-18.4,18.4
		c0,7.5,4.5,14,11,16.8v4.5C11.3,143.2,5,134.9,5,125C5,112.5,15.1,102.4,27.6,102.4L27.6,102.4z"/>
	<path class="st2" d="M23,113.9v17.5v11.4v4v0.2c1.3,0.3,2.7,0.4,4.1,0.5v-0.7v-3.5v-20.7l8.9,6.3l9.6-8.1c0.3,1.3,0.5,2.7,0.5,4.1
		c0,9.4-7,17.1-16.1,18.3v4.2c11.4-1.2,20.2-10.8,20.2-22.5c0-4-1-7.7-2.8-11l-1.8,1.5l0-0.1l-9.6,8.3L23,113.9L23,113.9z"/>
</g>
</svg>
