<?xml version="1.0" encoding="utf-8"?>
<!-- Generator: Adobe Illustrator 22.0.1, SVG Export Plug-In . SVG Version: 6.00 Build 0)  -->
<svg version="1.1" id="Layer_1" xmlns="http://www.w3.org/2000/svg" xmlns:xlink="http://www.w3.org/1999/xlink" x="0px" y="0px"
	 viewBox="0 0 250 250" style="enable-background:new 0 0 250 250;" xml:space="preserve">
<style type="text/css">
	.st0{fill:none;}
	.st1{fill:#6400FA;}
</style>
<title>Crain&apos;s</title>
<rect class="st0" width="250" height="250"/>
<path class="st1" d="M212.2,132.1L212.2,132.1z"/>
<path class="st1" d="M211.6,132.1L211.6,132.1z"/>
<path class="st1" d="M211.6,132.1c-1.9,0-3.8,0-5.7,0.2c0,0.1,0,0.1-0.1,0.2s0.1-0.1,0.1-0.2C207.8,132.1,209.7,132,211.6,132.1z"/>
<path class="st1" d="M109.2,104c-0.2,0.4-0.4,0.8-0.6,1.3c-2.9,6.9-5.8,13.8-8.7,20.7c-2.5,5.8-4.9,11.7-7.4,17.5
	c-0.2,0.4-0.4,0.7-0.7,1.1c-0.3-0.4-0.6-0.6-0.8-0.9c-2.9-3.8-5.8-7.6-8.7-11.4c0-0.1,0-0.1,0-0.2c0-0.1,0.1-0.2,0.1-0.3l1.1-0.7
	c7-4.5,7.7-12.8,5.3-18.2c-1.5-3.3-4.1-5.8-7.5-7.1c-2.7-1.1-5.6-1.6-8.6-1.6H55.9c-0.5,0-0.9,0.1-1.4,0.1c-0.2,0.6-0.3,1.3-0.2,2
	c0,9.8,0,19.6,0,29.4c0,2.9,0,5.9,0,8.8c0,0.5,0.1,0.9,0.1,1.4c0.2,0.1,0.4,0.2,0.6,0.2c2.9,0,5.9,0,8.8,0c0.3,0,0.6-0.1,0.9-0.1
	c0-0.7,0.1-1.3,0.1-1.9c0-2.8,0-5.6,0-8.4c0-0.5-0.1-1.1,0.3-1.6h6.1l8.9,12c0.4,0,0.7,0.1,1,0.1h21c0.1,0,0.1,0,0.2-0.1
	c0.1,0,0.2-0.1,0.2-0.1c1.1-2.2,1.7-4.6,2.8-6.9c0.4,0,0.8-0.1,1.2-0.1h15.3c0.4,0,0.8,0.1,1.2,0.1c0.5,1.2,0.9,2.4,1.4,3.6
	c0.4,1.2,0.9,2.4,1.5,3.5c3.5,0,6.9,0,10.3,0c0.1,0,0.3-0.2,0.4-0.3c-0.5-1.7-16.9-40.6-17.6-41.8
	C115.8,103.7,112.5,103.7,109.2,104z M79.4,120.5c-0.5,1.3-1.4,2.4-2.7,3c-1.2,0.6-2.5,1-3.8,1c-2.4,0-4.9,0-7.3,0
	c-0.2,0-0.3-0.1-0.5-0.1c-0.1-0.2-0.2-0.3-0.2-0.5c0-3.3,0-6.6,0-9.9c0-0.2,0.1-0.3,0.2-0.5c0.2-0.1,0.3-0.1,0.5-0.1
	c2.4,0,4.9,0,7.3,0c1.4,0,2.9,0.4,4.1,1.1C79.2,115.6,80.1,118.2,79.4,120.5z M119.3,129.8c-3.4,0.2-6.8,0.2-10.2,0
	c0-0.2,0-0.3,0-0.5c1.6-4.2,3.2-8.4,4.9-12.7c0.3,0.3,0.5,0.4,0.6,0.6c1.6,4,3.1,8,4.7,12C119.3,129.4,119.3,129.6,119.3,129.8z"/>
<path class="st1" d="M191.4,104.3c-3.4-0.3-6.9-0.2-10.3,0.1c0,7.5,0,15-0.2,22.6c-1.5-1.4-2.9-2.8-4.1-4.4c-1.3-1.5-2.6-3.1-4-4.6
	s-2.6-3-3.9-4.5l-4-4.6l-4-4.6c-1.4,0-2.7,0-4,0c-1.3-0.1-2.7-0.1-4,0.2c0,0.7,0,1.3,0,2v37.5c0,0.4,0,0.7,0,1.1s0.1,0.7,0.2,1
	c0.5,0,0.8,0.1,1.2,0.1c2.9,0,5.7,0,8.6-0.1c0.1,0,0.2-0.1,0.4-0.2c0.1-0.6,0.2-1.3,0.1-1.9c0-6.2,0-12.4,0-18.7
	c-0.1-0.6,0-1.1,0.2-1.7c0.4,0.3,0.7,0.6,0.9,0.9l9.3,10.7c2.9,3.3,5.8,6.6,8.7,10c0.5,0.6,1.2,1,2,0.9c1.9-0.1,3.8,0,5.7,0
	c0.4,0,0.7-0.1,1.1-0.2c0-0.8,0-1.5,0-2.2v-37.1c0-0.4,0-0.8,0-1.3S191.5,104.6,191.4,104.3z"/>
<path class="st1" d="M238,124.6c-0.8-0.6-1.6-1-2.5-1.4c-1.8-0.8-3.7-1.4-5.6-1.8c-2.2-0.5-4.4-1-6.6-1.5c-0.9-0.2-1.8-0.6-2.7-1
	c-1.6-0.9-2.2-3-1.3-4.6c0.1-0.2,0.3-0.5,0.5-0.7c0.6-0.7,1.4-1.2,2.3-1.4c1.8-0.5,3.7-0.5,5.5,0c1.6,0.4,2.9,1.6,3.5,3.1
	c0.2,0.6,0.4,1.1,0.7,1.8c1.1,0.1,2.3,0.1,3.4,0.1c1.2,0,2.4,0,3.6,0c1.1,0.1,2.2,0,3.3-0.2c0-0.1,0-0.3,0.1-0.4
	c-0.4-5.2-3.7-9.6-8.6-11.5c-5.2-2.2-11.1-2.5-16.5-0.8c-2.3,0.7-4.4,2-6.1,3.7c-3.3,3.5-4,7.8-3,12.4c0.5,2.2,1.7,4.1,3.6,5.4
	c0.9,0.7,1.9,1.3,2.9,1.8c1.7,0.8,3.4,1.4,5.3,1.7l7,1.5c1.1,0.2,2.1,0.6,3,1.1c1.4,0.9,1.8,2.7,0.9,4c-0.2,0.3-0.5,0.6-0.8,0.8
	c-0.7,0.5-1.5,0.9-2.3,1c-2.1,0.4-4.3,0.3-6.4-0.4c-2-0.6-3.7-2.2-4.4-4.1c-0.1-0.3-0.3-0.7-0.4-1c-0.5-0.1-1-0.1-1.5-0.1H214h-2.3
	c-1.9,0-3.8,0-5.7,0.2c0,0.1,0,0.1-0.1,0.2c0,0,0,0.1,0,0.1c0,0.2,0,0.5,0,0.7c0.8,5.7,4.8,10.4,10.2,12.1c3.8,1.3,7.9,1.7,11.9,1.1
	c2.5-0.2,5-0.9,7.2-2.1c5.4-2.8,7.5-7.8,6.8-13.3C241.7,128.6,240.3,126.2,238,124.6z"/>
<path class="st1" d="M40.5,128.8c-0.2,0.5-0.4,0.9-0.5,1.4c-1.1,3.7-4.4,6.4-8.3,6.8c-5,0.8-9.9-1.8-12-6.3c-1.4-3-1.6-6.3-0.7-9.5
	c0.5-1.8,1.4-3.5,2.7-4.8c2.3-2.4,5.5-3.6,8.8-3.4c4.1,0,7.9,2.5,9.3,6.4c0.2,0.6,0.5,1.2,0.7,1.8c0.2,0.1,0.4,0.2,0.5,0.2
	c3.1,0,6.1,0,9.2,0c0.3,0,0.5-0.1,0.8-0.1c0-0.3,0.1-0.4,0.1-0.5c0-0.1,0-0.2,0-0.3c-1.3-7.3-5.1-12.7-12.1-15.6
	c-4.6-1.9-9.7-2.2-14.5-1c-6.6,1.4-12.1,5.8-14.7,12c-1.4,3.2-2.1,6.7-1.8,10.2c0.5,8.9,4.7,15.3,12.8,19c4.2,1.8,8.9,2.4,13.4,1.5
	c8.5-1.2,15.3-7.8,16.8-16.3c0.1-0.5,0.1-1,0.2-1.6C47.5,128.5,44,128.5,40.5,128.8z"/>
<path class="st1" d="M148.8,106.4c0-0.4,0-0.8,0-1.3c0-0.3-0.1-0.7-0.2-1h-10.2c0,0.9-0.1,1.6-0.1,2.3v37.2c0,0.4,0,0.8,0,1.3
	s0.1,0.7,0.1,1c3.4,0.3,6.8,0.3,10.2,0c0.2-0.7,0.2-1.4,0.2-2.1C148.8,131.3,148.8,118.9,148.8,106.4z"/>
<path class="st1" d="M202.7,104.5c-1.9-1.4-4.4-1.4-6.4-0.2c-3.2,2-3.5,6.4-0.4,8.4c0.3,0.2,0.6,0.4,0.9,0.7c-0.2,0.5-0.4,1-0.6,1.5
	c-0.6,1.4-1.3,2.7-1.9,4.1c-0.1,0.4-0.2,0.7-0.2,1.1c1.7,0.1,3.5,0.1,5.2,0c0.1-0.1,0.3-0.3,0.4-0.4c1.3-2.2,2.6-4.4,3.9-6.6
	c0.4-0.6,0.7-1.3,0.9-1.9C205.4,108.6,204.7,106,202.7,104.5z"/>
<rect class="st0" width="250" height="250"/>
</svg>
