<?xml version="1.0" encoding="utf-8"?>
<!-- Generator: Adobe Illustrator 22.0.1, SVG Export Plug-In . SVG Version: 6.00 Build 0)  -->
<svg version="1.1" id="Layer_1" xmlns="http://www.w3.org/2000/svg" xmlns:xlink="http://www.w3.org/1999/xlink" x="0px" y="0px"
	 viewBox="0 0 250 250" style="enable-background:new 0 0 250 250;" xml:space="preserve">
<style type="text/css">
	.st0{fill:none;}
	.st1{fill:#6400FA;}
</style>
<title>Forbes</title>
<rect class="st0" width="250" height="250"/>
<path class="st1" d="M144.1,115.6c-2.5,0-5,0.6-7.2,1.8c0-6.4,0-12.3,0.2-14.3l-13.5,2.4v1.2l1.4,0.2c1.8,0.4,2.4,1.4,2.8,3.8
	c0.4,4.8,0.2,30.6,0,34.8c3.7,0.9,7.5,1.3,11.3,1.4c10.7,0,17.1-6.6,17.1-17.1C156.2,121.6,151,115.5,144.1,115.6L144.1,115.6z
	 M139.5,144.7c-0.8,0-1.6,0-2.4-0.2c-0.2-2.8-0.4-14.7-0.2-25.1c1-0.4,2-0.6,3-0.6c4.4,0,6.8,5.2,6.8,11.7
	C146.7,138.4,143.7,144.7,139.5,144.7L139.5,144.7z"/>
<path class="st1" d="M72.9,103.9H37.5v1.8l2,0.2c2.6,0.4,3.6,2,4,5.8c0.5,8.8,0.5,17.7,0,26.6c-0.4,3.8-1.4,5.6-4,5.8l-2,0.4v1.6
	h22.7v-1.6l-2.4-0.4c-2.6-0.2-3.6-2-4-5.8c-0.2-2.6-0.4-6.8-0.4-12.1l4.8,0.2c3,0,4.4,2.4,5,5.8h1.8V118h-1.8c-0.6,3.4-2,5.8-5,5.8
	l-4.8,0.2c0-6.8,0.2-13.3,0.4-17.1h7c5.4,0,8.3,3.4,10.3,9.4l2-0.6L72.9,103.9L72.9,103.9z"/>
<path class="st1" d="M84.4,115.1c10.1,0,15.1,6.8,15.1,15.9c0,8.6-5.6,15.9-15.7,15.9s-15.1-6.8-15.1-15.9
	C68.7,122.3,74.3,115.1,84.4,115.1L84.4,115.1z M83.8,117.1c-4.4,0-5.6,6-5.6,13.9c0,7.6,2,13.9,6,13.9c4.6,0,5.8-6,5.8-13.9
	C90,123.4,88,117.1,83.8,117.1L83.8,117.1z"/>
<path class="st1" d="M158.8,131.2c0-8.3,5.2-16.1,15.5-16.1c8.4,0,12.5,6.2,12.5,14.5h-18.7c-0.2,7.4,3.4,12.9,10.7,12.9
	c2.5,0.1,4.9-0.7,6.8-2.2l0.8,1c-2.9,3.7-7.4,5.7-12.1,5.6C165.2,146.9,158.8,140.5,158.8,131.2L158.8,131.2z M168,127.4l9.4-0.2
	c0-4-0.6-10-4-10S168.3,122.8,168,127.4L168,127.4z"/>
<path class="st1" d="M210.7,116.8c-3-1.1-6.1-1.7-9.3-1.6c-7.4,0-12.1,4.4-12.1,9.7c0,5.2,3.4,7.4,8.2,9c5,1.8,6.4,3.2,6.4,5.6
	s-1.8,4.6-5,4.6c-3.8,0-6.6-2.2-8.9-8.3l-1.4,0.4l0.2,8.9c3.4,1.2,7,1.8,10.7,1.8c7.8,0,12.9-4,12.9-10.3c0-4.2-2.2-6.6-7.4-8.7
	c-5.6-2.2-7.6-3.6-7.6-6.2c-0.1-2.3,1.6-4.3,3.9-4.4c0.1,0,0.2,0,0.3,0c3.6,0,6,2.2,7.8,7.6l1.4-0.4L210.7,116.8L210.7,116.8z"/>
<path class="st1" d="M125.6,116c-3.4-2-9.4-1-12.7,6.2l0.2-7l-13.5,2.6v1.1l1.4,0.2c1.8,0.2,2.6,1.2,2.8,3.8
	c0.3,5.8,0.3,11.7,0,17.5c-0.2,2.4-1,3.6-2.8,3.8l-1.4,0.2v1.6h18.7v-1.6l-2.4-0.2c-2-0.2-2.6-1.4-2.8-3.8
	c-0.4-5.4-0.4-10.9-0.2-16.3c1-1.4,5.4-2.6,9.4,0L125.6,116z"/>
</svg>
