<?xml version="1.0" encoding="utf-8"?>
<!-- Generator: Adobe Illustrator 22.1.0, SVG Export Plug-In . SVG Version: 6.00 Build 0)  -->
<svg version="1.1" id="Layer_1" xmlns="http://www.w3.org/2000/svg" xmlns:xlink="http://www.w3.org/1999/xlink" x="0px" y="0px"
	 viewBox="0 0 250 250" style="enable-background:new 0 0 250 250;" xml:space="preserve">
<style type="text/css">
	.st0{fill:none;}
	.st1{fill:#6400FA;}
</style>
<title>Bitcoin Exchange Guide</title>
<rect class="st0" width="250" height="250"/>
<path class="st1" d="M142.6,108.7c-0.2,0-0.3,0-0.5,0c-0.2,0-0.3,0-0.5,0h-1.1l-0.7,1.2c0,0-0.1,0.1-0.1,0.1l-18,31.1h6.3l3.9-6.7
	h20.2l3,5.1c0,0,0,0.1,0,0.1l0.9,1.6h6.3l-18.7-32.4H142.6z M135,128.9l7.1-12.2v0l7,12.2H135z"/>
<path class="st1" d="M198.1,111.5c-1.8-1.9-3.9-2.8-6.4-2.9h-21.1v32.4h21.1c2.5-0.1,4.6-1,6.4-2.8c1.8-1.9,2.7-4.1,2.7-6.7
	c0-2.6-0.9-4.9-2.8-6.7c1.9-1.8,2.8-4.1,2.8-6.7C200.7,115.6,199.9,113.4,198.1,111.5z M194.2,134.5c-0.8,0.8-1.8,1.2-2.9,1.2H176
	v-8.1h15.5c1.1,0.1,2,0.5,2.8,1.3c0.8,0.8,1.1,1.7,1.1,2.8C195.4,132.8,195,133.7,194.2,134.5z M194.2,120.9
	c-0.8,0.8-1.7,1.2-2.8,1.2H176V114h15.3c1.2,0,2.1,0.4,2.9,1.1c0.8,0.8,1.1,1.8,1.1,2.9C195.4,119.2,195,120.1,194.2,120.9z"/>
<path class="st1" d="M239.7,108.7v2.2c0,0.1,0,0.3,0,0.5v20.5l-23.2-23.2h-3.8v32.4h5.4v-23.2l21.6,21.7v0l1.5,1.5h3.9v-32.4H239.7z
	"/>
<polygon class="st1" points="100,124.9 100,124.8 100,124.8 "/>
<path class="st1" d="M100,124.9L100,124.9L100,124.9l16.3-16.2h-7.7l-23.2,23.2v-23.2h-5.4v29.8c0,0.2,0,0.3,0,0.4v2.2h3.6
	l12.6-12.4l11.6,11.6c0.1,0.1,0.2,0.2,0.3,0.2l0.6,0.6h7.7L100,124.9L100,124.9z"/>
<path class="st1" d="M51.1,134.5c-0.4,0-0.8,0.1-1.2,0.2c-0.3,0.2-0.7,0.5-1,0.7c-0.8,0.5-1.8,1.1-2.8,1.7l0,0
	c-0.2,0.1-0.5,0.2-0.7,0.3h0l0,0c-3.3,1.8-7.3,2.8-12,2.8c-3.9,0-7.2-1.5-10-4.4c-2.8-3-4.2-6.5-4.2-10.7c0-4.1,1.4-7.6,4.2-10.6
	c2.7-2.9,6-4.4,9.9-4.2c0.8,0,1.5-0.3,2-0.8h0l0,0c0.2-0.3,0.4-0.6,0.5-0.8c0.2-0.4,0.3-0.7,0.3-1.1c0-0.8-0.3-1.5-0.9-2.1v0l0,0
	c-0.6-0.5-1.2-0.7-2-0.7c-4.4,0-8.3,1.3-11.8,4c-0.8,0.6-1.5,1.3-2.2,2c-3.9,4-5.9,8.9-5.9,14.5c0,5.7,2,10.6,5.9,14.6
	c0.4,0.4,0.9,0.9,1.3,1.3c3.6,3.2,7.9,4.8,12.8,4.9c4.9,0,9.2-0.8,13-2.5c0.9-0.4,1.8-0.8,2.7-1.3v0c0.6-0.4,1.2-0.7,1.9-1.1
	c0.4-0.3,0.8-0.5,1.3-0.8c0.3-0.2,0.7-0.5,1-0.7c0,0,0-0.1,0-0.1c0.6-0.6,0.9-1.2,0.9-2s-0.3-1.5-0.9-2.1
	C52.5,134.8,51.9,134.5,51.1,134.5z"/>
<path class="st1" d="M47.7,146.7c-0.6-0.2-1.2-0.3-1.8-0.2l0.3-0.2l-0.6,0.3h-0.2c-0.1,0-0.1,0.1-0.1,0.1c-3.9,1.5-7.9,2.2-12,2.2
	c-3.2,0-6.3-0.6-9.2-1.9h0c-4-2-7.3-4.9-9.8-8.8v0c-2.5-4-3.7-8.4-3.7-13.1c0-6.5,2.2-12.1,6.7-16.8c4.4-4.7,9.7-7,16-7
	c1.6,0,2.9,0.6,4,1.7c1.1,1.2,1.7,2.7,1.7,4.4c0,0.4,0,0.8-0.1,1.1c-0.2,1.2-0.7,2.3-1.6,3.2v0h0c-1.1,1.1-2.4,1.7-4,1.7
	c-3.2,0-5.9,1.2-8.1,3.5v0c-2.2,2.3-3.4,5.1-3.4,8.4c0,3.2,1.1,6,3.4,8.3c2.3,2.3,5,3.4,8.1,3.4c4.5,0,8.7-1,12.4-3
	c0.2-0.1,0.5-0.2,0.7-0.4h0c0.1-0.1,0.3-0.3,0.8-0.6c0.4-0.4,0.6-1,0.6-1.8c0-0.8-0.3-1.5-0.9-2.1c-0.5-0.5-1.2-0.8-2-0.8
	c-0.3,0-0.6,0-0.9,0.1c-0.2,0.1-0.4,0.2-0.6,0.3c-0.2,0.1-0.3,0.2-0.5,0.3c-2.8,1.4-5.9,2.1-9.4,2.1c-1.6,0-2.9-0.6-4.1-1.8v0
	c-1.1-1.2-1.7-2.7-1.7-4.4c0-1.7,0.6-3.2,1.7-4.4c1.1-1.2,2.4-1.7,4-1.7c3.1,0,5.8-1.1,8-3.4c1.9-2,3-4.3,3.2-6.9
	c0.1-0.5,0.1-0.9,0.1-1.4c0-3.2-1.1-6-3.3-8.3c-2.2-2.3-4.9-3.4-8-3.4c-7.9,0-14.6,2.9-20.1,8.7c-5.5,5.8-8.3,12.7-8.3,20.9
	c0,5.8,1.5,11.1,4.6,16c3,4.8,7,8.5,12.1,11h0c3.4,1.6,7.3,2.4,11.7,2.4c4.3,0,8.6-0.7,12.7-2h0c0.5-0.1,0.9-0.3,1.4-0.5
	c0.7-0.2,1.3-0.7,1.6-1.4c0.4-0.8,0.4-1.6,0-2.3C48.9,147.5,48.4,147,47.7,146.7z"/>
<path class="st1" d="M44.9,115.8l-0.1,0.2l0,0c-1.3,2-3,3.5-5,4.6c-2,1.1-4.2,1.7-6.5,1.7c-1.9,0-2.9,0.9-2.9,2.8c0,2,1,2.9,2.9,2.9
	c3.2,0,6.2-0.8,9.1-2.3c1.6-0.8,3-1.8,4.2-3c1.1-1,2-2.1,2.9-3.3c2.1-3.2,3.2-6.8,3.3-10.9c0-0.2,0-0.3,0-0.5v-0.1l-0.4-4.3v-0.1
	c-0.4-1.8-1.5-2.6-3.2-2.4h-0.2l-0.1,0c-1.7,0.6-2.4,1.7-2.1,3.3c0.2,1.1,0.3,2.2,0.3,3.4c0,0.2,0,0.5,0,0.7
	C46.9,111.4,46.2,113.8,44.9,115.8z"/>
<path class="st1" d="M56.5,130.1c-0.8,0-1.5,0.3-2,0.8c-0.6,0.5-0.8,1.2-0.8,2c0,0.8,0.3,1.5,0.8,2c0.6,0.5,1.2,0.8,2,0.8
	s1.5-0.3,2-0.8c0.6-0.6,0.8-1.2,0.8-2c0-0.8-0.3-1.4-0.8-2C58,130.4,57.3,130.1,56.5,130.1z"/>
<path class="st1" d="M59.6,113.7c-0.4-0.7-0.8-1.1-1.2-1.3l-0.3,0c-0.8-0.2-1.5-0.1-2.1,0.3v0c-0.7,0.3-1.2,0.9-1.4,1.8
	c0,0.1,0,0.2,0,0.2c-1.1,3.7-2.9,7-5.5,9.9c-0.2,0.2-0.4,0.4-0.6,0.6v0c0,0,0,0,0,0c-0.3,0.5-0.5,1-0.5,1.6c0,0.8,0.3,1.5,0.8,2
	c0.6,0.6,1.3,0.9,2.1,0.9c0.7,0,1.3-0.2,1.8-0.7c0,0,0.1-0.1,0.1-0.1c0.3-0.3,0.5-0.6,0.8-0.8c2.9-3.3,5-7.4,6.3-12.1l0,0v-0.1
	l0.1-0.6v-0.1c0-0.2,0-0.4,0-0.6C59.7,113.9,59.6,113.6,59.6,113.7z"/>
</svg>
