<?xml version="1.0" encoding="utf-8"?>
<!-- Generator: Adobe Illustrator 22.0.1, SVG Export Plug-In . SVG Version: 6.00 Build 0)  -->
<svg version="1.1" id="Layer_1" xmlns="http://www.w3.org/2000/svg" xmlns:xlink="http://www.w3.org/1999/xlink" x="0px" y="0px"
	 viewBox="0 0 250 250" style="enable-background:new 0 0 250 250;" xml:space="preserve">
<style type="text/css">
	.st0{fill:none;}
	.st1{fill:#6400FA;}
</style>
<title>PCMag</title>
<rect class="st0" width="250" height="250"/>
<path class="st1" d="M13.2,192.1v-27h4.4l17.1,21.2v-21.2h4.1v27h-4.4l-17.1-21.2v21.2H13.2z"/>
<path class="st1" d="M46.6,192.3v-27h22.1v3.9h-17v7.5h15.8v3.9H51.7v7.5h17.7v4.2L46.6,192.3z"/>
<polygon class="st1" points="97.1,165.3 72.4,165.3 72.4,169.4 82.5,169.4 82.5,192.2 87.2,192.2 87.2,169.4 97.1,169.4 "/>
<polygon class="st1" points="98.8,165 104.6,165 110.6,186.4 117.1,165 122.6,165 129.2,186.6 135,165 140.5,165 131.8,192.2 
	126.6,192.2 119.6,171.7 113.3,192.2 107.7,192.2 "/>
<path class="st1" d="M158.6,164.2c-8.3,0-15,4-15,14.5c0,8,4.6,14.5,15,14.5c9.8,0,15-6.5,15-14.5
	C173.7,168.6,166.9,164.2,158.6,164.2z M158.6,188.9c-6.7,0-9.6-4.6-9.6-10.2c0-7.4,4.3-10.2,9.6-10.2s9.6,3.1,9.6,10.2
	C168.2,184.4,164.9,188.9,158.6,188.9z"/>
<path class="st1" d="M203.8,187.4c0-2.8,0.6-7.4-3.6-8.2c0,0,4.3-1,4.3-7.5S197,165,197,165h-17.7v27.2h5.5v-10.7h8.8
	c2.1-0.4,4.1,0.9,4.6,2.9c0,0.2,0.1,0.4,0.1,0.7c0.5,4.4-0.1,5.7,0.9,7.1h5.7C204.2,190.7,203.8,189.1,203.8,187.4z M194.9,177.4
	h-10v-8H195c2.2,0.1,3.9,1.9,3.9,4.1C198.8,177.4,194.9,177.4,194.9,177.4L194.9,177.4z"/>
<polygon class="st1" points="210.7,165 216,165 216,178 229.2,164.8 236.5,164.8 224.9,176.1 237.5,192.3 230.2,192.3 220.5,179.9 
	215.9,184.2 215.9,192.3 210.7,192.3 "/>
<rect x="12.5" y="153.8" class="st1" width="223.2" height="3.6"/>
<path class="st1" d="M34.3,57.5l-21.8,0.1V146h14.6v-32.8h9.8c0,0,10.9,0.6,10.9-12.6V74.2C47.7,74.2,49.4,57.5,34.3,57.5z
	 M32.8,74.7v21.7c0,4.5-3.2,4.5-3.2,4.5h-2.1V69.8C33.6,69.8,32.8,74.7,32.8,74.7z"/>
<path class="st1" d="M84.7,88.5H71.1V71.8c0,0,0.5-3.1-2.1-3.1s-2.6,1.7-2.6,3.4v59c0,0-0.6,3.3,2.6,3.3c0,0,2,0.4,2-3.2v-20.7h13.7
	V134c0,0,0.2,12.7-16.9,12.7s-17.2-14.6-17.2-17.3V73.2c0,0-1.7-16.4,18.1-16.4c0,0,15.9-0.5,15.9,14L84.7,88.5z"/>
<path class="st1" d="M218.9,146.7c-17,2.2-17.1-14.6-17.1-17.3V73.2c0,0-1.8-16.4,18.1-16.4c0,0,15.9-0.5,15.9,14v17.8h-13.6V71.8
	c0,0,0.5-3.1-2.1-3.1s-2.6,1.7-2.6,3.4v59c0,0-0.6,3.3,2.6,3.3c0,0,2,0.2,2-3.1v-15.5h-3.3v-13.5h17.3v43.5h-7.4l-2.1-4.4
	C226.7,141.4,224,146.1,218.9,146.7z"/>
<polygon class="st1" points="98.5,57.4 98.5,146 110.1,146 110.1,97.3 119.9,146 129.8,146 138.5,97 138.5,146 152.3,146 
	152.3,57.4 131.8,57.4 125.5,103.3 118,57.4 "/>
<path class="st1" d="M185.6,146h14.9l-12-88.8h-19.3L157.1,146h15.4l2.5-24.3h8L185.6,146z M176.3,109.4L179,84l2.7,25.4H176.3z"/>
</svg>
