<?xml version="1.0" encoding="utf-8"?>
<!-- Generator: Adobe Illustrator 22.0.1, SVG Export Plug-In . SVG Version: 6.00 Build 0)  -->
<svg version="1.1" id="Layer_1" xmlns="http://www.w3.org/2000/svg" xmlns:xlink="http://www.w3.org/1999/xlink" x="0px" y="0px"
	 viewBox="0 0 250 250" style="enable-background:new 0 0 250 250;" xml:space="preserve">
<style type="text/css">
	.st0{fill:none;}
	.st1{fill:#6400FA;}
</style>
<title>Bitcoin Exchange Guide</title>
<rect class="st0" width="250" height="250"/>
<path class="st1" d="M22.8,115.9c0.4-1.4-0.3-2.9-1.7-3.3c0,0-0.1,0-0.1,0c-0.8-0.3-1.6-0.5-2.4-0.7l0.6-3.3h-2.1
	c-0.3,1.1-0.5,2.2-0.7,3.2h-1.6c0.2-1.1,0.4-2.2,0.6-3.2h-2.1c-0.3,1.1-0.5,2.2-0.8,3.4H8.4c-0.1,0.5-0.1,0.8-0.2,1.1
	S8,113.8,8,114.2h0.7c1.8,0.1,1.9,0.2,1.5,2c-0.4,2.1-0.9,4.2-1.3,6.3c-0.1,0.7-0.3,1.3-0.4,2c-0.1,0.3-0.3,0.6-0.6,0.7
	c-0.6,0.1-1.1,0.2-1.7,0.1c-0.1,0-0.2,0.1-0.3,0.1L5,127.9h4.2c-0.2,1.3-0.4,2.3-0.6,3.5h2.1l0.8-3.3h1.6l-0.6,3.3h2.1l0.8-3.4
	c1.1-0.1,2.2-0.3,3.3-0.6c0.8-0.2,1.6-0.7,2.2-1.2c1.3-1.1,2-2.7,2-4.4c0-0.9-0.5-1.8-1.3-2.3l-0.8-0.4
	C22.2,117.8,22.6,117.2,22.8,115.9z M17.3,124.5c-0.7,0.4-1.5,0.7-2.4,0.8c-1,0.1-2,0.2-3,0.2c0.3-1.6,0.6-3,1-4.7
	c0.9,0.1,1.8,0.1,2.6,0.2c0.7,0,1.4,0.1,2.1,0.4c0.8,0.7,0.9,1.9,0.2,2.7C17.7,124.2,17.5,124.3,17.3,124.5z M17.7,117.9
	c-1.3,0.8-2.7,0.7-4.3,0.8l0.9-4.2c1-0.1,2-0.1,3,0c0.7,0,1.3,0.5,1.5,1.2C18.9,116.6,18.5,117.5,17.7,117.9z"/>
<path class="st1" d="M169,116.2c-0.2,0-0.5,0.3-0.6,0.5c-0.1,0.2-0.2,0.4-0.2,0.6c-0.7-0.5-1.5-0.9-2.4-1.2c-1.3-0.3-2.6,0-3.7,0.7
	c-2.1,1.2-3.5,3.4-3.7,5.8c-0.2,2.1,0.5,4.7,2.8,5.3c0.6,0.1,1.2,0.1,1.8,0c0.8-0.2,1.6-0.6,2.3-1l0.3-0.2v0.4
	c-0.9,2.9-3,3.4-6.2,1.3l-2.6,2.2c0.6,1,1.5,1.6,2.6,1.9c1.7,0.3,3.4,0.3,5.1,0c1.2-0.3,2.4-1,3.3-1.9c0.9-0.9,1.6-2,2-3.3
	c0.2-0.8,0.4-1.7,0.6-2.5s0.4-1.9,0.6-2.8c0.4-2,0.8-4,1.3-6C171,116.2,170,116.1,169,116.2z M165.3,124.3c-0.7,0.5-1.7,0.4-2.2-0.4
	c-0.2-0.2-0.3-0.5-0.3-0.8c-0.2-1.1,0.2-2.3,1.1-3c0.4-0.6,1.2-0.8,1.9-0.5c0.6,0.3,1,1,0.9,1.7
	C166.6,122.6,166.5,123.7,165.3,124.3L165.3,124.3z"/>
<path class="st1" d="M91.8,124.1h-6.4c0.2-0.9,0.4-1.6,0.6-2.5h5.3c0.2-1.2,0.4-2.3,0.7-3.6h-5.2c0.2-0.8,0.3-1.4,0.4-2.1h6.2
	c0.3-1.3,0.5-2.5,0.8-3.8H83.6c-1.1,5.3-2.2,10.5-3.3,15.8H91C91.3,126.7,91.5,125.4,91.8,124.1z"/>
<path class="st1" d="M125,122c-0.4,1.9-0.8,3.9-1.2,5.9h4.2c0.4-1.7,0.7-3.4,1-5.1l0.5-2.5c0.1-0.4,0.2-0.8,0.2-1.2
	c0-0.4,0-0.8-0.1-1.2c-0.1-0.5-0.3-0.9-0.6-1.3c-0.4-0.3-0.8-0.5-1.3-0.6c-1.3-0.2-2.6,0.1-3.8,0.8c-0.3,0.2-0.5,0.3-1,0.6
	c0.4-2.1,0.8-3.9,1.2-5.8H120c-1.2,5.4-2.3,10.8-3.4,16.3h4.2c0.1-0.4,0.2-0.9,0.3-1.3c0.3-1.6,0.6-3.1,1-4.7c0.2-0.6,0.5-1.2,1-1.6
	c0.4-0.4,1-0.6,1.5-0.5c0.7,0.2,0.5,0.9,0.4,1.5C125,121.6,125,121.8,125,122z"/>
<path class="st1" d="M144.3,116.4h-4.2l-0.4,1.1c-1.3-1.6-3.6-2-5.4-0.9c-2.2,1.3-3.7,3.7-3.8,6.3c-0.2,2.3,1,4.8,3.4,5.3
	c1.3,0.2,2.6-0.1,3.7-0.9c0.3-0.3,0.7-0.5,1-0.8c0.4,1.7,1.1,2,4,1.5c0.1-0.7,0.3-1.3,0.4-2c0.1-0.5,0.4-1.2,0.2-1.4
	c-0.4-0.5-0.5-1.2-0.3-1.8c0.1-0.7,0.3-1.3,0.4-1.9C143.7,119.4,144,117.9,144.3,116.4z M137.9,124.1c-0.6,0.5-1.4,0.7-2.1,0.3
	c-0.7-0.4-0.9-1.1-0.8-2c0.1-1,0.6-2,1.5-2.5c0.5-0.4,1.1-0.4,1.7-0.2c0.5,0.3,0.8,0.8,0.9,1.3c0,0.6,0,1.1-0.2,1.7
	C138.6,123.2,138.3,123.7,137.9,124.1z"/>
<path class="st1" d="M192.4,115.1c1.7-1,3.8-0.4,4.8,1.3c0.1,0.1,0.2,0.3,0.2,0.5c0,0.1,0.1,0.1,0.2,0.1l2.4-1.5
	c-0.2-1.1-0.9-2-1.8-2.7c-1-0.6-2.1-0.9-3.3-0.8c-2.3,0-4.6,1-6.3,2.6c-1.7,1.6-2.8,3.7-3.1,6c-0.3,2.3,0.5,4.6,2.1,6.2
	c0.9,0.7,2,1.2,3.1,1.3c1.5,0,3-0.4,4.3-1.3c0.1,0,0.2,0,0.4,0v1.2h2.4c0.6-2.7,1.1-5.3,1.7-8.1h-5.6l-0.5,2.2h3.1
	c-0.3,0.6-0.4,1.2-0.7,1.4c-0.9,0.7-1.8,1.2-2.8,1.6c-0.9,0.3-1.8,0.2-2.6-0.2c-0.8-0.5-1.3-1.3-1.6-2.2c-0.5-1.9-0.1-3.9,1-5.5
	C190.6,116.3,191.4,115.6,192.4,115.1z"/>
<path class="st1" d="M154.4,116c-1.3,0.1-2.6,0.6-3.6,1.4l-0.1-1.2h-3.7c-0.8,3.9-1.6,7.8-2.5,11.7h4.3c0.3-1.6,0.7-3.1,1-4.7
	c0.1-0.7,0.3-1.4,0.5-2c0.3-0.5,0.7-0.9,1.2-1.3c0.9-0.6,1.6-0.2,1.6,0.9c0,0.5-0.1,1-0.2,1.4c-0.4,1.8-0.8,3.7-1.2,5.6h4.3
	c0.5-2.4,1.1-4.8,1.5-7.2c0.3-1.4,0.8-3.4-0.6-4.3C156,116,155.2,115.9,154.4,116z M150.5,117.4h0.1l-0.1,0.2L150.5,117.4z"/>
<path class="st1" d="M232.9,115c0.2-1.1,0.4-2.2,0.7-3.4h-3c-0.4,2.1-0.9,4.1-1.4,6.3c-0.9-1.3-2.4-1.9-4-1.8
	c-1.6,0.3-2.9,1.1-3.9,2.4c-1.8,2.2-2.6,5.8-0.8,8.2c0.9,1.3,2.5,1.8,4.1,1.4c1.1-0.4,2.2-0.8,3.2-1.4c0.5,1.5,1,1.7,3.1,1.2
	c0.1-1,0.8-1.9,0.1-3c-0.1-0.2,0-0.7,0.1-0.9l0.3-1.3c0.2-0.8,0.4-1.7,0.6-2.6L232.9,115z M226.6,125.1c-1.9,1.2-3.7,0.3-4-1.9
	c-0.1-1.4,0.5-2.8,1.6-3.7c0.9-1,2.4-1.1,3.5-0.3c0.6,0.5,0.9,1.2,0.8,2C228.3,122.6,228.2,124.1,226.6,125.1L226.6,125.1z"/>
<path class="st1" d="M182.6,122.4c1.3-0.6,2.1-2,1.9-3.5c-0.1-1.3-1.1-2.4-2.4-2.7c-2.7-0.8-5.6-0.1-7.7,1.9c-2,1.9-3.1,5.5-1.4,8
	c1,1.3,2.5,2.1,4.1,2.1c0.6,0,1.1,0,1.7-0.1c1.9-0.4,3.6-1.4,4.8-3c-1-0.3-1.9-0.7-2.8-0.9c-0.3,0-0.7,0.1-0.9,0.3
	c-0.7,0.3-1.5,1-2.3,0.7c-0.6-0.2-0.7-1-0.8-1.6C178.8,123.4,180.9,123.4,182.6,122.4z M179.2,119c0.5,0,1,0.1,1.1,0.7
	s-0.2,0.8-0.7,0.9c-0.7,0.1-1.4,0.2-2.2,0.3C177.8,119.6,178.4,119,179.2,119L179.2,119z"/>
<path class="st1" d="M110.4,120c0.6-0.5,1.5-0.5,2.1,0c0.2,0.2,0.6,0.3,0.9,0.3c0.4-0.1,0.8-0.2,1.3-0.3l2.6-0.8
	c-0.3-1.1-1-2-1.9-2.6c-1-0.5-2.1-0.7-3.2-0.6c-2.1,0-4.1,0.9-5.5,2.5c-1.5,1.6-2.1,3.8-1.8,6c0.5,2.1,2.2,3.6,4.4,3.7
	c1.3,0.1,2.6-0.1,3.7-0.6c1.2-0.6,2.3-1.5,3.1-2.6c-0.9-0.3-1.7-0.5-2.4-0.8c-0.4-0.2-0.8-0.3-1.2-0.3c-0.4,0-0.8,0.2-1.2,0.5
	c-0.5,0.4-1.2,0.3-1.6-0.3c0-0.1-0.1-0.1-0.1-0.2C108.9,122.5,109.3,120.9,110.4,120z"/>
<path class="st1" d="M56.2,116.1c-2.5,0-4.9,1.4-6.2,3.5c-1.3,2.1-1.6,5.2,0.1,7.1c1.7,1.9,4.8,1.9,7,0.7c2.3-1.2,3.8-3.5,3.9-6.1
	c0.1-1.3-0.3-2.7-1.2-3.7C58.9,116.5,57.6,116,56.2,116.1z M56,124.9c-0.7,0.7-1.8,0.9-2.7,0.5c-0.8-0.5-1.3-1.4-1.2-2.3
	c0-0.9,0.2-1.8,0.7-2.7c0.5-0.8,1.3-1.5,2.2-1.8c1-0.3,2,0.1,2.5,0.9c0.4,0.8,0.5,1.8,0.2,2.7C57.5,123.4,56.9,124.3,56,124.9z"/>
<path class="st1" d="M208.8,122.5c-0.1,0.8-0.5,1.5-1.1,2.1c-0.6,0.6-1.4,1-2.3,1.1c-0.8-0.1-1.4-0.8-1.4-1.6c0-0.1,0-0.1,0-0.2
	c0.2-1.1,0.4-2.2,0.7-3.3c0.3-1.4,0.6-2.8,0.9-4.3h-3c-0.3,1.6-0.7,3.2-1,4.8c-0.4,1.5-0.7,3.1-0.7,4.6c-0.1,1.3,0.8,2.4,2.1,2.5
	c0.1,0,0.2,0,0.3,0c1.5,0.1,3-0.4,4.2-1.3l0.8-0.6c0.1,1.6,0.6,2.2,3.1,1.6c0.1-0.7,0.1-1.3,0.2-1.9c0-0.3,0-0.6,0-0.9
	c-0.1-0.3-0.1-0.6-0.1-0.9c0.1-1.3,0.5-2.6,0.8-3.9l0.8-4h-3C209.6,118.4,209.1,120.4,208.8,122.5z"/>
<path class="st1" d="M77,116.1c-1.8-0.1-3.6,0.7-4.9,2l0.2-1.8h-2.6c-0.8,3.9-1.6,7.7-2.4,11.6h3l0.8-3.6c0.1-0.6,0.3-1.2,0.4-1.8
	c0.1-0.5,0.2-1,0.4-1.5c0.3-0.8,0.9-1.4,1.6-1.8c0.6-0.4,1.5-0.8,2.2-0.5c0.9,0.5,0.6,1.9,0.5,2.7c-0.4,2.1-0.9,4.2-1.3,6.4h3
	c0.5-2.3,1-4.5,1.4-6.7c0.2-1,0.3-1.9,0.3-2.9c0.1-1.2-0.8-2.2-1.9-2.3C77.3,116,77.1,116,77,116.1z"/>
<path class="st1" d="M238.3,123.1c1.5-0.1,3-0.3,4.4-0.7c1.6-0.4,2.5-1.9,2.3-3.5c-0.3-2.8-3.5-3.2-5.7-2.7c-2.3,0.5-4.2,2-5.2,4.2
	c-0.6,1.3-0.7,2.6-0.5,4c0.3,1.8,1.6,3.3,3.4,3.7c1.7,0.4,3.5,0,4.9-0.9c0.9-0.5,1.6-1.2,2.1-2.1l-2.2-0.7c-0.7,1.2-2.1,1.8-3.5,1.5
	c-0.6-0.1-1.1-0.5-1.3-1c-0.2-0.6-0.3-1.2-0.3-1.8C237.2,123.1,237.7,123.1,238.3,123.1z M239.6,118.3c0.5-0.1,1-0.1,1.6,0
	c0.5,0.1,0.9,0.5,0.9,1c0,0.6-0.1,1.1-0.7,1.3c-0.8,0.2-1.6,0.4-2.4,0.5c-0.7,0-1.3,0-2,0C237.5,119.7,238.3,118.7,239.6,118.3z"/>
<path class="st1" d="M45.8,119.9l2.8-0.8c-0.4-1.6-1.7-2.7-3.3-3c-3.7-0.6-7.2,1.7-8.2,5.3c-0.6,1.8-0.3,3.7,0.8,5.2
	c1.2,1.3,2.9,1.8,4.6,1.5c2-0.2,3.7-1.3,4.7-3c-0.7-0.3-1.4-0.5-2.1-0.7c-0.4,0-0.8,0.1-1.1,0.3c-0.4,0.2-0.7,0.5-1,0.7
	c-1,0.5-2.2,0-2.7-1c-0.1-0.2-0.1-0.4-0.2-0.6c-0.2-1,0-2.1,0.4-3C41.7,118.4,43.9,118,45.8,119.9z"/>
<path class="st1" d="M34.2,118.6h2.3c0.2-0.8,0.3-1.5,0.5-2.3l-2.3-0.1c0.3-1.3,0.5-2.5,0.7-3.7h-3c-0.3,1.3-0.6,2.5-0.9,3.7
	l-1.4,0.2l-0.4,2.1l1.3,0.3c-0.4,2.3-1,4.5-1.4,6.8c-0.2,0.7,0,1.3,0.4,1.9c0.5,0.5,1.1,0.7,1.8,0.7c1.2,0.1,2.4-0.2,3.5-0.8v-2.3
	l-0.8,0.2c-1.4,0.3-1.8,0-1.5-1.4C33.4,122.2,33.8,120.4,34.2,118.6z"/>
<path class="st1" d="M61.6,127.9h3c0.8-3.9,1.6-7.8,2.4-11.6h-3C63.2,120.2,62.4,124,61.6,127.9z"/>
<path class="st1" d="M213.5,127.9h3c0.8-3.9,1.6-7.7,2.5-11.6h-3C215.1,120.2,214.3,124,213.5,127.9z"/>
<path class="st1" d="M22.9,128h3c0.8-3.9,1.7-7.7,2.4-11.7h-3C24.5,120.2,23.7,124,22.9,128z"/>
<path class="st1" d="M132.1,129.1h-5.6l-9.6-0.1h-0.5l0.3,0.6l0.3,0.3l3.6,4.6l0.3,0.3l0,0l0.3,0.5c-0.2,0.3-0.4,0.7-0.7,1
	c-0.3,0.4-0.6,0.7-1,1l0,0l0,0c-0.2,0-0.4,0.1-0.6,0.2c-1.8,1.4-3.6,2.8-5.5,4.1l-3,2l-0.6,0.4l-0.4,0.3l-0.8,0.5l0,0l-0.3,0.2l0,0
	l-0.5,0.3l0,0l-1.4,0.8l-0.7,0.3l-0.8,0.5c-0.1,0-0.2,0-0.2,0.1l-0.3,0.2l0,0l-0.4,0.2l-0.9,0.4l-0.5,0.2l-3,1.1l-0.3,0.2l0,0
	l-1.9,0.6l0,0l-1,0.3l0,0c-1.6,0.3-3.2,0.4-4.8,0.1c-1.4-0.3-2.7-1.2-3.4-2.5l0,0l-0.2-0.5c0-1.5-0.1-2.9-0.1-4.4
	c0.5-1.4,0.9-2.7,1.4-4.1s1.1-2.4,1.7-3.6c1.2-2.3,2.7-4.5,4.2-6.6c0.9-1.2,1.8-2.4,2.8-3.6c0,0.1,0.1,0.1,0.2,0.1l0.3,0.6
	c0.2,0.6,0.4,1.3,0.7,1.8c0.1,0.2,0.4,0.4,0.6,0.4c1.2,0,2.4,0,3.9,0c-1-2.3-1.9-4.4-2.8-6.5c3.3-3.7,6.8-7.2,10.6-10.5
	c3.6-3.2,7.5-6.1,11.6-8.8c2.3-1.5,4.6-2.8,7.1-4c2.1-1.1,4.3-1.9,6.6-2.4c1.9-0.5,3.9-0.6,5.8-0.2c1,0.3,1.9,1,2.6,1.8
	c0.8,1.9,0.9,4.1,0.3,6.1c-0.5,2-1.3,4-2.2,5.8c-0.5,1-1.1,2.1-1.7,3.1l-0.2,0.3l0,0l-0.2,0.3c0,0.1-0.1,0.1-0.1,0.2l0,0l-0.4,0.5
	l0.4,0.1h7.9l0.1-0.1c0.6-0.1,0.6-0.6,0.8-1.1l0,0c0.9-2.1,1.8-4.1,2.6-6.2c0.7-2.1,1.1-4.3,1.1-6.5c0.1-1.6-0.2-3.2-1-4.6
	c-0.8-1.3-1.9-2.3-3.3-2.9c-1-0.4-2-0.6-3-0.7c-1.3-0.1-2.6-0.1-3.9,0c-3.4,0.4-6.7,1.4-9.8,2.8c-3,1.3-5.9,2.8-8.7,4.5
	c-5.5,3.4-10.7,7.3-15.5,11.6c-1.4,1.3-2.8,2.6-4.2,3.8s-3,2.8-4.5,4.1l-1.3-2.7h-4.2c0.1,0.4,0.2,0.8,0.4,1.1
	c0.4,1,0.9,1.9,1.3,2.9l0.6,1.4c0.2,0.5,0.3,0.9,0.4,1.4l-5.6,7.5c-2.5,3.6-4.6,7.5-6.1,11.7c-0.8,2.1-1.3,4.4-1.5,6.6
	c-0.2,1.9,0.2,3.9,1,5.6c0.9,1.6,2.4,2.8,4.1,3.3c1.1,0.3,2.2,0.5,3.3,0.5c3.6,0,7.2-0.7,10.6-2.2l1.1-0.5l0.5-0.2l0.7-0.3l1-0.4
	l0.7-0.4l0.4-0.1l0.7-0.4c0,0,0.1,0,0.1,0l0.4-0.2l0.4-0.1l1-0.5l0,0l0.3-0.3l0.3-0.2l0.6-0.3l-0.3-0.4l0.3,0.4l0.5-0.3l0,0l0.4-0.2
	l0.7-0.4l1.3-0.8l0.6-0.3l0.3-0.2l0.3-0.2l0,0l0.5-0.3l0.3-0.2l0,0l6.1-4.3l0.3-0.2l4.1-3l4.7,5.9c0.7-1.8,1.3-3.3,1.9-4.8
	s1.2-2.9,1.8-4.3l1.3-3.1l2.6-5.9l-0.2-0.3L132.1,129.1z M102.5,155.5l0.5-0.3l0,0L102.5,155.5z M116.2,140.5l-0.1-0.1l0,0
	L116.2,140.5z M111.3,143.8L111.3,143.8c0.3,0,0.6,0,0.8,0C111.9,143.8,111.6,143.8,111.3,143.8L111.3,143.8z"/>
<path class="st1" d="M216.9,111.6l-0.6,3h3c0.2-1,0.4-1.9,0.6-3H216.9z"/>
<path class="st1" d="M68,111.7h-3c-0.2,1-0.4,1.9-0.6,2.9h3.1C67.6,113.6,67.8,112.7,68,111.7z"/>
<path class="st1" d="M25.7,114.6h3c0.2-1,0.4-1.9,0.6-3h-3C26.1,112.6,25.9,113.5,25.7,114.6z"/>
</svg>
