<?xml version="1.0" encoding="utf-8"?>
<!-- Generator: Adobe Illustrator 22.0.1, SVG Export Plug-In . SVG Version: 6.00 Build 0)  -->
<svg version="1.1" id="Layer_1" xmlns="http://www.w3.org/2000/svg" xmlns:xlink="http://www.w3.org/1999/xlink" x="0px" y="0px"
	 viewBox="0 0 250 250" style="enable-background:new 0 0 250 250;" xml:space="preserve">
<style type="text/css">
	.st0{fill:none;}
	.st1{fill:#6400FA;}
</style>
<title>Bitcoininst</title>
<rect class="st0" width="250" height="250"/>
<path class="st1" d="M5,135.3v-24.2h27.9v27.9H8.6c-0.5-0.5-0.9-1-1.4-1.4C6.5,136.8,5.7,136,5,135.3z M25.2,125.6L25.2,125.6
	c0.9-0.2,1.6-0.8,1.9-1.6c0.2-0.4,0.3-0.8,0.4-1.2c0.2-1.2-0.2-2.3-1.1-3.1c-0.5-0.4-1-0.8-1.6-1l-1.1-0.5l0.8-3.2l-2-0.5
	c-0.3,1-0.5,2.1-0.8,3.1l-1.5-0.3l0.8-3.1c-0.6-0.2-1.3-0.3-2-0.5l-0.8,3.2l-3.9-1l-0.5,2.2l0.7,0.2l0.7,0.2
	c0.5,0.1,0.9,0.6,0.8,1.1c0,0.1,0,0.1-0.1,0.2c0,0.2-0.1,0.3-0.1,0.5c-0.2,0.8-0.4,1.6-0.6,2.5c-0.3,1-0.5,2-0.8,3.1
	c-0.2,0.8-0.4,1.6-0.6,2.4c-0.1,0.3-0.2,0.5-0.5,0.7c-0.7,0.1-1.3-0.3-1.9-0.3l-1,2.2c0.7,0.2,1.3,0.3,2,0.5
	c0.7,0.1,1.3,0.3,1.9,0.5c-0.2,1.1-0.6,2.1-0.8,3.2l1.9,0.5l0.8-3.2l1.2,0.3l0.2,0.3v0.5c-0.1,0.4-0.2,0.7-0.3,1.1l-0.3,1.4
	c0.7,0.2,1.3,0.4,1.9,0.5c0.3-1.1,0.5-2.2,0.9-3.2l0.4,0.1c0.9,0.2,1.9,0.2,2.8,0.2c1.1,0,2.1-0.5,2.8-1.3l0.1-0.1l0.2-0.3l0.1-0.1
	l0.4-0.7c0,0,0.1,0,0.1,0c0.1-0.2,0.2-0.4,0.4-0.6l-0.1-0.5c0-0.2,0-0.5,0-0.7c0-0.3,0-0.7-0.1-1c-0.2-0.6-0.6-1.2-1.1-1.6l-0.1-0.1
	l-0.5-0.3L25.2,125.6L25.2,125.6z"/>
<path class="st1" d="M26.8,130.6l0.3-1.1l0.1,0.5c-0.1,0.2-0.2,0.4-0.4,0.6C26.9,130.6,26.8,130.6,26.8,130.6z"/>
<path class="st1" d="M17.6,132.5h0.3c0,0.3,0,0.5-0.1,0.7v-0.5L17.6,132.5z"/>
<path class="st1" d="M25.2,125.7h-0.2H25.2L25.2,125.7z"/>
<path class="st1" d="M25.9,126.1l-0.1-0.1L25.9,126.1z"/>
<path class="st1" d="M26.3,131.4l0.1-0.1L26.3,131.4z"/>
<path class="st1" d="M26,131.9l0.1-0.1L26,131.9z"/>
<path class="st1" d="M25.2,125.6L25.2,125.6L25.2,125.6z"/>
<path class="st1" d="M22.5,127.2c0.8,0.7,0.8,1.8,0.2,2.6c-0.1,0.1-0.2,0.2-0.3,0.2c-0.4,0.2-0.8,0.4-1.3,0.4
	c-0.8,0.1-1.6,0-2.4-0.2c-0.4-0.1-0.9-0.2-1.3-0.3l-0.4-0.1l1.1-4.3c0.3,0.1,0.6,0.1,0.8,0.2c0.9,0.2,1.8,0.5,2.6,0.9
	C21.8,126.7,22.1,126.9,22.5,127.2L22.5,127.2z"/>
<path class="st1" d="M22.9,123.7c-0.4,0.2-0.9,0.3-1.4,0.3c-0.7,0-1.3-0.1-2-0.3c-0.3-0.1-0.6-0.2-0.9-0.3l1-3.9l1.3,0.3
	c0.7,0.2,1.4,0.5,2.1,0.9c0.6,0.4,0.9,1,0.8,1.7c0,0.5-0.3,0.9-0.7,1.2L22.9,123.7z"/>
<path class="st1" d="M22.9,123.7l0.1-0.1L22.9,123.7z"/>
<path class="st1" d="M22.5,127.2L22.5,127.2L22.5,127.2z"/>
<path class="st1" d="M220.7,111.3c-0.1,1-0.1,1.9-0.1,3c-2.7-2-5.9-3.2-9.2-3.5c-3-0.4-6.1,0.1-8.8,1.6c-2.7,1.5-4.4,4.4-4.2,7.5
	c0.1,3.3,1.9,5.5,4.8,6.8c0.6,0.3,1.2,0.5,1.8,0.7c1.7,0.5,3.5,0.9,5.2,1.4c0.9,0.2,1.8,0.6,2.6,1c0.8,0.4,1.1,1.3,0.7,2
	c-0.2,0.3-0.5,0.6-0.8,0.7c-0.5,0.3-1.1,0.4-1.7,0.4c-2.7,0.2-5.4-0.5-7.6-1.9c-0.7-0.4-1.3-0.9-2.1-1.3l-3.8,4.7
	c-0.8-0.3-0.4-1-0.4-1.5c0-6.6,0-13.2,0-19.9v-1.8h-7.8v27.7h7.8c0-1.1,0-2.1,0-3c0.1-0.3,0.2-0.6,0.4-0.8c0.4,0.4,0.7,0.7,1.1,1
	c3,2.1,6.6,3.3,10.3,3.4c2.8,0.3,5.7-0.3,8.2-1.6c2.7-1.5,4.4-4.4,4.3-7.5c0.1-3.1-1.8-5.8-4.7-6.8c-1.8-0.7-3.6-1.2-5.4-1.8
	c-1.3-0.4-2.7-0.8-4-1.2c-0.7-0.2-1.1-0.9-1.1-1.6c0.1-0.7,0.6-1.3,1.3-1.5c0.4-0.1,0.9-0.2,1.4-0.2c2.4,0,4.7,0.7,6.8,2l1.2,0.7
	l3.6-5.1l0.1,3.3h8.4v20.8h7.7v-21h8.3v-6.6H220.7z"/>
<path class="st1" d="M179.5,125.5c-0.5-0.6-0.7-0.8-0.9-1c-3-3.9-6.1-7.8-9.1-11.7c-0.7-1.2-2-1.8-3.3-1.6c-1.7,0.2-3.4,0-5.1,0
	v27.6h7.6v-14.5l0.3-0.1c0.3,0.3,0.5,0.6,0.8,0.9c3,3.8,6.1,7.5,8.9,11.4c1.3,1.9,2.8,2.7,5,2.4c1.2-0.2,2.4,0.2,3.6-0.2v-27.4h-7.7
	L179.5,125.5z"/>
<path class="st1" d="M58,125.7l-2.4-1.3c0.3-0.2,0.5-0.3,0.7-0.4c2.3-1.2,3.6-3.7,3.3-6.2c-0.1-2.5-1.8-4.7-4.1-5.6
	c-1.5-0.6-3.1-0.9-4.8-0.9H37c-0.3,0-0.6,0.1-0.9,0.1v27.5c5.7,0,11.3,0.1,17,0c1.9-0.1,3.8-0.8,5.3-2
	C61.5,134.6,62.1,127.9,58,125.7z M43.5,117.2c1.9,0,3.6,0,5.2,0c0.7,0.1,1.5,0.2,2.2,0.5c0.8,0.3,1.3,1.2,1.2,2
	c0,0.9-0.5,1.7-1.3,2c-0.4,0.2-0.8,0.3-1.2,0.3c-1.9,0-3.9,0-6,0C43.4,120.5,43.4,118.8,43.5,117.2L43.5,117.2z M51.8,132.2
	c-0.5,0.3-1.1,0.4-1.7,0.5c-2.2,0.1-4.4,0-6.7,0v-5.1c2.4,0,4.6-0.1,6.9,0c1.4-0.1,2.6,0.9,2.8,2.3c0,0,0,0.1,0,0.1
	C53.3,131,52.8,131.9,51.8,132.2L51.8,132.2z"/>
<path class="st1" d="M144.7,114c-3.7-3.1-8.7-4.2-13.4-3c-7.8,1.6-12.7,9.2-11.1,17c0.4,1.9,1.2,3.7,2.3,5.3
	c3.2,4.5,7.8,6.4,13.3,6.2c8.1-0.3,14.4-6.9,14.1-13.5C149.8,120.5,148.2,116.8,144.7,114z M142,125.6c0,2.9-1.9,5.6-4.7,6.5
	c-3.8,1.3-7.8-0.7-9.1-4.5c-0.2-0.4-0.3-0.9-0.3-1.4c-0.6-4,1.6-7.6,5.2-8.5c0.6-0.2,1.1-0.2,1.7-0.3c4,0,7.3,3.3,7.3,7.4
	C142,125.1,142,125.3,142,125.6z"/>
<path class="st1" d="M114.7,129.2c-0.8,0.7-1.4,1.4-2.1,1.9c-2.8,2.3-7,1.8-9.2-1.1c-0.3-0.4-0.6-0.8-0.8-1.2
	c-0.8-1.6-1-3.5-0.7-5.2c0.3-2.5,1.9-4.6,4.3-5.5c2.4-1,5.2-0.4,7.1,1.5c0.4,0.4,0.8,0.9,1.1,1.4l5.8-4.5c-2.9-4.9-9.6-7-15.6-5.4
	c-7.8,2-12.4,10-10.4,17.7c1.2,4.6,4.6,8.3,9,9.9c5.8,2,13.3,0.5,17.2-5.5l-2.9-2.1L114.7,129.2z"/>
<path class="st1" d="M94.2,111.2H70.1v6.7h8.3v20.9H86v-21h8.2L94.2,111.2z"/>
<path class="st1" d="M61.6,111.2v27.6h7.7v-27.6C66.7,111.2,64.2,111.1,61.6,111.2z"/>
<path class="st1" d="M151.2,138.8h7.6v-27.5h-7.6V138.8z"/>
</svg>
