<?xml version="1.0" encoding="utf-8"?>
<!-- Generator: Adobe Illustrator 22.0.1, SVG Export Plug-In . SVG Version: 6.00 Build 0)  -->
<svg version="1.1" id="Layer_1" xmlns="http://www.w3.org/2000/svg" xmlns:xlink="http://www.w3.org/1999/xlink" x="0px" y="0px"
	 viewBox="0 0 250 250" style="enable-background:new 0 0 250 250;" xml:space="preserve">
<style type="text/css">
	.st0{fill:none;}
	.st1{fill:#6400FA;}
</style>
<title>CCN</title>
<rect class="st0" width="250" height="250"/>
<path class="st1" d="M245,133.8c0,5.1,0,10.1,0,15.2c0,2,0,2.1-2,2.1c-2.4,0-4.7,0-7,0c-2,0-2,0-2-2.1c0-8.2,0-16.5,0-24.8v-2.7
	c0-6.2-3.4-10.2-9.5-10.9c-2.6-0.3-5.3-0.3-7.9,0c-6.1,0.7-9.4,4.6-9.4,10.7c0,8.8,0,17.5,0,26.3c0,3.7,0,3.2-3.2,3.2
	c-2,0-4.1,0-6.1,0c-1.8,0-1.9-0.1-1.9-2c0-2.2,0-4.4,0-6.6c0-7.3,0.1-14.7,0-22c-0.2-12,10.1-20.8,20.2-21c4.2-0.1,8.6-0.3,12.6,0.6
	c8.6,2,14.1,7.6,16,16.4c0.2,1,0.3,2.1,0.3,3.2C245,124.3,245,129,245,133.8z"/>
<path class="st1" d="M60.6,125c0-11-6.9-20.7-17.2-24.4c-2.1-0.7-2.6-2.3-1.4-4.1c0.3-0.3,0.7-0.6,1.1-0.6c1.9-0.1,3.8-0.2,5.6-0.2
	c1.4,0.1,2.9,0.2,4.3,0.1c5-0.6,10.1,0.2,14.6,2.4c9.8,4.6,15.4,12.4,16.9,23.1c1.4,8.8-1.5,17.7-7.7,24
	c-6.1,6.8-15.2,10.1-24.2,8.9c-1-0.1-2-0.1-2.9,0.1c-3.1,0.5-6.2,0.3-9.2-0.6c-3.6-1.2-5.8-4.8-5.1-8.6c0.6-3.5,1.4-7,2.1-10.4
	c0.1-0.4,0.2-0.9,0.3-1.3c0.1-0.8-0.3-0.9-1-0.6c-0.9,0.6-1.8,1.1-2.7,1.8c-0.5,0.5-1.2,0.4-1.7,0c-0.1-0.1-0.1-0.2-0.2-0.3
	c-2-2.6-2.1-2.8,0.7-4.6c1.7-1.1,3.4-2.3,5.1-3.4c2.9-1.9,4.9-1.4,6.9,1.5c1.3,2,2.6,4.1,3.9,6.1c1,1.6,1,1.6-0.6,2.7
	c-2.8,1.9-2.1,1.7-3.8-0.8c-0.5-0.7-1.1-1.3-1.7-1.9c-0.3,0.8-0.6,1.6-0.9,2.5c-0.6,2.8-1.1,5.6-1.7,8.4c-0.5,1.5,0,3.1,1.2,4.1
	c1.3,1,2.7,0.8,4,0.1C55.3,144,60.2,135.9,60.6,125z M71,127c0.1-8.3-2-13.9-6-18.7c-2.6-3.2-6.1-5.5-10-6.9c-0.3,0-0.7,0-1,0.1
	c0.2,0.2,0.3,0.5,0.5,0.7c1.3,1.4,2.7,2.7,3.9,4.1c3.6,4.3,5.8,9.5,6.4,15c1.2,9.2-1.9,18.4-8.4,24.9c-0.4,0.4-0.7,0.8-1.1,1.2
	c-0.1,0.1-0.1,0.3-0.1,0.4c0.1,0.1,0.3,0.1,0.4,0.1c0.5-0.2,1-0.4,1.5-0.6C66.1,142.6,70.5,135,71,127z M80.6,126.6
	c0-8.4-2.4-14.1-6.8-19.1c-2.3-2.5-5-4.4-8.1-5.7c-0.2-0.1-0.5,0.1-0.8,0.1c0.1,0.2,0.2,0.4,0.3,0.6c0.3,0.4,0.8,0.8,1.1,1.1
	c11.7,11.5,11.9,30.4,0.4,42.2c-0.3,0.3-0.5,0.5-0.8,0.8c-0.3,0.3-0.6,0.5-0.8,0.8c-0.1,0.1-0.1,0.3-0.1,0.4
	c0.1,0.1,0.2,0.1,0.4,0.1c0.5-0.2,1-0.4,1.4-0.6C75.8,142.5,80.1,134.9,80.6,126.6L80.6,126.6z"/>
<path class="st1" d="M175.1,101.1c3.9,0,7.9,0,11.8,0c2,0,2.1,0,2.1,2c0,2.4,0,4.8,0,7.3c0,1.8-0.1,1.9-2,1.9c-7,0-13.9,0-20.9,0
	c-4.5-0.2-8.5,2.6-9.9,6.9c-0.2,0.4-0.3,0.9-0.4,1.3c0,3.6-0.4,7.3,0.1,10.8c0.7,5.2,4.8,8.3,10,8.4c6.7,0,13.5,0,20.2,0
	c2.8,0,2.8,0,2.8,2.9c0,2.1,0,4.2,0,6.4c0,2-0.1,2.1-2.1,2.1c-5.8,0-11.5,0-17.3,0h-4.1c-9.1-0.1-15.3-4.6-19.1-12.6
	c-1.4-2.8-2.1-5.9-2-9c0.1-3.8-0.2-7.7,0.6-11.3c1.8-8.6,7-14.4,15.7-16.7c1.3-0.3,2.5-0.4,3.8-0.3
	C168.1,101.1,171.6,101.1,175.1,101.1z"/>
<path class="st1" d="M126.3,151c-4.2,0-8.5,0.1-12.7,0c-4.4-0.2-8.1-2.2-11.3-5.2c-4.5-4.1-7-9.9-7.1-16c-0.2-4.2-0.4-8.4,0.7-12.4
	c2.2-8,7.1-13.6,15.4-15.8c1.3-0.3,2.5-0.4,3.8-0.4c7.4,0,14.8,0,22.3,0c2.2,0,2.3,0,2.3,2.3s0,4.4,0,6.6s0,2.3-2.4,2.3h-18.9
	c-8.1,0-12,3.9-12,12c0,1.8,0,3.5,0,5.2c-0.1,5.6,4.5,10.2,10.1,10.3c0.1,0,0.2,0,0.4,0c6.6,0,13.2,0,19.8,0c0.5,0,1.1,0,1.6,0
	c1.1-0.1,1.5,0.4,1.5,1.5c0,2.7-0.1,5.4,0,8.2c0,1.3-0.5,1.7-1.7,1.7c-3.9,0-7.7,0-11.6,0L126.3,151z"/>
<path class="st1" d="M5,124.4c0.6-10.4,5.4-19.1,14.8-25c1.4-0.9,2.9-1.6,4.4-2.3c2.6-1.3,5.7-0.8,7.8,1.1c2.3,1.8,3.3,4.9,2.6,7.7
	c-0.7,3.5-1.4,7-2,10.5c0,0.5,0,1,0.1,1.4c0.4-0.1,0.8-0.3,1.2-0.5c0.5-0.3,0.9-0.6,1.3-0.8c0.7-0.3,1.9-1,2.1-0.8
	c0.8,0.9,1.5,1.9,2,3c0.1,0.2-0.4,0.8-0.7,1c-2.4,1.6-4.7,3.3-7.2,4.8c-1.7,1.2-4.1,0.8-5.4-0.9c-0.1-0.1-0.1-0.2-0.2-0.3
	c-1.7-2.4-3.2-5-4.8-7.4c-0.5-0.8-0.3-1.2,0.4-1.7c2.5-2,2.7-2,4.4,0.7c0.4,0.7,1,1.3,1.5,1.9c0.4-0.8,0.7-1.6,0.9-2.4
	c0.7-3,1.3-6.1,2-9.1c0.5-1.4,0-3-1.2-3.9c-1.2-0.9-2.8-1.1-4.1-0.3c-8.5,4-13.5,10.7-15.1,20c-1.9,12.5,5.4,24.5,17.3,28.6
	c0.6,0.2,1.6,0.8,1.7,1.2c0,1.1-0.3,2.2-0.7,3.3c-0.1,0.2-1,0.2-1.4,0.1c-3.5-1-6.8-2.7-9.6-5C9.4,143.1,5.3,135,5,124.4z"/>
</svg>
