<?xml version="1.0" encoding="utf-8"?>
<!-- Generator: Adobe Illustrator 22.0.1, SVG Export Plug-In . SVG Version: 6.00 Build 0)  -->
<svg version="1.1" id="Layer_1" xmlns="http://www.w3.org/2000/svg" xmlns:xlink="http://www.w3.org/1999/xlink" x="0px" y="0px"
	 viewBox="0 0 250 250" style="enable-background:new 0 0 250 250;" xml:space="preserve">
<style type="text/css">
	.st0{fill:none;}
	.st1{fill:#6400FA;}
</style>
<title>Coin Announcer</title>
<rect class="st0" width="250" height="250"/>
<path class="st1" d="M41.6,88.6C21.7,88.3,5,105.1,5,125.1c0.2,20,16.4,36.2,36.4,36.4c20.2-0.4,36.3-15.8,36.4-36.3
	S61.9,89,41.6,88.6z M56.2,108.6c2.5,0.2,4.3,2.5,4.1,4.9s-2.5,4.3-4.9,4.1l0,0c-2.5-0.3-4.3-2.5-4.1-5
	C51.4,110.1,53.7,108.3,56.2,108.6C56.2,108.6,56.2,108.6,56.2,108.6L56.2,108.6z M58.4,140.7c-5.2,4.9-12.5,6.8-19.5,5
	c-11.4-2.8-18.4-14.3-15.6-25.8s14.3-18.4,25.8-15.6c0.9,0.2,1.9,0.5,2.8,0.9c0.4,0.2,0.9,0.4,1.3,0.6c1.2,0.6,1.4,1.2,0,1.9
	c-1.8,0.8-3,2.5-3.3,4.4c-0.2,1.7-1,1.8-2.3,1.3c-2.7-0.9-5.6-0.7-8.1,0.4c-6.3,2.6-9.3,10.5-6.3,16.3c3.6,6.9,11.1,9.1,17.4,5.2
	c0.8-0.5,1.5-1.2,2.3-1.7c2.4-1.5,4.9-1.3,6.4,0.7C60.8,136.3,60.4,139.1,58.4,140.7C58.4,140.7,58.4,140.7,58.4,140.7L58.4,140.7z"
	/>
<path class="st1" d="M163,88.7c-12.9-0.1-22.6,9.5-22.5,22.4s9.2,22.2,22.3,22.3s22.4-9,22.5-22S176,88.8,163,88.7z M162.8,124.4
	c-7.6-0.1-13-5.6-13-13.4s5.6-13.3,13.1-13.3s13,5.7,13,13.5S170.4,124.5,162.8,124.4L162.8,124.4z"/>
<path class="st1" d="M245,95.1c0-6.3,1.1-5.5-5.6-5.6c-2.9,0-3,0.2-3,3.1c0,6,0,12,0,18.1c-0.1,0.7-0.3,1.4-0.5,2.1
	c-0.6-0.4-1.2-0.9-1.7-1.3c-0.2-0.2-0.4-0.4-0.6-0.7c-6-7-12-13.9-18-20.9c-0.8-0.9-1.7-1.9-2.8-1.2c-0.6,0.3-0.7,1.6-0.8,2.5
	c-0.1,6.4,0,12.8,0,19.2c0,5.6,0,11.1,0,16.6c0,6.3-0.9,5.7,5.9,5.7c2.7,0,2.9-0.2,2.9-3c0-5.4,0-10.9,0-16.3c0.1-1,0.2-2,0.4-3
	c0.9,0.6,1.7,1.3,2.5,2.1c5.8,6.4,11.5,12.8,17.3,19.2c1,0.8,2.1,1.5,3.2,2c0.3-1.2,0.6-2.4,0.9-3.6c0-0.3,0-0.6,0-0.9
	C245,117.9,245,106.5,245,95.1z"/>
<path class="st1" d="M134,124.1c-0.2-1.2-0.8-1.5-2-1.2c-1.7,0.5-3.5,0.9-5.3,1.1c-3.6,0.5-7.3-0.7-10-3.2
	c-4.2-3.9-5.3-11.2-2.6-16.4s8-7.5,14.3-6.4c1.5,0.3,3.8,1,4.3,0.4c0.9-1,0.7-3,0.9-4.7c0-0.4,0-0.8,0.1-1.1
	c0.2-1.5-0.4-2.3-1.9-2.7c-7.6-2.2-14.6-1-20.8,4c-7,5.6-9.5,16-6.3,25.1c3,8.6,10.6,13.7,21.1,13.9c1.5-0.1,3-0.2,4.4-0.5
	c5.6-1.3,4.5-1.3,4.1-5.5C134.3,125.9,134.2,125,134,124.1z"/>
<path class="st1" d="M196.5,89.5c-3,0-3,0-3,3.1c0,11.6,0,23.1,0,34.6c0,6.2-0.8,5.6,5.7,5.6c2.7,0,2.9-0.2,2.9-3
	c0-6.2,0-12.4,0-18.6c0-5.4,0-10.9,0-16.3C202,88.8,202.6,89.6,196.5,89.5z"/>
<path class="st1" d="M113.2,152.4c-0.6-2.1-2.6-3.5-4.8-3.4c-2.3,0-4.3,1.3-4.7,3.5c-0.3,2.5-0.4,4.9-0.4,7.4
	c0.1,0.6,0.6,1.1,1.1,1.3c0.4,0.1,1-0.5,1.4-0.9s0.7-1.4,1.3-1.7c1.5-0.7,2.9,0.1,3.9,1.6c0.3,0.5,0.9,0.7,1.4,1.1
	c0.3-0.5,0.9-0.9,1-1.5c0.1-0.9,0.1-1.9,0-2.9h0.2C113.6,155.5,113.5,154,113.2,152.4z M108.5,156.2c-1.2,0-2.4,0-2.4-1.7
	s1-3,2.4-2.9s2.3,1.4,2.4,3S109.6,156.1,108.5,156.2z"/>
<path class="st1" d="M240.9,149.6c-1.5-0.2-3-0.3-4.6-0.2c-0.9-0.1-1.7,0.5-1.8,1.4c0,0.1,0,0.3,0,0.4c0,1.4,0,2.9,0,4.3l0,0
	c0,1.5-0.1,3.1,0.1,4.6c0,0.5,0.7,0.9,1.1,1.3c0.5-0.4,0.9-0.8,1.2-1.3c0.2-0.3,0.1-0.8,0.1-1.1c0.4-1.6,1.3-1.8,2.4-0.7
	c0.8,0.8,1.3,2,2.1,2.7c0.6,0.4,1.6,0.3,2.4,0.4c0-0.7-0.2-1.3-0.5-1.9c-1.1-1.4-1.2-2.4-0.1-4C245.2,152.9,243.8,150.1,240.9,149.6
	z M241.2,153.3c-0.1,0.8-1.3,1.4-2.4,2.6c-0.8-1.2-1.5-1.8-1.6-2.6c-0.3-1.4,0.6-1.8,1.9-1.7C240.2,151.7,241.4,152.1,241.2,153.3
	L241.2,153.3z"/>
<path class="st1" d="M193.7,149.1c-5.6,0.1-5.6,0.1-5.6,5.8v0.3l0,0c0,1.3,0,2.7,0,4c0,0.9-0.1,2.1,1.3,2.1s1.4-1,1.4-2
	c-0.1-1.8,0-3.6,0.2-5.4c0.4-1,1.2-1.8,2.2-2.2c1.4-0.4,2,0.8,2.2,2c0.1,0.9,0.2,1.9,0.3,2.8c0,1.2,0.1,2.5,0.2,3.7
	c0.1,0.4,0.9,0.9,1.4,1c0.3,0,1-0.7,1-1c0.1-2.7-0.1-5.3-0.4-8C197.4,150.3,195.6,149,193.7,149.1z"/>
<path class="st1" d="M159.2,149.1c-3.4,0-6.2,2.7-6.2,6.1c0,0,0,0,0,0c0,3.5,2.8,6.2,6.3,6.2c0.1,0,0.1,0,0.2,0
	c3.3,0,5.9-2.7,5.9-5.9c0-0.1,0-0.1,0-0.2C165.4,152,162.7,149.2,159.2,149.1C159.3,149.1,159.3,149.1,159.2,149.1z M158.9,159.1
	c-2-0.3-3.4-2.1-3.3-4.1c0.1-2,1.7-3.5,3.6-3.4c0.1,0,0.1,0,0.2,0c2,0.2,3.5,2,3.3,4c0,0,0,0,0,0C162.5,157.6,160.9,159,158.9,159.1
	L158.9,159.1z"/>
<path class="st1" d="M142.5,149.1c-1.7,0.1-4-0.3-4.8,0.7c-0.9,1.1-0.6,3.4-0.8,5.1c0,0.1,0,0.2,0,0.3l0,0c-0.1,1.5,0,3,0.1,4.6
	c0.1,0.6,0.8,1.1,1.2,1.6c0.4-0.5,1.2-1,1.2-1.5c0.2-1.6,0.1-3.2,0.1-4.9s0.5-3.1,2.4-3.3c1.4-0.2,2.3,1,2.5,3.2
	c0.1,1.7,0,3.4,0.1,5.1c0,0.5,0.7,0.9,1.1,1.4c0.5-0.4,1.4-0.9,1.4-1.4c0.1-2.5,0-4.9-0.2-7.4C146.4,150.5,144.6,149.1,142.5,149.1z
	"/>
<path class="st1" d="M181.3,151.4c-0.1-0.7-0.7-1.8-1.1-1.9c-1.4-0.2-1.3,1.1-1.3,2c-0.1,0.8,0,1.5,0,2.3c0.1,1.1-0.1,2.3-0.4,3.4
	c-0.5,0.9-1.4,1.4-2.4,1.6c-0.6,0-1.5-1-1.8-1.8c-0.3-1-0.4-2-0.4-3.1c0-1,0-2.1-0.1-3.1c-0.1-0.5-0.8-0.9-1.1-1.4
	c-0.5,0.5-1.3,0.9-1.4,1.4c-0.1,2.3,0,4.6,0.3,6.8c0.2,2,1.9,3.5,3.9,3.7c1.6,0.1,3.2,0.1,4.8-0.1c0.5-0.1,1.1-1,1.2-1.5
	c0.1-1.4,0.1-2.9,0.1-4.3l0,0C181.5,154.1,181.4,152.8,181.3,151.4z"/>
<path class="st1" d="M125.4,149.1c-5.3,0.4-5.3,0.4-5.3,5.8v0.3l0,0c-0.1,1.4-0.1,2.9,0.1,4.3c0.1,0.6,0.8,1.2,1.3,1.8
	c0.5-0.6,0.9-1.2,1.2-1.9c0.1-0.8,0.1-1.5,0.1-2.3c-0.1-1.1,0-2.3,0.3-3.4c0.5-1,1.3-1.7,2.3-2c0.6-0.1,1.6,1,2,1.9
	c0.3,0.9,0.4,1.8,0.4,2.8c0,1.1,0,2.3,0.1,3.4c0.1,0.6,0.8,1,1.3,1.5c0.4-0.4,1.1-0.9,1.1-1.3c0.1-2.4,0.1-4.8-0.1-7.1
	C129.7,150.6,127.7,149,125.4,149.1z"/>
<path class="st1" d="M225.4,158.9c-0.7-0.3-1.4-0.7-2.1-1.1c0.5-0.5,1.1-1,1.7-1.5c0.5-0.3,1.2-0.1,1.7-0.3c0.4-0.2,0.7-0.6,0.8-1
	c0-0.3-0.4-0.8-0.8-1s-0.8,0-1.1-0.2c-0.6-0.4-1.1-0.8-1.7-1.3c0.6-0.3,1.2-0.6,1.8-0.9c0.4-0.1,1,0.2,1.4,0
	c0.4-0.2,0.7-0.5,0.9-0.9c0.1-0.4-0.1-0.8-0.4-1c-1.5-0.9-3.4-1-4.9-0.2c-1.5,0.6-2.3,2.2-1.8,3.8c0.2,0.8,0.2,1.6,0,2.4
	c-1.3,3.6,0.2,5.7,4.7,5.7c0.7-0.1,1.5-0.3,2.1-0.6c0.4-0.2,0.6-0.9,0.8-1.3c-0.5-0.3-1-0.6-1.5-0.8
	C226.5,158.6,225.9,159.1,225.4,158.9z"/>
<path class="st1" d="M211.6,158.7c-1.4,0.6-3,0.2-3.9-1c-1.3-1.5-1.2-3.8,0.3-5.1c0.9-0.8,2.1-1.1,3.2-0.8c0.5,0.1,0.9,0.5,1.3,0.5
	c0.7,0,1.3-0.1,2-0.3c-0.3-0.6-0.4-1.4-0.8-1.8c-2.2-1.5-5.1-1.4-7.2,0.2c-2.1,1.6-2.9,4.4-2.1,6.9c0.7,2.2,3.3,4,6.4,4.1
	c0.9-0.3,1.9-0.6,2.7-1.1c0.5-0.3,0.7-1.1,1-1.7c-0.7-0.2-1.3-0.3-2-0.4C212.3,158.2,211.9,158.5,211.6,158.7z"/>
</svg>
