<svg xmlns="http://www.w3.org/2000/svg" width="250" height="250" viewBox="0 0 250 250"><title>e-crypto-news</title><rect width="250" height="250" fill="none"/><path d="M38.87,124.47a17.3,17.3,0,0,1-6,13,15.91,15.91,0,0,1-11.13,4.15A16.47,16.47,0,0,1,9,135.49a16,16,0,0,1-4-11.21,14.41,14.41,0,0,1,2.76-8.75,19.1,19.1,0,0,1,5-5,14.87,14.87,0,0,1,9.43-2.75,17,17,0,0,1,12.44,5.89A17.38,17.38,0,0,1,38.87,124.47Zm-3.15.25A13.61,13.61,0,0,0,22.24,111a13.1,13.1,0,0,0-10.09,3.93,13.25,13.25,0,0,0-4,8.93,13.61,13.61,0,0,0,13.43,14.66,13,13,0,0,0,10.09-3.93A13.3,13.3,0,0,0,35.72,124.72Z" fill="#6400fa"/><path d="M173.71,137.14c0-6.38,0-12.6,0-18.82,0-1.23.28-1.45,1.61-1.48.3,0,.6,0,.9,0a6.08,6.08,0,0,1,2.37.25c.5.27.56,1.26,1,1.77,2.1,2.43,3.17,5.52,5.21,8a10,10,0,0,1,.94,2c.06-.77.13-1.24.13-1.71,0-2.93,0-5.86,0-8.78,0-1.25.29-1.5,1.58-1.52.75,0,1.5,0,2.25,0s1,.43,1.13,1.07a1.62,1.62,0,0,1,0,.22v19c-1.28,0-2.47-.08-3.64,0a2.21,2.21,0,0,1-2.24-1.38c-1.34-2.23-2.76-4.41-4.13-6.62-.66-1.07-1.28-2.17-2-3.49-.05.68-.12,1.15-.12,1.62,0,2.78,0,5.56,0,8.33,0,1.25-.28,1.5-1.58,1.52C176,137.15,175,137.14,173.71,137.14Z" fill="#6400fa"/><path d="M105.59,126.31c-1,.16-2-.19-3,.4a3.29,3.29,0,0,0-2,3v7.39c-1.29,0-2.54,0-3.8,0-.77,0-1.15-.42-1.16-1.25q0-6.19,0-12.4a1.08,1.08,0,0,1,1.18-1.22c.75,0,1.51,0,2.26,0,.95,0,1.56.31,1.57,1.41.88-.55,1.32-1.37,2.43-1.53a5.17,5.17,0,0,1,2.18,0,16.19,16.19,0,0,0,3.56.14c1.25,0,1.23,0,1.7,1.41.81,2.37,1.66,4.72,2.5,7.11.81-2.45,1.67-4.92,2.43-7.42.23-.75.56-1.12,1.35-1.1,1.18,0,2.37,0,3.81,0-.33,1-.58,1.9-.88,2.74-1,2.61-1.91,5.21-2.9,7.81-.87,2.27-1.84,4.51-2.66,6.79-.59,1.68-2.08,2.07-3.46,2.46a11.74,11.74,0,0,1-3.14,0A1.06,1.06,0,0,1,106.5,141c0-.22,0-.45,0-.68,0-2.18,0-2.23,2.16-2.27a2.15,2.15,0,0,0,1.51-.74c.35-.31.1-.5,0-.82A28.69,28.69,0,0,0,108.3,131c-.61-1.71-1.2-3.41-1.81-5.12.09-.63-.17-1-.9-1.36Z" fill="#6400fa"/><path d="M61.77,116.84v4.46H52v3.21H58.4c.45,0,.9,0,1.35,0a1.1,1.1,0,0,1,1.17,1.24c0,1,0,2.08,0,3.19H52c-.13,1.23,0,2.39-.08,3.69h8.6c1.58,0,1.78.2,1.79,1.76,0,2.42.39,2.82-2.59,2.77-3.76-.07-7.51,0-11.26,0-1.83,0-1.93-.1-1.94-1.84V118.64c0-1.6.19-1.79,1.75-1.8C52.73,116.83,57.22,116.84,61.77,116.84Z" fill="#6400fa"/><path d="M221.89,122.33c.7,2.58,1.38,5.08,2.17,8,.78-2.83,1.47-5.31,2.22-8,1.1,0,2.43,0,3.75,0,.75,0,1,.58.76,1.34-1.14,3.51-2.26,7-3.39,10.54-.32,1-.67,2-1,3-1.25,0-2.45,0-3.64,0a1.11,1.11,0,0,1-1.21-1,58.6,58.6,0,0,1-1.36-5.75c0-.17-.21-.31-.33-.47-.18.16-.49.28-.54.48q-.72,2.74-1.37,5.52c-.22,1-.41,1.18-1.43,1.22-.15,0-.3,0-.45,0a8.56,8.56,0,0,1-3-.29c-.9-.45-.58-1.79-.92-2.71-.69-1.9-1.28-3.83-1.9-5.76a23.59,23.59,0,0,0-1.65-4.95c-.27-.46.26-1.14.89-1.17,1.27,0,2.54,0,3.8,0,.72,2.59,1.42,5.14,2.27,8.2.74-3,1.36-5.54,2-8.12Z" fill="#6400fa"/><path d="M89.05,124.51a5.46,5.46,0,0,0-1.74-2.72,3.68,3.68,0,0,0-4.91,0c-1.4,1.17-2.41,2.52-2.1,4.54.14.88-.13,1.84.06,2.7.35,1.59.87,3.18,2.65,3.81a4.78,4.78,0,0,0,4.37-.33,4.49,4.49,0,0,0,1.52-2.94c0-.13.07-.27.11-.47h4.68c.69.93-.09,1.82-.36,2.6s-.16,1.74-1,2.29-1.12,1.5-2,2.11a10.21,10.21,0,0,1-4.58,1.5,10.41,10.41,0,0,1-5.25-.9,6.74,6.74,0,0,1-2.94-2.13,9.23,9.23,0,0,1-2.13-4.05,13.43,13.43,0,0,1-.53-3.86A11.23,11.23,0,0,1,78,119.37a7.42,7.42,0,0,1,2.54-2c1.55-.44,3.06-1.26,4.79-1a10.65,10.65,0,0,1,6,2.55c1.36,1.26,1.79,2.87,2.49,4.41.22.49-.29,1.13-.94,1.16C91.59,124.54,90.32,124.51,89.05,124.51Z" fill="#6400fa"/><path d="M126.34,136.1c0,1.76,0,3.18,0,4.6,0,1-.35,1.36-1.24,1.4s-1.65,0-2.47,0-1.23-.42-1.24-1.4c0-1.5,0-3,0-4.5,0-4.12,0-8.24,0-12.36,0-1.3.26-1.61,1.5-1.57s2.3-.25,3.44.37c.41.23,1.25-.13,1.8-.41,2.79-1.37,5.92.73,7.16,2.45,1.48,2.06,1.61,4.33,1,7.32a10.86,10.86,0,0,1-1.29,3.09,5,5,0,0,1-3.51,2.39A5.22,5.22,0,0,1,126.34,136.1Zm5.42-4.15v-3.53a3,3,0,0,0-1.57-2.46,3.16,3.16,0,0,0-2-.07,2.83,2.83,0,0,0-1,.72c-.28.24-.53.52-.84.83,0,1.15.06,2.35,0,3.54a1.93,1.93,0,0,0,.76,1.72,9.92,9.92,0,0,1,.8.79C130.16,133.54,130.16,133.54,131.76,132Z" fill="#6400fa"/><path d="M198.2,131.27c0,1.25.5,2.1,1.26,2.26,2.17.44,3.29,0,4.22-1.8.86,0,1.75,0,2.64,0,1.11.06,1.56.78,1,1.77a7.34,7.34,0,0,1-6.12,4.13,9,9,0,0,1-3.82-.62,6.55,6.55,0,0,1-3.81-3.93,9.68,9.68,0,0,1,.9-8.24,6.26,6.26,0,0,1,3.6-2.54,10.88,10.88,0,0,1,1.83-.45,7.1,7.1,0,0,1,4.48,1.06,5.51,5.51,0,0,1,2.76,3.55,9,9,0,0,1,.85,3.47c-.06,1-.35,1.33-1.3,1.34-2.25,0-4.5,0-6.75,0Zm-.21-3.68h5c-.92-1.67-.92-1.7-1.66-1.72C200,125.83,198.61,125.57,198,127.59Z" fill="#6400fa"/><path d="M163.34,129.84a7.69,7.69,0,0,1-2.43,6,6.5,6.5,0,0,1-3.82,1.66,7.88,7.88,0,0,1-6.8-1.92,6.89,6.89,0,0,1-1.94-3.7c-.42-1.59-.37-1.88,0-4a10.55,10.55,0,0,1,1.24-3.11c.46-.89,1.26-1.09,1.81-1.68s1.55-.62,2.31-.94a6.65,6.65,0,0,1,5.75.55,6.47,6.47,0,0,1,3.87,6.2Zm-8.8,3.69a17,17,0,0,1,1.9,0c1,.14,1.52-.57,1.9-1.23a4.77,4.77,0,0,0,.47-2,4.69,4.69,0,0,0-2.24-4.5,6.59,6.59,0,0,0-2.24.38,2.62,2.62,0,0,0-1.24,1.67,24.19,24.19,0,0,0-.11,4c0,.17.23.35.37.51Z" fill="#6400fa"/><path d="M240.13,127.21c-.34-1.76-.37-1.79-1.75-1.8-.8,0-1.69-.2-2,1.12a15.49,15.49,0,0,0,3.42,1.22c1.92.33,4,.82,5.19,3.14,0,.54,0,1.44,0,2.33a3.19,3.19,0,0,1-1.75,3,10.83,10.83,0,0,1-3.5,1.35,11.76,11.76,0,0,1-5-.54,5.94,5.94,0,0,1-2.82-2.37,3.68,3.68,0,0,1-.47-2.86c.67,0,1.4,0,2.12-.08,1.12-.05,2.11-.06,2.61,1.33.28.77,1.12,1,2.05,1a2.35,2.35,0,0,0,2.28-1.49,5.77,5.77,0,0,0-3-1.21,20.74,20.74,0,0,1-3.79-1.23,3.8,3.8,0,0,1-1.22-6c1.6-2,5.62-2.95,8.75-1.75,1.76.68,3.22,1.61,3.3,3.75.86.8,0,1-.47,1.08C242.82,127.28,241.54,127.21,240.13,127.21Z" fill="#6400fa"/><path d="M144.39,122.25c.4,0,.68,0,1,0,1.57.07,1.74.24,1.74,1.81s-.17,1.74-1.75,1.8c-.28,0-.57,0-.91,0v7.64h2.61v3.64c-1.48,0-3,0-4.44,0a3.4,3.4,0,0,1-3.17-3.18c0-2.62,0-5.25,0-8-.35,0-.7-.07-1-.06-.83,0-1.23-.39-1.22-1.22s0-1.48,0-2.38h2.25v-4.08h3.84a1,1,0,0,1,1.12,1.07C144.43,120.22,144.39,121.18,144.39,122.25Z" fill="#6400fa"/><path d="M64.13,131.2v-4c2.62,0,5.21,0,7.81,0,.77,0,1.13.42,1.16,1.25s0,1.77,0,2.73Z" fill="#6400fa"/><path d="M105.59,126.31V124.5c.73.32,1,.73.9,1.36Z" fill="#6400fa"/><path d="M23,132v2.39h-1.3v-2.68c-1.77.26-3.17-.42-4.71-1.12.2-.54.38-1.07.6-1.58s.43-.87.68-1.35c1,1.38,2.42,1.43,3.91,1.41a1.31,1.31,0,0,0,1.24-.74,1.68,1.68,0,0,0-.48-1.8,13.11,13.11,0,0,0-1.54-.64,10.6,10.6,0,0,1-2.28-1c-2.21-1.67-2.27-4.84.65-6.67a9.08,9.08,0,0,1,1.85-.65v-2.44H23l.14,2.51a8.92,8.92,0,0,1,1.68.3c1.58.6,1.72,1.09.79,2.47-.28.41-.55.58-1,.07-.18-.2-.7-.09-1-.19a2.39,2.39,0,0,0-2.63.7c-.25.32.16,1.42.73,1.71a12.18,12.18,0,0,0,2.1.9,4.76,4.76,0,0,1,3.11,2.71,2.63,2.63,0,0,1,0,2.29c-.53,1.26-1.1,2.41-2.64,2.71A4.55,4.55,0,0,0,23,132Z" fill="#6400fa"/><path d="M10.87,124.72l1.58-.64c0,.39.27,1,.09,1.15C12,125.84,11.76,125,10.87,124.72Z" fill="#6400fa"/><path d="M32.57,124.91l-1.27.42v-1.19l1.27.41Z" fill="#6400fa"/><path d="M11,127.42l-.64-.76a3,3,0,0,1,.67-.34c.4-.08.78,0,.66.54C11.69,127,11.37,127.17,11,127.42Z" fill="#6400fa"/><path d="M34,126.82a6.25,6.25,0,0,1-1.39.37c-.2,0-.52-.26-.54-.43-.06-.6.45-.45.77-.43A5.81,5.81,0,0,1,34,126.82Z" fill="#6400fa"/><path d="M30.16,120.13l.79-1.59.65,1.22Z" fill="#6400fa"/><path d="M12.78,128.72c.21.65,1.17.74.4,1.37-.3.24-.71.52-.85.12S12.56,129.38,12.78,128.72Z" fill="#6400fa"/><path d="M30,129.8c.65-.21.74-1.18,1.37-.4.24.3.52.71.12.84S30.62,130,30,129.8Z" fill="#6400fa"/><path d="M13.79,114.82c.59.39.79.55,1,.66a3.94,3.94,0,0,0,.6.17C14.56,116.42,14.56,116.42,13.79,114.82Z" fill="#6400fa"/><path d="M29.94,115c-.69,1.45-.69,1.45-1.49.73Z" fill="#6400fa"/><path d="M15,118c-.29.1-.36.16-.41.15-.36-.1-.93.29-1-.43a.42.42,0,0,1,.13-.37c.53-.33.75.16,1.06.42Z" fill="#6400fa"/><path d="M28.66,118.19c.46-.45.66-.75.94-.87s.43.2.65.31c-.15.19-.26.46-.45.54A4.27,4.27,0,0,1,28.66,118.19Z" fill="#6400fa"/><path d="M13.49,119.85c-.14.05-.27.15-.39.14-.32,0-.78.2-.88-.33,0-.17.13-.37.2-.56.31.15.62.28.91.45C13.41,119.6,13.44,119.74,13.49,119.85Z" fill="#6400fa"/><path d="M9.65,120.84a5.8,5.8,0,0,1,.91-.75.83.83,0,0,1,.58,0c.08,0,.19.3.15.35a1.45,1.45,0,0,1-.54.45A3.9,3.9,0,0,1,9.65,120.84Z" fill="#6400fa"/><path d="M33.79,120.75c-.14,0-.27.15-.39.14-.32,0-.78.21-.88-.33,0-.17.13-.37.21-.56.3.15.61.29.9.46C33.71,120.5,33.74,120.65,33.79,120.75Z" fill="#6400fa"/><path d="M13.51,131.55c.15-.15.24-.3.36-.35a5.61,5.61,0,0,1,.91-.27.82.82,0,0,1,.13.36c0,.59-.47.42-.79.42A2.3,2.3,0,0,1,13.51,131.55Z" fill="#6400fa"/><path d="M32.12,122.4c.15-.05.28-.15.4-.14.32,0,.78-.21.87.33,0,.17-.13.37-.2.56-.31-.15-.61-.29-.9-.46C32.2,122.65,32.18,122.5,32.12,122.4Z" fill="#6400fa"/><path d="M11.77,122.47l-.23.22c-.3.28-.55.75-1,.31a.47.47,0,0,1-.08-.39c.18-.65.71-.25,1.08-.35C11.53,122.25,11.6,122.34,11.77,122.47Z" fill="#6400fa"/><path d="M30.32,131.59c-.29.09-.37.15-.42.13-.36-.09-.94.29-1-.44a.48.48,0,0,1,.14-.37c.52-.31.75.18,1.05.44Z" fill="#6400fa"/><path d="M14.16,134.36A1,1,0,0,1,14,134c0-.32-.21-.78.33-.87.17,0,.37.13.56.2-.15.3-.29.61-.46.9C14.4,134.29,14.26,134.31,14.16,134.36Z" fill="#6400fa"/><path d="M29.8,134.67c-.45-.46-.76-.66-.87-.94s.19-.43.31-.65c.18.15.46.26.54.45A4.27,4.27,0,0,1,29.8,134.67Z" fill="#6400fa"/><path d="M13.8,121.9a3.13,3.13,0,0,1-.8.33c-.11,0-.35-.36-.32-.41a1.24,1.24,0,0,1,.54-.45C13.3,121.35,13.48,121.6,13.8,121.9Z" fill="#6400fa"/><path d="M28.69,135a2.62,2.62,0,0,1-.8.33c-.11,0-.36-.36-.32-.41a1.29,1.29,0,0,1,.54-.44C28.19,134.43,28.37,134.69,28.69,135Z" fill="#6400fa"/><path d="M10.76,128.33c.29.31.55.5.52.58a1.3,1.3,0,0,1-.45.54s-.4-.21-.4-.33A2.5,2.5,0,0,1,10.76,128.33Z" fill="#6400fa"/><path d="M32.86,128.33c.3.31.55.5.52.58a1.27,1.27,0,0,1-.44.54s-.41-.21-.41-.33A3.1,3.1,0,0,1,32.86,128.33Z" fill="#6400fa"/><path d="M30.77,121.11c.2.36.41.59.36.67s-.35.32-.53.47c-.12-.15-.35-.32-.32-.44S30.53,121.43,30.77,121.11Z" fill="#6400fa"/><path d="M13.8,127.74c-.36.2-.59.4-.67.35a1.86,1.86,0,0,1-.47-.53c.14-.11.32-.35.44-.32S13.47,127.5,13.8,127.74Z" fill="#6400fa"/><path d="M31.39,127.59c-.32.25-.49.45-.7.5s-.29-.2-.44-.32a2,2,0,0,1,.47-.53C30.8,127.19,31,127.4,31.39,127.59Z" fill="#6400fa"/><path d="M27.81,114.06a5.25,5.25,0,0,1,.62.53s-.08.24-.13.36l-.77-.57Z" fill="#6400fa"/><path d="M16.51,135.55a4.37,4.37,0,0,1-1.12-.46c-.08-.07.07-.37.11-.57a3.46,3.46,0,0,1,.45.29A5.86,5.86,0,0,1,16.51,135.55Z" fill="#6400fa"/><path d="M15.61,113.66l.57.78c-.12,0-.31.17-.36.13a6.4,6.4,0,0,1-.53-.62Z" fill="#6400fa"/></svg>