<?xml version="1.0" encoding="utf-8"?>
<!-- Generator: Adobe Illustrator 22.0.1, SVG Export Plug-In . SVG Version: 6.00 Build 0)  -->
<svg version="1.1" id="Layer_1" xmlns="http://www.w3.org/2000/svg" xmlns:xlink="http://www.w3.org/1999/xlink" x="0px" y="0px"
	 viewBox="0 0 250 250" style="enable-background:new 0 0 250 250;" xml:space="preserve">
<style type="text/css">
	.st0{fill:none;}
	.st1{fill:#6400FA;}
</style>
<title>E27</title>
<rect class="st0" width="250" height="250"/>
<path class="st1" d="M5,60.4v129.2h240V60.4H5z M99.6,134.5H46.7c0.1,2.8,0.3,5.5,0.7,8.2c0.4,2.1,2.2,3.8,4.4,4
	c2.2,0.4,4.4,0.5,6.6,0.6c9.5,0.1,19,0,28.5,0h1.5V160h-2c-11.1-0.1-22.2-0.1-33.2-0.3c-4.2,0.1-8.4-1.2-11.8-3.6
	c-3.6-2.6-5.8-6.7-6.2-11.1c-0.6-5.3-0.8-10.6-0.9-15.9c-0.1-6-0.1-11.9,0.1-17.8c0.2-8.4,4.1-13.6,12.3-15.9c3.6-1,7.3-1.6,11-1.7
	c9.5-0.2,19,0.1,28.5,0.3c2,0.1,3.9,0.5,5.8,1.2c4.5,1.7,6.8,5.4,7.2,9.9c0.5,6.8,0.5,13.6,0.6,20.4
	C99.7,128.4,99.6,131.4,99.6,134.5z M111.4,149.8h49v10h-59c-0.1-0.2-0.1-0.4-0.1-0.6c0-7.1,0-14.1,0.1-21.2c0.1-2.1,0.4-4.2,1-6.2
	c1-4,4.3-7.1,8.4-7.8c4.1-0.7,8.3-1.1,12.5-1.1c6.9-0.2,13.8,0,20.7,0c4.5,0,6-1.4,6-5.9c0-2.1,0-4.2-0.1-6.3
	c-0.1-3.8-1.6-5.2-5.4-5.3c-6.8,0-13.5,0-20.3,0H122V93.6c0.5,0,1-0.1,1.4-0.1c7.2,0,14.5-0.1,21.7,0.1c4.3,0.1,8.3,1.2,11.3,4.6
	c2.4,2.7,3.7,6.2,3.8,9.8c0.3,5.3,0.2,10.6-0.3,15.9c-0.5,5.9-4.3,9.2-10.1,9.9c-1.9,0.2-3.8,0.3-5.7,0.4c-8.1,0-16.2,0-24.3,0
	c-1.3,0-2.6,0.1-3.8,0.3c-2.6,0.4-4.3,1.7-4.4,4.4C111.2,142.4,111.4,146,111.4,149.8z M216,103.6c-1,2.2-2.2,4.2-3.6,6.1
	c-11.6,16.2-23.2,32.5-34.9,48.7c-0.7,1.1-1.9,1.7-3.2,1.6c-3.9-0.1-7.8,0-11.9,0l39.6-54.9h-39.9V93.6h1.6
	c15.1,0,30.2,0.2,45.3-0.1C215.4,93.4,218.1,98.8,216,103.6z"/>
<path class="st1" d="M82.6,105.4c-0.5,0-1-0.1-1.6-0.1c-5.6,0-11.2,0-16.8,0.1c-3.8,0-7.6,0.1-11.3,0.4c-2.8,0.1-5.1,2.3-5.5,5.1
	c-0.4,4.1-0.4,8.2-0.6,12.5h41.2c0-4.1,0-8.2,0-12.2S86.5,105.7,82.6,105.4z"/>
</svg>
