<?xml version="1.0" encoding="utf-8"?>
<!-- Generator: Adobe Illustrator 22.0.1, SVG Export Plug-In . SVG Version: 6.00 Build 0)  -->
<svg version="1.1" id="Layer_1" xmlns="http://www.w3.org/2000/svg" xmlns:xlink="http://www.w3.org/1999/xlink" x="0px" y="0px"
	 viewBox="0 0 250 250" style="enable-background:new 0 0 250 250;" xml:space="preserve">
<style type="text/css">
	.st0{fill:none;}
	.st1{fill:#6400FA;}
</style>
<title>Las Vegas Business Press</title>
<rect class="st0" width="250" height="250"/>
<path class="st1" d="M5,189.7V60.6l0.1-0.1c0,0,0.1-0.1,0.1-0.1L244,60.3c0.3,0,0.6,0,1,0v129.4H5z M15.8,90.5h1.6l99.8-0.1
	c0,0,0.1-0.1,0.1-0.1l0.1-0.1c0.3-2.4,0.2-18.9-0.1-20c-1.8-0.3-100.3-0.2-101.5,0.1L15.8,90.5z M51.6,158.1c1.5,0,2.7-0.1,4,0
	c2.4,0,4.5,1.6,5.1,4c0.4,1.6,0.8,3.2,1,4.8c0.2,1.9,0.7,3.7,1.5,5.5c1.7,3.7,6.7,3.6,8.9,1.2c1.7-1.8,1.9-4.2,1.9-6.6h-1.4
	c0,0.5,0,1-0.1,1.4c-0.2,1.1-0.5,2.1-0.9,3.1c-0.4,0.8-1.4,1.2-2.2,0.8c-0.3-0.2-0.6-0.4-0.8-0.7c-0.3-0.5-0.5-1-0.7-1.6
	c-0.4-2-0.9-4-1.2-6c-0.6-3.5-2.6-5.5-6-6.4c-0.4-0.1-0.8-0.3-1.5-0.5l1.1-0.4c1.9-0.6,3.6-1.6,5.1-2.8c3-2.6,3.4-7.1,0.8-10.2
	c-0.6-0.8-1.4-1.4-2.3-1.8c-1.7-0.8-3.6-1.3-5.5-1.3c-5.1,0-10.2,0-15.3,0c-0.4,0-0.7,0-1.1,0c-0.2,0.1-0.3,0.1-0.4,0.2l0.1,0.8
	c1,0.3,2,0.5,2.9,0.7c1,0.2,1.7,1.1,1.7,2.1c0,0.4,0,0.7,0,1.1v23.9c0,0.3,0,0.6,0,0.9c-0.1,1.7-0.7,2.4-2.4,2.7l-2.3,0.4
	c0,0.2-0.1,0.4-0.1,0.6c0,0.2,0.1,0.3,0.2,0.5h14.5l-0.1-1.1c-1-0.2-1.9-0.3-2.8-0.5c-1.1-0.1-2-1.2-1.8-2.3
	C51.5,166.6,51.6,162.4,51.6,158.1z M30.4,111.6c0.7-0.3,1.1-0.4,1.5-0.6c0.9-0.4,1.8-0.7,2.7-1.2c1.9-1,3.3-2.8,3.6-4.9
	c0.6-3.5,0-6.4-4.3-8.1C33,96.3,32,96.1,31.1,96c-1.3-0.2-2.7-0.2-4-0.2c-4.2,0-8.4,0-12.6,0c-0.4,0-0.7,0.1-1.1,0.2l0.1,1.1
	c0.6,0.2,1.2,0.3,1.7,0.4c2.4,0.7,2.8,1.2,2.8,3.7V125c0,0.4,0,0.7,0,1.1c0,1-0.7,1.8-1.6,2c-0.9,0.2-1.8,0.4-2.7,0.6
	c-0.2,0.1-0.3,0.1-0.5,0.3l0.2,0.9c0.2,0.1,0.4,0.1,0.6,0.1c5.4,0,10.9,0.1,16.3,0c2.3-0.1,4.5-0.8,6.3-2.2
	c3.8-2.6,4.7-7.8,2.1-11.6c-0.5-0.7-1-1.3-1.7-1.8c-1.4-1.1-3.1-1.9-4.9-2.3C31.6,111.9,31.1,111.8,30.4,111.6z M152.4,130.2v-2
	c0-7.8,0-15.7,0-23.6c0-1.3,0.1-2.6,0.3-3.8c0.1-1.5,1.1-2.7,2.6-3c0.9-0.2,1.9-0.5,2.8-0.8v-1.2h-13.8l0.1,1.1c1.1,0.3,2,0.7,3,0.9
	c1.5,0.3,2.6,1.6,2.7,3.2c0.2,1.2,0.3,2.4,0.3,3.7c0,5.2,0,10.5,0,15.7c0,0.3-0.1,0.6-0.1,1.2l-19-25.7h-9.6l-0.1,1
	c1.2,0.5,2.4,0.9,3.5,1.5c1.8,0.7,2.9,2.5,2.9,4.4c0,0.4,0,0.8,0,1.2c0,5.4,0,10.9,0,16.3c0,1.7-0.2,3.3-0.4,5
	c-0.1,1.2-0.9,2.1-2.1,2.4l-2.9,0.9c-0.1,0-0.2,0.2-0.4,0.3l0.2,0.8c2.5,0.4,13.5,0.2,13.9-0.2l-0.1-0.8c-1.2-0.4-2.3-0.7-3.4-1.1
	c-1.2-0.3-2.1-1.3-2.2-2.5c-0.3-1.5-0.5-3-0.5-4.6c-0.1-5.4,0-10.9,0-16.3V103l0.3-0.1c6.8,9.1,13.5,18.2,20.3,27.3L152.4,130.2z
	 M178.8,105.5c-0.4,1.3-0.6,2.3-0.9,3.3c-0.4,1.2-1.3,2.1-2.4,2.4c-1.9,0.4-4,0.4-5.9,0c-0.3-2.2-0.2-12.7,0.1-13.8h7.6
	c1.8,0,3.4,1,4.3,2.5c0.6,0.8,1,1.8,1.5,2.7c0.2,0.3,0.4,0.7,0.6,1.2l1.2-0.2V96c-1.3-0.3-24-0.4-25.5-0.1v1
	c0.9,0.2,1.6,0.4,2.4,0.6c2.1,0.6,2.5,1.1,2.5,3.3v19.6c0,1.7,0,3.5,0,5.2c0.2,1.2-0.7,2.4-1.9,2.5c0,0,0,0-0.1,0
	c-0.5,0.1-1,0.2-1.5,0.3s-1,0.2-1.5,0.3l0.1,1c2,0.3,26.2,0.2,27.4-0.1c0.2-3.1,0.4-6.2,0.6-9.4h-1.1c-1.2,2.1-2.2,4.1-3.3,6.1
	c-0.5,1-1.5,1.6-2.6,1.7c-2.7,0.1-5.3,0.3-8,0.1c-2.1-0.1-2.8-0.9-2.9-3c-0.1-3.7-0.1-7.5-0.2-11.2c0-0.2,0.1-0.5,0.2-0.7
	c0.2-0.1,0.4-0.1,0.7-0.1c1.2,0,2.5,0,3.7,0c1.9-0.1,3.6,1.2,4,3c0.3,1.1,0.6,2.2,0.9,3.3c0.3,0,0.5,0,0.8,0c0.2,0,0.3-0.1,0.4-0.2
	v-13.7L178.8,105.5z M85.5,142c2.7,0.1,5.2,0.2,7.7,0.2c1.7-0.1,3.3,0.8,4.2,2.2c0.9,1.3,1.6,2.6,2.4,4.1l1.1-0.1v-3.8
	c0-1.3,0-2.5,0-3.8c-0.6,0-0.9-0.1-1.3-0.1h-23c-0.3,0-0.6,0-0.9,0c-0.1,0-0.3,0.1-0.4,0.2l0.1,0.9l1.7,0.4c3,0.7,3.3,1.1,3.3,4.2
	v23c0,0.4,0,0.8-0.1,1.2c0,1.4-1.1,2.5-2.4,2.5l-2.6,0.4c0,0.2-0.1,0.4-0.1,0.6c0,0.2,0.1,0.3,0.2,0.5h27.4c0.2-3.2,0.4-6.3,0.6-9.4
	h-1.1c-1.2,2.1-2.2,4-3.3,5.9c-0.5,1-1.5,1.6-2.6,1.7c-2.4,0.1-4.7,0.3-7.1,0.3c-3,0-3.8-0.9-3.9-3.9c0-3.4,0-6.9,0-10.3
	c0-0.3,0.1-0.7,0.2-1c1.5,0,3-0.1,4.4,0c2,0,3.7,1.4,4,3.4c0.3,0.9,0.5,1.9,0.7,2.9l1.2-0.1v-13.9h-1.2c-0.4,1.3-0.7,2.5-1.1,3.6
	c-0.4,1.2-1.4,2-2.6,2.2c-1.8,0.2-3.7,0.3-5.6,0.1L85.5,142z M13.3,174.5c2.5,0.3,14.4,0.2,14.8-0.1l-0.1-0.9l-2.4-0.4
	c-2-0.4-2.5-0.9-2.5-2.9c0-3.3,0-6.6,0-9.9c0-0.4,0.1-0.8,0.1-1.2c1,0,2,0,3,0c2.2,0,4.3-0.4,6.3-1.3c3.2-1.3,5.4-4.1,6-7.5
	c0.8-3.6-1.1-7.2-4.4-8.6c-1.5-0.7-3.2-1.1-4.9-1.1c-4.9,0-9.8,0-14.6,0c-0.4,0-0.7,0-1.1,0c-0.2,0-0.3,0.1-0.4,0.2l0.1,0.9
	c0.9,0.2,1.7,0.3,2.5,0.5c2,0.5,2.3,0.9,2.3,3c0,4,0,7.9,0,11.9c0,4.3,0,8.5,0,12.8c0,2.3-0.4,2.8-2.6,3.2l-2,0.4L13.3,174.5z
	 M78,95.9c-2.3-0.3-13.4-0.2-13.9,0.2l0.1,1l1.1,0.3c3.8,0.9,4.8,1.3,4.9,5.8c0.2,4.9,0.1,9.9,0.1,14.8c0,1.1,0,2.2-0.1,3.2
	c-0.2,3-2.1,5.5-4.8,6.6c-2.3,0.9-4.8,1-7.1,0.3c-2.5-0.6-4.4-2.6-4.9-5.1c-0.2-1-0.4-2.1-0.4-3.2c0-6.3,0-12.6,0-18.9
	c0-0.4,0-0.7,0-1.1c0-0.9,0.7-1.8,1.6-2c0.5-0.2,1.1-0.3,1.7-0.4l1.5-0.4c0-0.2,0-0.5,0-0.7c-0.1-0.1-0.1-0.3-0.3-0.4H43.4L43.3,97
	c0.5,0.1,0.9,0.2,1.3,0.3c2.9,0.6,3.5,1.3,3.5,4.3c0,6.4,0.1,12.7,0,19.1c-0.1,4,2.4,7.6,6.1,8.9c1.5,0.5,3,0.9,4.6,1.1
	c3.1,0.4,6.3-0.3,9-2c2.2-1.3,3.8-3.4,4.3-5.9c0.2-1.1,0.4-2.2,0.4-3.4c0-4.9,0-9.9,0-14.8c0-1,0-2,0.1-2.9c0.2-2.6,0.9-3.5,3.5-4.2
	c0.7-0.2,1.4-0.3,2.1-0.5L78,95.9z M215.2,118.7c0.1,3.9,0.3,7.8,0.4,11.7h1.6l1.6-2.1c0.6,0.4,1.2,0.7,1.7,0.9
	c2.7,1.4,5.8,1.7,8.7,1c3.1-0.7,5.6-2.8,6.9-5.7c0.6-1.6,0.9-3.4,0.8-5.1c0.1-2.8-1.4-5.5-3.8-7c-0.7-0.5-1.4-0.9-2.1-1.2
	c-1.6-0.8-3.3-1.4-4.9-2.2c-1.6-0.6-3-1.6-4.3-2.7c-1.6-1.6-2.2-3.9-1.6-6c0.5-2,2.3-3.5,4.4-3.4c2.7-0.1,5.2,1.1,6.7,3.4
	c0.8,1.2,1.4,2.5,2,3.8c0.4,0.9,0.7,1.8,1.1,2.7h1.1c-0.1-3.8,0.1-7.5-0.4-11.3h-1.6l-1.4,1.9c-1.3-0.7-2.6-1.3-4-1.8
	c-4-1.3-8.5,0.3-10.7,3.9c-2.3,3.7-2.1,10.8,3.7,13.7c2.4,1.1,4.8,2.2,7.2,3.2c4.4,1.9,5.2,6.1,3.8,9.6c-0.5,1.4-1.7,2.4-3.2,2.7
	c-2.5,0.7-5.1,0.1-7.1-1.5c-2.3-1.8-3.6-4.3-4.8-6.9c-0.2-0.6-0.5-1.1-0.8-1.7L215.2,118.7z M123.1,142.2c-0.7-0.4-1.2-0.7-1.7-1
	c-1.9-1.1-4.1-1.5-6.2-1.2c-3.6,0.3-6.6,2.8-7.6,6.3c-1.3,3.7-0.2,7.8,2.7,10.4c0.9,0.7,1.9,1.3,2.9,1.7c2.1,1,4.2,1.9,6.3,2.8
	c2.8,1.1,4.5,4,4.2,7c-0.2,3.4-2.3,5.5-5.8,5.4c-2.7,0-5.2-1.3-6.8-3.4c-1.3-1.6-2.4-3.5-3.1-5.5c-0.2-0.5-0.4-1-0.7-1.5l-1.1,0.2
	c0.1,3.9,0.3,7.7,0.4,11.6h1.7l1.7-2.2c2.4,1.8,5.4,2.6,8.4,2.3c5.5-0.2,9.8-4.9,9.7-10.4c0.1-3.3-1.1-6.2-4.1-7.9
	c-1.8-1-3.8-1.9-5.7-2.8c-1.7-0.7-3.3-1.6-4.8-2.7c-1.8-1.5-2.7-3.9-2.2-6.2c0.3-2,2-3.5,4-3.7c3-0.1,5.6,0.9,7.3,3.5
	c0.9,1.6,1.7,3.2,2.5,4.9c0.2,0.4,0.4,0.9,0.6,1.4l0.9-0.1c0-3.6,0-7,0-10.4c-0.1-0.3-0.2-0.6-0.3-0.9h-1.5L123.1,142.2z M96.7,97.5
	c-0.4-0.3-0.7-0.5-1-0.7c-2-1.3-4.3-1.9-6.6-1.7c-4.1,0.3-7.5,3.4-8.2,7.4c-0.7,4.5,0.5,8.2,4.7,10.5c0.4,0.2,0.9,0.5,1.4,0.7
	c2.1,0.9,4.2,1.8,6.3,2.8c3.4,1.6,5,5.6,3.6,9.1c-0.5,1.5-1.8,2.7-3.4,3c-2.2,0.6-4.6,0.1-6.5-1.1c-1.7-1.2-3.1-2.7-4-4.6
	c-0.7-1.4-1.3-2.8-2-4.2h-1.1c-0.1,3.9,0.1,7.8,0.4,11.7h1.6l1.6-2c0.2,0,0.4,0.1,0.5,0.2c2.4,1.6,5.3,2.3,8.2,2
	c5.6-0.4,9.8-5.2,9.4-10.7c-0.2-3.4-2.1-6.4-5.1-8.1c-1.4-0.8-2.9-1.5-4.4-2.1c-1.7-0.6-3.4-1.5-4.9-2.6c-1.5-1.1-2.5-2.8-2.5-4.7
	c-0.2-3,1.6-5,3.9-5.3c2.8-0.4,5.7,0.8,7.3,3.1c0.9,1.3,1.6,2.7,2.3,4.2c0.4,0.8,0.7,1.7,1,2.6l1.1-0.2c-0.1-3.8-0.2-7.4-0.3-11.2
	h-1.7L96.7,97.5z M193.8,128.3c0.5,0.3,0.9,0.6,1.2,0.8c3.1,1.8,6.9,2.1,10.3,0.9c3.7-1.2,6.3-4.6,6.6-8.5c0.5-4.3-1-7.7-5-9.7
	c-1.5-0.7-3-1.4-4.4-2.1s-3.1-1.5-4.6-2.4c-1.7-1-2.7-2.8-2.8-4.7c-0.3-3.1,1.6-5.3,4-5.5c2.7-0.3,5.3,0.7,7,2.8
	c1.2,1.5,2.1,3.2,2.7,5c0.3,0.7,0.5,1.3,0.8,2l1.1-0.2c-0.1-3.8-0.2-7.4-0.3-11.2h-1.7l-1.4,1.9c-1.3-0.6-2.6-1.2-3.9-1.7
	c-4.2-1.4-8.8,0.3-11,4.2c-1,1.8-1.3,3.9-1.1,6c0.1,2.3,1.2,4.5,3,6c1,0.8,2.1,1.4,3.3,2c2,1,4.1,1.8,6.2,2.8c3.4,1.5,5,5.5,3.6,8.9
	c-0.5,1.7-1.9,2.9-3.6,3.2c-2.8,0.7-5.7-0.2-7.6-2.2c-1.1-1.2-2.1-2.5-2.9-3.9c-0.7-1.2-1.3-2.5-1.8-3.8h-1.1
	c-0.1,3.9,0.1,7.8,0.4,11.7h1.6L193.8,128.3z M148.2,142.1c-1.2-0.6-2.4-1.2-3.7-1.7c-4.4-1.6-9.3,0.3-11.4,4.5
	c-2,4.1-1.3,10.7,4.6,13.3l6.3,2.8c3.6,1.6,5,4.1,4.6,8c-0.2,2.3-1.9,4.2-4.1,4.5c-2.2,0.5-4.6,0-6.4-1.4c-1.5-1.1-2.7-2.5-3.6-4.2
	c-0.8-1.4-1.4-2.9-2.2-4.5l-0.9,0.1c0,2.1,0,4,0,5.9c-0.1,1.9,0,3.9,0.2,5.8h1.6l1.7-2.2c2.2,1.6,4.9,2.4,7.6,2.3
	c5.6-0.1,9.7-3.6,10.4-9.1c0.5-4-0.7-7.4-4.4-9.4c-1.9-1.1-4-1.9-6-2.9c-1.4-0.7-2.8-1.5-4.1-2.4c-1.7-1.2-2.6-3.3-2.4-5.4
	c0-2.2,1.6-4.1,3.8-4.4c2.4-0.3,4.8,0.4,6.5,2.1c1.4,1.5,2.5,3.3,3.2,5.2c0.3,0.8,0.6,1.6,0.9,2.5l1-0.1v-11.2h-1.8L148.2,142.1z
	 M105.1,97c1.1,0.3,2.1,0.6,3.1,1c1,0.3,1.7,1.3,1.6,2.3c0,0.8,0,1.6,0,2.5c0,7.6,0,15.2,0,22.8c0,1.9-0.6,2.6-2.5,2.9
	c-0.7,0.1-1.3,0.2-2,0.3c-0.1,0-0.2,0.1-0.3,0.2l0.2,0.9c2.7,0.3,14,0.2,14.4-0.1v-0.9c-0.8-0.2-1.6-0.4-2.4-0.6
	c-1.8-0.5-2.3-1.2-2.3-2.9c0-0.3,0-0.6,0-0.9v-23.6c0-2.3,0.4-2.9,2.7-3.4c0.7-0.2,1.4-0.3,2.1-0.4l-0.2-1.1h-14.4V97z"/>
<path class="st1" d="M43.3,85.7L42.9,86h-6.7l-0.1-0.3l1.6-0.7c0-1.1-0.6-2-1-3h-4l-1,2.7c0.3,0.2,0.7,0.4,1.1,0.6
	c0.3,0.1,0.7,0.3,1,0.5c-1.2,0.3-2.4,0.3-3.6,0.2c-1.2,0-2.5,0-3.7,0s-2.6,0.1-3.9,0c-1.3,0.1-2.6,0-3.9-0.2l1.8-0.7
	c0.4-3.3,0.4-6.7,0.1-10c-0.2-0.1-0.5-0.3-0.7-0.4s-0.6-0.2-0.9-0.3c0.8-0.6,4.6-0.6,6.1-0.1L23.5,75c-0.4,2.1-0.3,9.2,0.3,10.3
	c1,0.1,2.1,0.1,3.1,0c0.5-0.2,1-0.5,1.3-1c0.5-0.7,0.9-1.4,1.3-2.1c0.5,1.1,0,2.1,0.3,3.1c0.9-0.2,1.2-1,1.4-1.6
	c1.1-2.6,2.1-5.2,3.1-7.9c0.2-0.6,0.5-1.2,0.8-1.9l0.9-0.2c0.2,0.2,0.3,0.4,0.4,0.7c1.2,3.1,2.5,6.3,3.7,9.4c0.2,0.9,1,1.6,2,1.6
	c0.1-1.2-0.2-2.3,0.4-3.6c0.3,0.5,0.5,0.9,0.8,1.4c0.5,1,1.3,1.7,2.3,2.1c1.1,0.5,2.4,0.1,2.9-1c0.5-1,0.1-2.3-1-2.8
	c-0.1,0-0.2-0.1-0.2-0.1c-0.8-0.4-1.7-0.7-2.6-1C43,79.9,42,78,42.5,76.2c0,0,0,0,0,0c0.6-1.8,2.4-2.9,4.2-2.5
	c0.7,0.1,1.4,0.3,2.2,0.6l0.9-0.5c0.2,0.1,0.3,0.2,0.4,0.3c0,1.2,0,2.4,0,3.9c-0.2-0.2-0.5-0.5-0.7-0.8c-0.2-0.4-0.4-0.8-0.7-1.2
	c-0.6-1.2-2-1.9-3.4-1.5c-1.5,1.3-1.4,2.7,0.3,3.6c1,0.5,2.1,0.8,3.1,1.3c1.7,0.8,2.5,2.8,1.7,4.5c-0.1,0.2-0.2,0.4-0.3,0.5
	c-0.7,1.1-1.9,1.8-3.2,1.8C45.9,86.1,44.6,86,43.3,85.7z M34.6,76.7L33,81h3.3L34.6,76.7z"/>
<path class="st1" d="M69.1,75c-2-0.9-2.7-0.7-3.5,1.1c-1.2,2.7-2.3,5.5-3.5,8.2c-0.2,0.6-0.5,1.1-0.8,1.7h-1c-0.2-0.5-0.5-1-0.6-1.6
	c-0.9-2.4-1.7-4.7-2.6-7.1c-0.8-2.2-0.8-2.2-2.4-3.3c1.9-0.4,3.9-0.4,5.8,0.1L58.9,75l2.8,7.8H62l3-7.5l-2.2-1c1-0.5,2-0.2,2.9-0.3
	s2,0,2.9,0h8.7V77c-0.3-0.3-0.6-0.4-0.7-0.7c-0.5-1.3-1.9-2.1-3.2-1.8c-0.5,0-1,0-1.6,0v4.7c2.2,0.4,2.3,0.3,3.4-1.9
	c0.5,0.8,0.6,3.4,0.1,5.1l-0.9-1.8c-1.1-0.6-1.1-0.6-2.6-0.4c-0.2,1.6-0.2,3.2,0.1,4.8c1.4,0.5,2.7,0.2,4.2,0.2l2.1-3.1v3.8
	C74.6,86.1,71,86,67.4,86l-0.1-0.3l1.7-0.6L69.1,75z"/>
<path class="st1" d="M105.7,85.5l-0.6,0.4h-6.9v-0.3l1.7-0.7l-1.1-3h-4.1L94,84.7l2.1,0.9c-0.9,0.6-1.7,0.3-2.5,0.3s-1.6,0-2.6,0
	c0.7-0.5,1.4-1,2-1.7c0.4-0.7,0.7-1.4,0.9-2.1c0.9-2.3,1.8-4.6,2.7-6.9c0.2-0.5,0.5-1,0.7-1.6h1.1c0.8,2,1.6,4,2.4,6.1
	c0.5,1.4,1.1,2.8,1.6,4.2c0.4,1,0.4,1,1.9,1.3v-3.5l0.3-0.1c0.2,0.4,0.4,0.7,0.7,1.1c0.4,0.7,1,1.3,1.5,1.9c0.5,0.4,1.2,0.6,1.8,0.7
	c1,0.1,1.9-0.4,2.1-1.4c0.3-0.9,0-1.9-0.9-2.4c-0.5-0.3-1-0.5-1.6-0.7c-0.6-0.3-1.3-0.4-1.9-0.7c-1.3-0.5-2.2-1.9-2-3.3
	c0.1-1.4,1.1-2.7,2.5-3.1c1.4-0.4,2.9-0.2,4.2,0.4l1.1-0.6c0.4,1.3,0.4,2.7,0.2,4.1l-0.3,0.1c-0.3-0.5-0.5-0.9-0.7-1.4
	c-0.4-1-1.3-1.7-2.4-2c-0.9-0.3-1.8,0.2-2.2,1c-0.4,0.9,0,1.9,0.8,2.4c0.6,0.3,1.3,0.6,1.9,0.9c0.6,0.3,1.2,0.4,1.7,0.7
	c1.2,0.5,1.9,1.7,1.9,3c0.1,1.4-0.7,2.7-1.9,3.3c-1.2,0.6-2.7,0.8-4,0.4C106.7,86,106.2,85.8,105.7,85.5z M98.5,81
	c-0.4-1.4-1-2.8-1.7-4l-1.5,4H98.5z"/>
<path class="st1" d="M87.9,81.7l-2-0.9l0.1-0.2h5.9l0.1,0.2l-1.5,0.8c-0.1,1.5-0.1,3-0.2,4.8L89,85.5c-1.5,0.3-3,0.6-4.5,0.7
	c-2.6,0.1-4.8-1.7-5.3-4.2c-1.1-3.4,0.9-7,4.3-8.1c1.4-0.4,3-0.4,4.4,0.2l0.6,0.2l1.3-0.6c0.3,1.5,0.4,3.1,0.2,4.7
	c-0.3-0.3-0.6-0.6-0.8-0.9c-0.4-0.7-0.8-1.4-1.3-2c-1.1-1.3-3.1-1.4-4.4-0.3c-0.4,0.3-0.7,0.7-0.8,1.2c-1.1,2.4-1.1,5.1,0.1,7.4
	c0.5,1.4,2,2.1,3.4,1.7c1.1-0.2,1.9-1.2,1.8-2.3C87.9,82.7,87.9,82.3,87.9,81.7z"/>
<path class="st1" d="M51.6,156.4v-14c0.3-0.1,0.7-0.1,1-0.2c1.1,0,2.3,0,3.4,0c3.3,0.1,5.2,1.6,5.8,4.8c0.2,1.4,0.2,2.9,0,4.3
	c-0.4,2.9-2.9,5-5.8,5.1C54.7,156.5,53.3,156.4,51.6,156.4z"/>
<path class="st1" d="M23.1,112.8c1.9-0.2,3.8-0.1,5.7,0.1c3.1,0.7,5.4,3.5,5.3,6.7c0.1,1.6-0.2,3.3-0.8,4.8c-1.4,3.4-5.2,5-8.6,3.6
	c0,0,0,0,0,0c-0.9-0.3-1.6-1.2-1.7-2.2c0-0.6,0-1.1,0-1.7V112.8z"/>
<path class="st1" d="M23.2,111V97.5c2.4-0.2,4.6-0.5,6.8,0.7c1.6,1,2.6,2.7,2.6,4.6c0.1,1.3-0.1,2.7-0.4,4c-0.5,2.2-2.3,3.8-4.5,4.2
	C26.2,111.2,24.7,111.2,23.2,111z"/>
<path class="st1" d="M23.3,142.3c1.5-0.1,3-0.1,4.5,0c2,0.3,3.7,1.7,4.2,3.6c0.8,2.2,0.9,4.5,0.3,6.8c-0.6,2.2-2.3,3.9-4.5,4.4
	c-1.4,0.3-2.9,0.4-4.4,0.3C23.1,156.2,23,144.8,23.3,142.3z"/>
</svg>
