<?xml version="1.0" encoding="utf-8"?>
<!-- Generator: Adobe Illustrator 22.0.1, SVG Export Plug-In . SVG Version: 6.00 Build 0)  -->
<svg version="1.1" id="Layer_1" xmlns="http://www.w3.org/2000/svg" xmlns:xlink="http://www.w3.org/1999/xlink" x="0px" y="0px"
	 viewBox="0 0 250 250" style="enable-background:new 0 0 250 250;" xml:space="preserve">
<style type="text/css">
	.st0{fill:none;}
	.st1{fill:#6400FA;}
</style>
<title>Popular Mechanics</title>
<rect class="st0" width="250" height="250"/>
<path class="st1" d="M100.1,118.7l0.3,1.8c0.8-1.3,2.1-2,3.6-2.1c0.7-0.1,1.4,0.1,2,0.4v4.6h-3.2V122c-0.2,0-0.4,0-0.6,0
	c-0.7,0-1.3,0.3-1.7,0.9v6.5h1.2v2.5h-6.5v-2.5H96v-7.8h-1v-2.8L100.1,118.7z"/>
<path class="st1" d="M18.3,117.1v6.1h1.9c1.1,0.2,2.2-0.6,2.4-1.7c0-0.2,0-0.4,0-0.6v-1.5c0.2-1.1-0.6-2.1-1.7-2.3
	c-0.2,0-0.3,0-0.5,0H18.3z M20.8,114.3c4.1,0,6.3,1.5,6.3,5v1.3c0,3.7-2.4,5.3-6.5,5.3h-2.3v3.4h1.5v2.5h-7.3v-2.5h1.2V117h-1.2
	v-2.8L20.8,114.3z"/>
<path class="st1" d="M36.7,126.8v-3c0-1.9-0.7-2.7-2-2.7s-2.1,0.8-2.1,2.7v3c0,1.9,0.7,2.6,2.1,2.6S36.7,128.6,36.7,126.8
	 M41.2,124.1v2.1c0,4.2-2.6,5.9-6.5,5.9c-3.7,0-6.6-1.7-6.6-5.6v-2.3c0-4.1,2.9-5.8,6.6-5.8C38.5,118.4,41.2,120,41.2,124.1"/>
<path class="st1" d="M51.6,126.4v-2.3c0-2-0.5-2.6-1.7-2.6c-0.9,0.1-1.8,0.5-2.3,1.3v5.6c0.6,0.5,1.3,0.8,2,0.8
	C50.7,129.3,51.5,128.4,51.6,126.4 M47.4,133.4h1.1v2.6h-6.4v-2.5H43v-12h-1v-2.8h5l0.3,2c1-1.4,2.6-2.3,4.4-2.3
	c2.9,0,4.4,1.5,4.4,5.2v3.3c0,3.7-2.2,5.3-5,5.3c-1.3-0.1-2.6-0.6-3.6-1.5L47.4,133.4z"/>
<path class="st1" d="M66.5,129.9c-1.1,1.3-2.7,2.1-4.4,2.2c-2.7,0-4.1-1.3-4.1-4.4v-6.2h-0.8v-2.8h5.3v8.5c0,1.2,0.5,1.7,1.5,1.7
	c1-0.1,1.8-0.6,2.4-1.3v-6.1h-1v-2.8h5.5v10.6h1v2.5h-5L66.5,129.9z"/>
<polygon class="st1" points="78.5,114.3 78.5,129.3 79.3,129.3 79.3,131.8 73.1,131.8 73.1,129.3 74,129.3 74,117.1 72.9,117.1 
	72.9,114.3 "/>
<path class="st1" d="M88.3,128.7v-3l-1.2,0.2c-1.9,0.3-2.3,0.8-2.3,2c0,1,0.3,1.6,1.6,1.6C87.1,129.4,87.8,129.2,88.3,128.7
	 M92.8,122.9v6.4h1v2.5h-5l-0.3-1.4c-1,1.1-2.3,1.7-3.8,1.7c-2.6,0-4.1-1.4-4.1-3.8V128c0-2.7,1.8-3.5,6.3-4.3l1.4-0.2v-0.6
	c0-1.3-0.5-1.8-2.1-1.8c-0.5,0-1,0.1-1.5,0.3v1.4h-3.4v-3.1c1.8-0.8,3.7-1.2,5.6-1.2C91.3,118.4,92.8,120,92.8,122.9"/>
<path class="st1" d="M231.7,118.3c1.7-0.1,3.4,0.2,5,0.8v3.3h-3.2v-1.3c-0.6-0.3-1.2-0.4-1.8-0.3c-1.4,0-1.7,0.4-1.7,1.2
	s0.4,1,1.6,1.2l1.1,0.2c3.7,0.6,4.8,1.3,4.8,4.3c0,3-1.9,4.5-5.8,4.5c-1.8,0-3.6-0.3-5.2-1.1v-3.3h3.3v1.5c0.6,0.2,1.3,0.3,1.9,0.2
	c1.3,0,2-0.3,2-1.2s-0.3-0.9-1.9-1.1l-1.1-0.2c-3.3-0.5-4.4-1.5-4.4-4.3C226.3,119.3,228.6,118.4,231.7,118.3"/>
<path class="st1" d="M212.9,124.2c0-4.2,2.9-5.8,6.4-5.8c1.9-0.1,3.7,0.3,5.4,1.3v3.8h-3.4v-2c-0.5-0.3-1.1-0.4-1.6-0.3
	c-1.8,0-2.2,1.1-2.2,3v2.1c0,2.3,0.6,3.2,2.1,3.2c0.6,0,1.2-0.1,1.8-0.3v-1.5h3.4v3.4c-1.7,0.8-3.6,1.2-5.4,1.1
	c-4,0-6.4-1.9-6.4-5.9L212.9,124.2z"/>
<path class="st1" d="M183,128.7v-3l-1.2,0.2c-1.9,0.3-2.2,0.8-2.2,2c0,1,0.3,1.6,1.6,1.6C181.8,129.4,182.5,129.2,183,128.7
	 M187.5,122.9v6.4h1.1v2.5h-5l-0.4-1.4c-1,1.1-2.3,1.7-3.8,1.6c-2.5,0-4.1-1.4-4.1-3.8V128c0-2.7,1.8-3.5,6.3-4.3l1.4-0.3v-0.6
	c0-1.3-0.5-1.8-2.1-1.8c-0.5,0-1,0.1-1.5,0.2v1.4H176v-3.2c1.8-0.8,3.7-1.2,5.6-1.2C185.9,118.4,187.5,120,187.5,122.9"/>
<polygon class="st1" points="131.4,114.3 131.4,117.1 130.2,117.1 130.2,129.3 131.4,129.3 131.4,131.8 124.2,131.8 124.2,129.3 
	125.6,129.3 125.6,119.9 122.6,128.3 120.2,128.3 117,119.9 117,129.3 118.3,129.3 118.3,131.8 112.4,131.8 112.4,129.3 
	113.6,129.3 113.6,117.1 112.4,117.1 112.4,114.3 119,114.3 121.8,122.2 124.8,114.3 "/>
<path class="st1" d="M136.8,123.9h3.9v-0.6c0-1.8-0.6-2.3-1.9-2.3s-2,0.6-2,2.4L136.8,123.9z M144.7,123.6v2.6h-7.9v0.4
	c0,2.1,0.8,2.8,2.6,2.8c0.7,0,1.3-0.1,1.9-0.3v-1.4h3.4v3c-1.6,1-3.5,1.5-5.4,1.4c-4.4,0-6.9-1.8-6.9-5.8v-2.2c0-3.4,2-5.8,6.4-5.8
	S144.7,120,144.7,123.6"/>
<path class="st1" d="M146.4,124.2c0-4.2,2.9-5.8,6.4-5.8c1.9-0.1,3.7,0.4,5.4,1.3v3.8h-3.4v-2c-0.5-0.3-1.1-0.4-1.6-0.3
	c-1.8,0-2.2,1.1-2.2,3v2.1c0,2.3,0.6,3.2,2.1,3.2c0.6,0,1.2-0.1,1.8-0.3v-1.5h3.4v3.1c-1.6,0.9-3.5,1.4-5.4,1.3
	c-4,0-6.4-1.9-6.4-5.9V124.2z"/>
<path class="st1" d="M165.1,114.3v6.3c1-1.4,2.6-2.2,4.3-2.2c2.5,0,3.9,1.2,3.9,4.3v6.7h0.8v2.5h-6.4v-2.5h1.2v-6
	c0-1.2-0.4-1.6-1.3-1.6c-1,0.1-1.9,0.5-2.5,1.3v6.3h1.2v2.5h-6.5v-2.5h0.9V117h-1v-2.8L165.1,114.3z"/>
<path class="st1" d="M194.7,118.7l0.4,2c1.1-1.4,2.7-2.2,4.4-2.3c2.5,0,3.9,1.2,3.9,4.3v6.6h0.8v2.5h-6.4v-2.5h1.2v-6
	c0-1.2-0.4-1.6-1.3-1.6c-1,0.1-1.9,0.5-2.5,1.3v6.3h1.2v2.5h-6.5v-2.5h0.9v-7.7h-1v-2.8L194.7,118.7z"/>
<polygon class="st1" points="210.8,118.7 210.8,129.3 211.8,129.3 211.8,131.8 205.5,131.8 205.5,129.3 206.4,129.3 206.4,121.5 
	205.3,121.5 205.3,118.7 "/>
<rect x="206.6" y="114" class="st1" width="4.2" height="3.8"/>
</svg>
