<?xml version="1.0" encoding="utf-8"?>
<!-- Generator: Adobe Illustrator 22.0.1, SVG Export Plug-In . SVG Version: 6.00 Build 0)  -->
<svg version="1.1" id="Layer_1" xmlns="http://www.w3.org/2000/svg" xmlns:xlink="http://www.w3.org/1999/xlink" x="0px" y="0px"
	 viewBox="0 0 250 250" style="enable-background:new 0 0 250 250;" xml:space="preserve">
<style type="text/css">
	.st0{fill:none;}
	.st1{fill:#6400FA;}
</style>
<title>Tech Bullion</title>
<rect class="st0" width="250" height="250"/>
<path class="st1" d="M41.9,90.3c1.4,0.2,2.8,0.3,4.1,0.6c9.3,1.6,17.4,7,22.6,14.8c3.3,4.8,5.3,10.4,5.8,16.3
	c1,10.6-2.9,21-10.8,28.3c-5.5,5.3-12.5,8.6-20.1,9.3l-1.7,0.2h-4.2l-1.8-0.2c-7.1-0.8-13.8-3.7-19.1-8.5C10.9,146,7,139,5.6,131.4
	c-0.3-1.4-0.4-2.9-0.6-4.3v-4c0.1-0.9,0.2-1.8,0.3-2.7C7.4,105.6,18.7,93.7,33.4,91c1.4-0.3,2.8-0.4,4.3-0.6L41.9,90.3z M34.4,112.3
	v34.4c3.6,0.8,7.3,0.8,10.8,0v-34.3h10.2c0.7-3.1,0.7-6.3,0-9.5H24.1c-0.7,3.1-0.7,6.4,0,9.5L34.4,112.3z"/>
<path class="st1" d="M245,137.1h-4v-0.9c0-1.9,0-3.9,0-5.8c0-0.7-0.1-1.4-0.4-2c-0.5-1.3-1.7-2.2-3.1-2.2c-1.4,0.1-2.7,1.1-3.1,2.5
	c-0.1,0.6-0.2,1.1-0.2,1.7c0,1.9,0,3.9,0,5.8v0.8h-4.1v-14.1h3.3l0.7,1.1c2.7-2.4,6.8-2.1,9.2,0.6c0.8,0.9,1.3,2,1.5,3.2l0.3,1
	L245,137.1z"/>
<path class="st1" d="M162.8,136.9V133h1.6c1.5,0,2.7-1.2,2.7-2.7s-1.2-2.7-2.7-2.7c-2.2,0-4.4,0-6.6,0h-0.9V114h6.1
	c3.7-0.1,6.8,2.9,6.8,6.6c0,1.3-0.3,2.5-1,3.6l-0.1,0.3c2.8,2.7,3.6,5.8,1.6,9.2C168.8,136.3,165.8,137.5,162.8,136.9z M161.1,117.9
	v5.2c0.8,0,1.7-0.1,2.5-0.2c1.4-0.4,2.2-1.8,1.8-3.1c-0.3-1-1.2-1.8-2.2-1.9C162.5,117.9,161.8,117.9,161.1,117.9L161.1,117.9z"/>
<path class="st1" d="M137.8,112.6h4.4v11c0.7-0.3,1.5-0.6,2.3-0.9c3.9-1.1,8,1.2,9.1,5.1c0.1,0.5,0.2,1,0.3,1.5c0.2,2.6,0,5.1,0,7.8
	h-4.3v-0.8c0-1.9,0-3.9,0-5.9c0.1-1.4-0.6-2.8-1.7-3.6c-1.1-0.8-2.5-0.8-3.6-0.2c-1.2,0.6-2,1.9-2,3.2c0,2.1,0,4.2,0,6.3v0.9h-4.4
	L137.8,112.6z"/>
<path class="st1" d="M93.6,137v-18.3h-6.3v-4.6h17.3v4.5h-6.3V137H93.6z"/>
<path class="st1" d="M120,131.3h-10.4c0.5,2.4,3,3,5.7,1.5l3,2c-1,1.8-4.9,3.8-8.6,2.1c-3.8-1.6-5.6-6-4-9.9c1.6-3.8,6-5.6,9.9-4
	C118.8,124.3,120.7,127.8,120,131.3z M109.6,128.7h6c0.2,0,0.3,0,0.5,0c-0.3-1.5-1.7-2.6-3.3-2.6
	C111.2,126.1,109.9,127.2,109.6,128.7L109.6,128.7z"/>
<path class="st1" d="M219.9,137.4c-3.7,0.1-7-2.5-7.8-6.2c-0.7-4.1,2.1-8,6.3-8.7h0.1c3.4-0.6,6.8,1,8.4,4c1.9,3.7,0.4,8.2-3.3,10.1
	c-1,0.5-2.1,0.8-3.1,0.8L219.9,137.4z M223.5,130c0.1-2-1.5-3.8-3.5-3.9c-2.1,0-3.8,1.8-3.8,3.9c0,2,1.6,3.6,3.6,3.8
	C221.8,133.8,223.5,132.1,223.5,130C223.5,130.1,223.5,130,223.5,130L223.5,130z"/>
<path class="st1" d="M174.3,122.9h4.2c0,0.3,0,0.6,0,0.8v5.9c-0.1,1.1,0.3,2.2,1.1,2.9c0.8,0.9,2.1,1.1,3.2,0.6
	c1.3-0.5,2.1-1.8,2.1-3.1c0.1-2.1,0-4.2,0-6.2v-0.9h4.3c-0.1,3,0.3,5.9-0.3,8.8c-0.8,3.4-3.9,5.8-7.5,5.8c-3.4-0.2-6.3-2.7-7-6
	c-0.1-0.5-0.1-1.1-0.1-1.6c0-2.1,0-4.3,0-6.4C174.3,123.2,174.3,123.1,174.3,122.9z"/>
<path class="st1" d="M191.9,137v-24.4h4.1V137H191.9z"/>
<path class="st1" d="M202.8,137h-4.1v-24.4h4.1V137z"/>
<path class="st1" d="M133.3,132.7l1.8,3.2c-3.1,2.3-7.4,2-10.2-0.7c-2.9-2.7-3.1-7.2-0.5-10.1c2.8-3.1,7.8-3.7,10.8-1.1l-1.9,3.3
	c-1-0.9-2.3-1.3-3.6-1c-1,0.2-1.8,0.7-2.4,1.5c-1,1.4-0.9,3.3,0.2,4.6C129,134,131.1,134.1,133.3,132.7z"/>
<path class="st1" d="M209.7,137h-4.2v-14.1h4.2V137z"/>
<path class="st1" d="M209.7,118.6h-4.2V114h4.2V118.6z"/>
</svg>
