<?xml version="1.0" encoding="utf-8"?>
<!-- Generator: Adobe Illustrator 22.0.1, SVG Export Plug-In . SVG Version: 6.00 Build 0)  -->
<svg version="1.1" id="Layer_1" xmlns="http://www.w3.org/2000/svg" xmlns:xlink="http://www.w3.org/1999/xlink" x="0px" y="0px"
	 viewBox="0 0 250 250" style="enable-background:new 0 0 250 250;" xml:space="preserve">
<style type="text/css">
	.st0{fill:none;}
	.st1{fill:#6400FA;}
</style>
<title>TechAeris</title>
<rect class="st0" width="250" height="250"/>
<path class="st1" d="M46.2,121.8h12.2v-5H46.2V99.6h15v-5.1H40.5v50.2h20.7v-5.1h-15L46.2,121.8z"/>
<path class="st1" d="M88.5,111.1c0-1,0-2,0-3c0-0.1-0.1-0.3-0.1-0.4c-1.7-1-3.2-2.4-4.2-4.1c1.3,1,2.8,1.8,4.3,2.4l0.1-0.1l-0.4-0.3
	c-2.5-1.7-4.6-3.9-6-6.5c-0.7-1.4-1.2-2.9-1.5-4.4c0-0.1-0.1-0.3-0.1-0.4h-0.3c-1.9-0.4-3.9-0.4-5.8-0.1c-3.4,0.5-6.2,2.8-7.4,6
	c-0.8,2-1.1,4.1-1.1,6.3c0,8.7,0,17.4,0,26.1c0,1.8,0.2,3.6,0.8,5.3c0.9,3.4,3.7,6.1,7.2,6.9c2.4,0.6,4.8,0.5,7.2-0.1
	c2.6-0.7,4.8-2.4,6-4.9c0.9-1.9,1.5-4,1.5-6.1c0-2.4,0-4.7,0-7.1c0-0.1,0-0.2,0-0.3h-5.3v0.6c0,2,0,4.1,0,6.1c0,0.9-0.1,1.8-0.3,2.6
	c-0.3,2.1-1.9,3.8-4,4.2c-0.8,0.1-1.6,0.2-2.3,0.1c-2.1-0.1-4-1.5-4.6-3.6c-0.4-1.1-0.6-2.4-0.6-3.6c0-8.9,0-17.8,0-26.7
	c0-1,0.1-1.9,0.3-2.9c0.3-1.8,1.5-3.2,3.2-3.9c1-0.4,2-0.5,3-0.4c2.1,0,4,1.4,4.6,3.4c0.3,0.8,0.5,1.7,0.5,2.6
	c0.1,1.8,0.1,3.6,0.1,5.5v0.6H88.5z"/>
<path class="st1" d="M12.5,99.6h9.3v45.1h5.6V99.6h9.2v-5.1H12.5V99.6z"/>
<path class="st1" d="M233.7,123.3c-1.5-1.5-3.1-2.8-4.8-4.1c-1.7-1.3-3.4-2.6-5.1-4c-1.5-1.2-2.7-2.7-3.5-4.4
	c-1.4-3.2-1.4-6.9,0.1-10.2c0.7-1.7,2.2-2.9,4-3.3c1-0.3,2.1-0.3,3.1-0.3c2.6,0.1,4.8,1.7,5.8,4.1c0.6,1.5,0.9,3,0.9,4.6
	c0,0.6,0,1.2,0,1.9h3.1c0-1,0-1.9,0-2.8c-0.1-1.6-0.4-3.2-1-4.7c-1-2.8-3.3-4.9-6.1-5.7c-1.8-0.5-3.7-0.6-5.6-0.3
	c-3.3,0.4-6.2,2.5-7.4,5.6c-0.7,1.8-1.1,3.7-1.2,5.6c-0.3,3.9,1,7.8,3.8,10.6c1.5,1.5,3.1,2.9,4.8,4.1c1.8,1.3,3.5,2.6,5.2,4
	c1.6,1.2,2.8,2.9,3.6,4.7c1.3,3.1,1.1,6.6-0.3,9.7c-0.8,1.8-2.4,3-4.3,3.4c-1.4,0.3-2.8,0.3-4.2,0c-2-0.4-3.7-1.7-4.5-3.5
	c-0.4-0.9-0.7-1.8-0.9-2.8c-0.2-1.6-0.3-3.2-0.2-4.8V130h-3.1c0,1,0,2,0,3c0,2.1,0.4,4.2,1.1,6.1c1,2.7,3.3,4.8,6.1,5.5
	c1.9,0.5,4,0.6,5.9,0.3c3.3-0.4,6.2-2.6,7.4-5.8c0.8-2,1.1-4.1,1.1-6.2C237.6,129.4,236.3,125.9,233.7,123.3z"/>
<path class="st1" d="M200.7,139.3c0-3.1,0-6.1,0-9.2c0-1.3-0.2-2.6-0.6-3.8c-0.9-2.8-3.3-4.9-6.2-5.5h-0.2v-0.1h0.2
	c1.5-0.4,3-1.1,4.1-2.2c1.5-1.5,2.4-3.4,2.5-5.5c0.2-1.8,0.2-3.6,0.2-5.3c0-1.5-0.1-3-0.2-4.4c-0.1-1.7-0.7-3.3-1.6-4.6
	c-1.9-2.8-4.7-3.8-8-3.9l-0.2,1.1l-0.5,1.7c0.1,0.1,0.3,0.1,0.5,0.2c0.9,0.1,1.7,0.3,2.6,0.5c1.9,0.7,3.4,2.4,3.7,4.4
	c0.3,1,0.4,2.1,0.4,3.2c0,2.3,0,4.6-0.1,6.8c0,1.4-0.5,2.8-1.3,3.9c-1,1.4-2.6,2.3-4.4,2.5c-0.9,0.2-1.9,0.2-2.8,0.3
	c-1.9,0-3.9,0-5.8,0h-0.3v-11.2l-0.3,0.1l-2.7,1.7l-0.3,0.3v34.7h3.3v-22.4h0.3c1.9,0,3.9,0,5.8,0c1.1,0,2.2,0.2,3.3,0.4
	c2.4,0.4,4.2,2.2,4.8,4.6c0.3,1,0.4,2.1,0.4,3.2c0.1,2.7,0,5.4,0,8c0,1.3,0.1,2.7,0.3,4c0.1,0.8,0.4,1.6,0.8,2.3h3.4
	c-0.3-0.7-0.5-1.3-0.7-2C200.8,141.6,200.7,140.5,200.7,139.3z"/>
<path class="st1" d="M128,133.3c0.1,0.1,0.3,0.3,0.5,0.4c0.2,0,0.4,0,0.6,0h13.8c0.2,0,0.4,0,0.7-0.1c0.8-0.9,1.5-1.7,2.3-2.6
	c0.2-0.2,0.3-0.4,0.3-0.7c-0.3-1.3-0.6-2.5-0.9-3.8l-6.5-29.4c-0.2-0.9-0.4-1.8-0.6-2.8h-4.8c0,0.1-0.1,0.3-0.1,0.4
	c-0.6,2.7-1.2,5.3-1.8,8.1c-1.6,7.2-3.1,14.4-4.7,21.6c-0.4,1.8-0.8,3.7-1.2,5.5v0.5l1.1,1.1C126.9,132.2,127.4,132.8,128,133.3z
	 M135.5,98.5h0.1l7.3,32.3h-14.7C130.7,120,133.1,109.3,135.5,98.5L135.5,98.5z"/>
<path class="st1" d="M109.7,121.8l-5.3-4.1c-0.2-0.1-0.4-0.3-0.6-0.4h-3.4h-1.1l-0.1-3.4c-1-0.5-1.9-1-2.8-1.4s-1.8-1-2.7-1.4v33.9
	h5.6v-22.6h10.1h0.6C109.9,122,109.8,121.9,109.7,121.8z"/>
<path class="st1" d="M207.2,144.8h3.2V94.5h-3.2V144.8z"/>
<path class="st1" d="M111.2,119.3l-0.2,0.3c-0.1,0-0.1,0-0.2-0.1c-1.5-0.8-3-1.5-4.6-2.3c-0.3-0.2-0.7-0.2-1,0c2.2,1,4.4,2,6.5,3.1
	c1.8,0.9,3.5,1.9,5.2,2.9l0.3,0.1V95.1c0-0.2,0-0.4-0.1-0.7l-5.5,0.1v22.6h-3.7l0.1,0.2L111.2,119.3z"/>
<path class="st1" d="M157.1,122l0.4-0.3l0.1-0.8l2-0.2l3.7-1.9c0.5-0.3,1.1-0.5,1.7-0.8l0.3-0.2h-0.9l-3.8,1.9l-0.2-0.3l2.3-1.4
	c-0.2,0-0.3-0.1-0.5-0.1H158c-0.2,0-0.3,0-0.5,0V97.5H174v-3.1h-19.7c0,0.2-0.1,0.4-0.1,0.6c0,9.4,0,18.7,0,28.1v0.5L157.1,122z"/>
<polygon class="st1" points="122.6,128.1 122.6,128.1 122.6,128.1 "/>
<path class="st1" d="M157.6,125.6l-1.5,1.3l-1.8,1.7v15.6c0,0.2,0,0.4,0.1,0.6H174v-3.1h-16.4V125.6z"/>
<path class="st1" d="M117.2,128.5c-1.8-1.8-3.6-3.5-5.6-5.1v21.4h5.6V128.5z"/>
<path class="st1" d="M95.6,107.9l3.2,2.9l0.3,0.2V94.5h-5.6v11.3c0.4,0.4,0.8,0.9,1.2,1.3L95.6,107.9z"/>
<path class="st1" d="M94.8,111.3L94.8,111.3l3.8,2l0.6,0.3l2.5,1.2c0,0,0.1,0,0.1,0l0.2,0.1l2.5,1.2l0,0l0,0l0,0l0.1,0.1l1.3,0.7
	l3.9,1.9l0.6,0.3l0.1-0.1l-0.5-0.2l-2.2-1.4l-2.9-1.8l-0.1-0.1l0,0l-2.6-1.8l-0.1-0.1c0,0,0,0-0.1,0l-0.1-0.1l-0.1,0.3l0.1-0.3l0,0
	l-2.5-1.9l-0.1-0.1l0,0l-0.1-0.1c0,0-0.1,0-0.1,0l-0.1-0.1l-0.1-0.1l0,0l-0.2-0.2l-2.5-2.1l-0.5-0.4l-0.1-0.1l-0.1-0.1l-0.1-0.2
	l-0.8-0.8l-3.7-4.3l-0.1-0.1l0,0l-0.1-0.2l0,0l-0.1-0.1l0,0l-0.1-0.2l0,0l-0.1-0.1l0,0l-0.1-0.2c0,0,0,0,0-0.1l-0.1-0.1l0,0
	l-0.1-0.2l0,0l-0.1-0.1c0,0,0-0.1,0-0.1l-1-1.8L89,99.5l0,0l-0.1-0.2l0,0L88.7,99l0,0l-0.1-0.2c0,0,0-0.1,0-0.1l-0.1-0.1
	c0,0,0-0.1,0-0.1l-0.1-0.1c0,0,0-0.1,0-0.1L88.3,98l0,0l-0.1-0.2c0,0,0-0.1,0-0.1l-0.1-0.1c0,0,0-0.1,0-0.1c0-0.1-0.1-0.2-0.1-0.3
	c-1-2.5-1.4-5.1-1.5-7.7v-2.5c-0.1,0.1-0.1,0.1-0.2,0.2c-0.1,0.1-0.2,0.2-0.2,0.4c-1,2.1-1.3,4.5-0.9,6.8c0.1,1,0.3,1.9,0.5,2.9
	c0.3,0.8,0.6,1.6,0.9,2.3c0.3,0.6,0.6,1.1,0.9,1.6l0.1,0.1l0.1,0.1l0.1,0.1l0.5,0.7H88l-0.6-0.3l-1.6-1.3l-0.1-0.1l0,0l-1.9-2.1l0,0
	L83.8,98l-1.1-1.8l-0.1-0.1l-0.1-0.2l-0.1-0.2c-0.9-1.5-1.3-3.1-1.3-4.8H81l-0.2,1.9c0,0.7,0.1,1.3,0.1,2c0.1,1.1,0.5,2.2,1,3.3
	c0,0,0,0.1,0,0.1l0.1,0.2l1.3,2.3c0.6,0.9,1.3,1.8,2.1,2.5l1.1,1.1l0.1,0.1c0,0,0-0.1,0-0.1c0,0,0,0.1,0,0.1l0.2,0.2l2,1.4H89
	l0.3,0.2l1,0.6v0.1l-0.9-0.1c-1.2-0.6-2.4-1.1-3.6-1.7c-0.3-0.2-0.7-0.4-1-0.7l-0.1,0.1c0.4,0.4,0.8,0.8,1.2,1.2
	c0.8,0.7,1.7,1.3,2.5,2l0.4,0.2l0,0l0.2,0.1l0,0c0.7,0.4,1.4,0.9,2.1,1.3C92.4,110,93.7,110.6,94.8,111.3z"/>
<path class="st1" d="M145,140.8l0.9,4h3.3l-1.8-7.9l-0.2,0.2l-2,3.1L145,140.8z"/>
<path class="st1" d="M179.6,109.7h0.1c0,0,0-0.1,0-0.1c0,0,0,0,0.1,0l0.1-0.1c0,0,0.1,0,0.1,0l0.1-0.1l2.2-1.3l0.4-0.3
	c1.5-0.9,2.9-2,4-3.4l-2.8,1.5l-0.2,0.1c0,0-0.1,0-0.1,0l-0.1,0.1c0,0-0.1,0-0.1,0l-1,0.4l-1.1,0.2v-0.1l1.4-0.8c0,0,0.1,0,0.1,0
	l0.1-0.1h0.1c0,0,0-0.1,0-0.1c0,0,0,0,0.1,0l0.1-0.1h0.1c0,0,0,0,0.1,0l0.1-0.1l0,0l0.1-0.1l1.9-1.6h0.1l1.1-1.1l1.7-2.2l0,0
	l0.1-0.1c0,0,0,0,0-0.1l0.1-0.1l0,0l0.1-0.2l1.4-2.7l0.5-1.7l0.2-1.6c0-0.8-0.1-1.6-0.1-2.3l-0.2-0.4c0,1.2-0.3,2.4-0.8,3.4
	c-0.4,1.1-1,2.1-1.8,3l-0.2,0.3l0,0l-0.1,0.1l0,0l-0.3,0.3h0.1h-0.1l-0.1,0.1l0,0l-2.4,2.5l0,0l-1.3,1l0,0l-0.1-0.1l0,0l0.1-0.1l0,0
	l0.2-0.2l-0.3,0.2l0.3-0.2l0.1-0.1c0-0.1-0.1-0.2,0-0.2s0,0.1,0,0.2l0.2-0.3l0.1-0.2c0.6-0.8,1-1.6,1.3-2.6l0,0l0.1-0.3l0,0l0.1-0.3
	l0,0l0.1-0.2v-0.2l0.1-0.3l0,0V97l0.1-0.1v-0.3l0.1-0.3v-0.2h0.1v-0.3v-0.2l0.1-0.4v-0.3l0.1-0.5V94v-3c0-1.5-0.5-2.9-1.4-4.1
	c0,0.5,0,1,0,1.4c0,1.2-0.1,2.3-0.1,3.5l-0.1,0.8l0,0l-0.1,0.6l0.1,0.2l-0.1-0.2c0,0,0,0.1,0,0.1l-0.3,1.4l-1,3.1l-0.1,0.3l0,0
	l-0.1,0.2l0,0l-0.1,0.2l0,0l0,0l-0.1,0.3l-0.1,0.1l-0.2,0.6c0.1,0,0.1-0.1,0.2-0.2c-0.1,0.1-0.1,0.1-0.2,0.2l-0.2,0.4l-0.1,0.2l0,0
	l0,0l0,0l-0.1,0.2l0,0l-0.1,0.1v0.1l-0.1,0.1c0,0,0,0.1,0,0.1l-2,3c-0.1,0.2-0.3,0.3-0.4,0.5l-0.4,0.5l-0.1,0.2l-0.1,0.1
	c0.1,0,0.1,0.1,0.1,0.1c0,0.1,0.1,0.1,0.1,0.2c0-0.1,0-0.2-0.1-0.2c0-0.1-0.1-0.1-0.1-0.1l0,0l-3.8,4l-0.4,0.4l-0.1,0.1
	c-0.8,0.7-1.5,1.3-2.3,1.9c-1,0.8-2,1.6-3.1,2.4l-4.2,2.9l-2.1,1.3l-1.2,0.8v0.1l2.6-1.2l0.9-0.5l0,0l0.2-0.1l4.1-2l0,0l0.2-0.1
	c1.1-0.6,2.2-1.1,3.3-1.6c0.9-0.4,1.7-0.9,2.5-1.4c-0.1,0-0.2-0.1-0.2-0.2c0.1,0.1,0.1,0.1,0.2,0.2c0,0,0.1,0,0.1,0l0.1-0.1l3.6-2
	c0,0,0.1,0,0.1,0L179.6,109.7z M187.7,98.3L187.7,98.3z M183.3,102.1L183.3,102.1l-0.1,0.1L183.3,102.1z"/>
<path class="st1" d="M126.3,140.3c0-0.2,0-0.3-0.1-0.5l-1.9-2.9l-0.2-0.3l-0.1,0.1l-1.8,8.1h3C125.6,143.3,125.9,141.8,126.3,140.3z
	"/>
<path class="st1" d="M163.3,120.6c0,0.3,0.2,0.2,0.3,0.2h7.3c0.1,0,0.2,0,0.3-0.1v-3h-4.1L163.3,120.6z"/>
<polygon class="st1" points="156.6,126.1 156.6,126.1 156.6,126.1 "/>
<path class="st1" d="M150.7,149.4C150.7,149.4,150.7,149.4,150.7,149.4l-0.4-0.1h-0.2l-0.3-0.1h-0.2l-3.5-1.3l-0.1-0.1
	c0,0-0.1,0-0.1,0l-0.1-0.1l0,0l-0.2-0.1l0,0l-0.1-0.1c0,0-0.1,0-0.1,0l-0.1-0.1l-0.1-0.1c0,0-0.1,0-0.1,0l-1.8-1.9l-0.9,1.3
	l-0.2,0.5H142l0,0v-0.2l0.2-0.5c0.2-0.6,0.4-1.3,0.7-1.9c0.6-1.4,1.3-2.8,2-4.2l0,0l0.1-0.1c0,0,0-0.1,0-0.1l0.1-0.1l0,0
	c0,0,0-0.1,0-0.1l0.1-0.1l0.1-0.2l0.1-0.1c0,0,0-0.1,0-0.1l0.1-0.1l0,0l0.1-0.2l0,0l0.1-0.1c0,0,0-0.1,0-0.1l0.1-0.1l0,0l0.1-0.1
	c0,0,0-0.1,0-0.1l0.1-0.1c0,0,0-0.1,0-0.1l0.1-0.1l0,0l0.1-0.1c0,0,0-0.1,0-0.1l0.1-0.1l0.1-0.1l0.6-0.8c0.1-0.2,0.2-0.3,0.3-0.5
	l2.2-3l0,0l0.1-0.1c0,0,0,0,0-0.1l0.1-0.1l0.1-0.1l0,0l0.1-0.1l0,0l0.1-0.1l0,0l0.1-0.1l0.2-0.2l0.1-0.1l0.1-0.1l0,0l0.1-0.1l0,0
	l0.1-0.1l0,0l0.1-0.1l0.2-0.2l0.1-0.1l0.1-0.1c0.1-0.1,0.3-0.3,0.4-0.4c0.8-0.8,1.5-1.6,2.2-2.4l0.8-0.9l1.1-1l0,0l0.1-0.1l0,0
	l0.1-0.1l0,0l0.1-0.1l0,0l0.1-0.1l0,0l0.1-0.1l0,0l0.1-0.1l0.1-0.1l3.4-3l0,0l0.5-0.4l2.6-2.1l3.8-2.9l1.1-0.8l0,0l0.5-0.3l-0.1-0.1
	l-0.6,0.3l0.1,0.1l-0.1-0.1l-2.9,1.4l-2.6,1.3l-2.8,1.4l-0.6,0.3l-0.2,0.1l0,0l-0.2,0.1l0,0l-0.2,0.1l0,0l0,0l0,0l-0.1,0.1l0,0
	l-0.3,0.2l0,0l-0.9,0.4l-2.5,1.6l0,0l-0.4,0.2c-0.4,0.3-0.9,0.6-1.4,1c-1.4,1.2-2.8,2.3-4.1,3.5l0,0c-0.1,0.1-0.2,0.1-0.3,0.2
	L146,131c-0.6,0.6-1.2,1.3-1.7,1.9c-0.2,0.2-0.3,0.4-0.5,0.6l0,0l-0.1,0.1l-0.3,0.2l-0.1,0.2l-0.4,0.4c-0.7,0.7-1.5,1.1-2.4,1.4
	l-0.2,0.1l0.2-0.1l-1.3-0.1l0,0l-1.9-0.3c-0.7,0-1.3-0.1-2-0.1c-0.4,0-0.8,0.1-1.2,0.1l0,0c-0.8,0.1-1.5,0.2-2.2,0.4
	c-0.9,0.2-1.9-0.1-2.6-0.7c-0.1-0.1-0.3-0.2-0.4-0.4c-0.4-0.4-0.8-0.7-1.1-1.1c-0.9-1-1.8-2-2.7-3l-0.4-0.4l-1.4-1.9l-0.1-0.1
	l-0.1-0.1l0,0l-0.1-0.1l-0.1-0.1l0,0c-0.2-0.2-0.4-0.4-0.7-0.7c-1.6-1.2-3.1-2.5-4.7-3.7l-0.3-0.1l-3.4-2l-3.3-1.7v0.2
	c0,0.1,0,0.2,0,0.3s0,0.2,0,0.3c0-0.1,0-0.2,0-0.3s0-0.2,0-0.3v-0.2l-2-1l-0.2-0.1l0,0l-0.2-0.1h-0.1c-0.2-0.1-0.4-0.2-0.6-0.3l-2-1
	l-1.6-0.7v0.1l0.5,0.4l3.3,2.4l2.2,1.8l0.2,0.2l0.2,0.2l1,0.9l2,1.7l2.6,2.3l4,4.1l0.4,0.5l0.6,0.6l0.2,0.2l0.3,0.3l0.5,0.6l0.3,0.3
	l2.7,3.6l1.9,2.9c0.7,1.4,1.6,2.8,2.1,4.3c0.8,2.2,1.5,4.4,2.2,6.6c0.5,0.7,0.8,1.4,1,2.1c0.1,0.4,0.2,0.7,0.2,1.1
	c0.1,0.7-0.1,1.3-0.4,1.9c-0.2,0.4-0.6,0.5-0.9,0.7c-1.5,0.6-1.4,2.1-0.9,3.3c0.1,0.2,0.4,0.4,0.6,0.6l-0.1-1.5l1.1-1.1l0.1,0.1
	c-0.2,0.6-0.1,1.2,0.1,1.7c0.3,0.6,0.3,1.2,1,1.6c-0.3-0.8-0.2-1.6,0.3-2.3c-0.1-0.5-0.1-1,0-1.5c0.4,0.5,0.2,1.3,0.9,1.4
	c0.2,0.8,0.1,1-0.5,1.4c0.5,0.1,1.1-0.2,1.2-0.7c0,0,0-0.1,0-0.1c0.2-0.6,0.1-1.2-0.2-1.7c-0.3-0.4-0.5-0.9-0.7-1.3
	c-0.1-0.2-0.2-0.4-0.2-0.7c0-1,0.1-2,0.2-3l0.8,0.6l-0.1-2.6l0.2,0.1l0.2,0.1l-0.6-2.1l0.2,0.1l0,0l0.8,2.4l-0.6,0.1l0.2,2.4
	l-0.9-0.3v1.2h3.3l-0.6-3.7h-0.7l0.7-2.1c0.1,0.7-0.1,1.4-0.4,2l0.7-0.2c0,0.1,0.1,0.2,0.1,0.3c0.1,1.3,0.3,2.6,0.7,3.9
	c0,0,0,0.1,0,0.1c-0.1,0.8-0.2,1.6-0.3,2.3s-0.5,1.5-1.5,1.6c-0.1,0-0.2,0.1-0.3,0.1c-0.7,0.3-1.1,0.9-1.1,1.7c0,0.1,0,0.3-0.1,0.4
	c-0.1,0.6,0.2,1.2,0.7,1.4c-0.2-0.5-0.1-1,0.1-1.5l1.1-0.9c-0.3,1.2-0.1,2.5,0.7,3.4c-0.1-0.7,0.1-1.5,0.6-2.1l0.1-1.5
	c0.5,0.4,0.2,1.2,0.9,1.5c0,0.5,0.2,1-0.2,1.4h0.4l0.1-0.1l0,0l0.2-0.2c0-0.3,0.1-0.6,0.2-0.9c0.2-0.4,0.2-0.8,0-1.2
	c-0.2-0.4-0.4-0.9-0.6-1.3c-0.2-0.4-0.3-0.8-0.2-1.2c0-0.5,0.1-1,0.2-1.5c0.1-0.5,0.3-0.9,0.5-1.5l0.3,0.6c0.1-0.2,0.1-0.5,0.1-0.8
	c0.1-1.1,0.2-2.1,0.5-3.1c0.1-0.2,0.1-0.5,0.1-0.8l0,0v-0.2l0.1-0.2v-0.3l0.2-0.3v0.2v0.5l-0.1,0.7v0.2l-0.1,0.8l0,0l-0.1,0.7l0,0
	l-0.1,0.8c0,0.2-0.1,0.4-0.1,0.6c0,0.1,0.1,0.3,0.2,0.4l1.4-0.2h0.2l0.5-0.1c1.6-0.2,3.3-0.6,4.9-1c-0.6-0.3-1.1-0.7-1.7-1.1
	c-0.6-0.6-1.1-1.2-1.6-1.9l0,0l0.3,0.2c1.1,0.9,2.3,1.6,3.6,2c0.6,0.3,1.2,0.3,1.8,0c0,0,0.1,0,0.1,0l0.3-0.2c0,0,0.1,0,0.1,0
	l0.2-0.1h0.1l0.1-0.1l0,0l0,0l0.2-0.1l0,0l0.3-0.1l0,0l0.3-0.1c1.2-0.4,2.3-1,3.4-1.6l-3.5-0.3L150.7,149.4z M159,121.2L159,121.2z
	 M133.2,139l-0.7-0.8l0.1-0.1l0.9,0.3l0.5,0.1c0.2,0,0.4,0,0.3,0.2l-0.7-0.1L133.2,139z M136.9,141.6l-1.1,1.2l-0.3-0.2l-0.1-0.1
	l0,0l-0.1-0.1l-0.1-0.1L135,142l-0.1-0.1l0,0l-0.1-0.1l0,0c-0.4-0.4-0.8-0.9-1.3-1.3c0.6-0.3,1.1-0.8,1.4-1.3l0.3-0.5
	c0.1,0.2,0.2,0.4,0.3,0.6s0.1,0,0.2,0l0.1-0.3h0.1l-0.1,0.2c-0.2,1-0.3,2-0.2,2.9l1.1-0.7l0.4-0.4l0.1,0.1L136.9,141.6z
	 M138.6,138.7l-0.1,0.1l-0.3,0.2l-0.3-0.4l-0.6,0.1v-0.1l0.9-0.2c0.2-0.1,0.4-0.1,0.6-0.2s0.2,0.1,0.3,0.1l-0.1,0.2L138.6,138.7z
	 M144,149.7L144,149.7L144,149.7L144,149.7L144,149.7v0.1C144,149.8,144,149.8,144,149.7L144,149.7z"/>
<path class="st1" d="M186.2,97.5h1.6c0.6-1,1.1-1.9,1.7-2.8c0-0.1,0-0.2,0-0.3h-2.8l-0.3,1.8L186.2,97.5z"/>
<path class="st1" d="M84.6,98.6c0.7,0.9,1.6,1.6,2.3,2.4l0,0l0.2,0.3l0.1-0.1l-0.2-0.2c-0.7-1.2-1.3-2.4-1.6-3.8
	c-0.9-1.1-2-1.9-3.3-2.4l0.3,0.7C83.2,96.6,83.8,97.6,84.6,98.6z"/>
<path class="st1" d="M131.3,153.2l-1-2.3l-0.5-1l-0.1-0.3l0,0l-0.1-0.3c0,0,0-0.1,0-0.1l-0.1-0.2c0,0,0-0.1,0-0.1
	c-0.3-1.3-0.7-2.5-1.2-3.7l-0.6,1l-0.1,0.1l0,0l-0.1,0.1l0,0l-1.6,1.2l0.1,0.7l-0.1-0.7l-0.2,0.1l0,0l0,0l0,0l-1.6,0.8l-0.7,0.3l0,0
	l-2.5,0.7l-1.7,0.2l-1.7,0.1h-0.7v0.1l1,0.5l0,0l0.1,0.1l1.2,0.6c0,0,0.1,0,0.1,0l0.1,0.1l1.4,0.6c0.3,0.1,0.6,0.2,0.9,0.4
	c0.7,0.4,1.5,0.4,2.2,0c0,0,0.1,0,0.1,0l0.2-0.1l1.8-0.9c0,0,0.1,0,0.1,0l0.1-0.1l0,0l0.2-0.1l0.7-0.5l0.5-0.5l0.3-0.2l0,0l-0.4,0.7
	l0,0l-0.2,0.1c-0.8,1-1.9,1.8-3,2.4v0.1l3.3,0.7l1.1,0.2c0.8,0.2,1.7,0.3,2.6,0.3L131.3,153.2z M120.7,149.6L120.7,149.6
	L120.7,149.6z"/>
<path class="st1" d="M135.1,162L135.1,162L135.1,162z"/>
<path class="st1" d="M135.1,162"/>
<path class="st1" d="M183.5,105.6L183.5,105.6L183.5,105.6z"/>
<path class="st1" d="M183.5,105.6"/>
<path class="st1" d="M182.8,97.8c0-0.1,0.1-0.2,0.1-0.2l0.6-0.1l0.9-2.8c-0.2-0.1-0.3-0.1-0.5-0.2c-0.9,0-1.8,0-2.7,0h-1.7v9.5
	c1-1.3,1.9-2.6,2.7-4.1C182.6,99.3,182.8,98.6,182.8,97.8z"/>
</svg>
