<?xml version="1.0" encoding="utf-8"?>
<!-- Generator: Adobe Illustrator 22.0.1, SVG Export Plug-In . SVG Version: 6.00 Build 0)  -->
<svg version="1.1" id="Layer_1" xmlns="http://www.w3.org/2000/svg" xmlns:xlink="http://www.w3.org/1999/xlink" x="0px" y="0px"
	 viewBox="0 0 250 250" style="enable-background:new 0 0 250 250;" xml:space="preserve">
<style type="text/css">
	.st0{fill:none;}
	.st1{fill:#6400FA;}
</style>
<title>#vegastech</title>
<rect class="st0" width="250" height="250"/>
<path class="st1" d="M106.3,138.9v5.5l-3.7,4.2H89.3c-5-2.3-6.1-6.1-2.6-10.7l2.3,0.8l-1.1,3.7c1,2.7,2.8,3.5,5.4,3.3s4.9,0,7.1,0
	c2.3-1.5,2.6-3.5,2.2-6.3l-2.9-3.7h-9.8l-3.6-4v-12.3l3.3-3.2h8.8l2.2-3.7l2.5,0.8l-1.2,3.9l1.9,2.3v12.1l-1.6,1.8
	C103.7,135.4,105.1,137.2,106.3,138.9z M89.3,121.1v9.1l2.3,2.5c1.3-0.1,2.7-0.1,4,0c2.5,0.3,4.4-0.5,5.4-2.9v-8.8l-1.7-1.8h-8.1
	L89.3,121.1z"/>
<path class="st1" d="M26,110.4h2.9v7.9c1.8,0.6,3.4,0.1,5.3,0.4l0.2,2.3h-5.2v7h5v2.9h-5v7.6l-2.9,0.2v-7.4
	c-2.3-0.6-4.4-0.2-6.6-0.3v7.6h-2.9V131h-5.2v-2.9h5v-7h-4.9l-0.2-2.5h5.3v-8.1h2.9v8H26V110.4z M19.7,127.8c2.1,0.3,4.2,0.3,6.2,0
	v-6.7h-6.2L19.7,127.8z"/>
<path class="st1" d="M174.7,129.1v4.7l2.6,2.3h7.5l4.1-1.9l1.4,2.3l-4.2,2.6h-10.7l-4.2-4.1v-15.1l4.2-3.7h11.5l3.6,4.3
	c0,2.3,0,5,0,7.8c0,0.2-0.3,0.5-0.6,0.9H174.7z M177,119.2l-2.2,1.9v5h12.1v-4.6l-1.8-2.3L177,119.2z"/>
<path class="st1" d="M62.7,120.1l3.8-3.8h11c1.8,0.3,2.7,2.2,3.8,3.8v9.1H65.7v3.8c0.5,1.5,1.8,2.8,3.3,3.3h7.1l3.8-1.9l1.8,2
	l-4.2,2.8H67.3c-2.1-0.9-3.7-2.6-4.7-4.6L62.7,120.1z M65.7,126.1h12.8V122c-0.8-2.2-2.4-2.9-4.6-2.8c-1.8,0.1-3.7,0-5.9,0l-2.3,2.4
	L65.7,126.1z"/>
<path class="st1" d="M108.7,134.8v-5.6c0.5-2.2,2.5-2.9,3.9-4.1h12.2c0.7-0.9,0.1-2,0.4-3.4l-3.1-2.4c-3.4,0.1-7.3-0.8-10.9,1.7
	l-1.5-2.5l4-2.2h10.8l3.5,3.7v16.9l-4.5,2.3h-9.9C111,138.6,110.2,136.3,108.7,134.8z M115.2,136.3c3.3-0.2,6.8,0.7,9.8-1.6v-6.1
	c-3.2-1.5-6.6-1.2-10.3-1.1l-3,2.4C111.2,133.3,112.4,135.2,115.2,136.3z"/>
<path class="st1" d="M219.9,117.4c4-2.1,7.9-0.7,11.5-1.2c2.4,0.7,3.6,2.5,5,3.9v18.5h-3.3v-15.4c-0.1-1.8-1.3-3.4-3-3.9h-6.5
	l-3.5,1.7v17.6h-2.9v-30.9h2.7V117.4z"/>
<path class="st1" d="M132.3,125.8V120l4.2-3.7h8.8l4.1,2.2L148,121c-3.1-2.1-6.6-1.9-10.2-1.7l-2.5,2.4v3.1c0.6,0.4,1.2,0.6,1.9,0.8
	c2.4,0.3,4.8,0.5,7.2,0.6c2.2-0.2,4.3,1,5.4,2.9v5.6c-1.3,1.7-2.3,3.8-4.8,4.5h-8.9l-4.1-2.6c0.4-0.9,0.8-1.5,1.1-2.3
	c1.8,0.7,3.6,1.3,5.5,1.8c1.8,0.2,3.7,0.2,5.5,0.1c2-1.5,3.4-3.1,2.7-5.8c-0.9-1-2.1-1.2-3.4-1.3c-2.4-0.1-4.8-0.3-7.2-0.6
	C134.5,128.4,133,127.3,132.3,125.8z"/>
<path class="st1" d="M39.2,129.1V117H42c0,3,0,5.9,0,8.8c-0.1,1.6,0.5,3.1,1.6,4.2c1.7,1.9,3.3,3.8,5.1,5.9l6.2-7.7V117h3.5
	c0,3.7,0,7.5,0,11.7c-2.5,3.7-5.3,7.2-8.3,10.4h-2.8C44.4,136.1,41.6,132.7,39.2,129.1z"/>
<path class="st1" d="M212.7,118.6c-0.7,1-1.2,1.7-1.6,2.3l-3.4-1.6H200l-2.4,2.6V133c0.6,0.6,1.1,1.2,1.5,1.9c0.6,1,1.8,1.5,2.9,1.5
	c3.1,0.2,6.2,0.1,8.9-2.1l2,2.2l-4,2.9h-9.5c-2.2-0.9-3.9-2.6-4.8-4.8V120l3.8-3.7h10.5L212.7,118.6z"/>
<path class="st1" d="M159.5,133.3l2.3,3h5c0.1,0.9,0.1,1.8,0.2,2.9c-2.2,0.1-4.4,0-6.9,0l-4.3-4.8v-15.1l-3.4-0.2l-0.1-2.2h3.2
	c0.7-1.9,0-3.9,0.4-5.9h3.4v5.7h7v2.3h-6.8L159.5,133.3z"/>
</svg>
