<?xml version="1.0" encoding="utf-8"?>
<!-- Generator: Adobe Illustrator 22.1.0, SVG Export Plug-In . SVG Version: 6.00 Build 0)  -->
<svg version="1.1" id="Layer_1" xmlns="http://www.w3.org/2000/svg" xmlns:xlink="http://www.w3.org/1999/xlink" x="0px" y="0px"
	 viewBox="0 0 250 250" style="enable-background:new 0 0 250 250;" xml:space="preserve">
<style type="text/css">
	.st0{fill:none;}
	.st1{fill:#6400FA;}
</style>
<title>Bitcoin Exchange Guide</title>
<rect class="st0" width="250" height="250"/>
<g>
	<path class="st1" d="M206.5,142.8c-2.9,0-5.6,0-8.5,0c0-0.5-0.1-1-0.1-1.5c0-4.2,0-8.4,0-12.6c0-0.8,0-1.5-0.2-2.3
		c-0.4-2.3-1.8-3.6-3.8-3.6c-2.1,0-4,1.5-4.3,3.7c-0.1,0.8-0.1,1.6-0.2,2.4c0,4.1,0,8.1,0,12.2c0,0.5,0,1,0,1.6c-2.9,0-5.7,0-8.6,0
		c0-8.6,0-17.1,0-25.7c2.3,0,4.7,0,7.2,0c0.2,1,0.3,2,0.5,3.3c2.3-2.8,5.1-4,8.5-4.1c3.4,0,6.2,1.1,8,4.3c0.3-0.3,0.6-0.5,0.8-0.8
		c3-3,6.7-4.1,10.8-3.2c3,0.6,5.2,2.5,6.2,5.4c0.6,1.8,0.9,3.7,1,5.5c0.1,4.7,0,9.5,0,14.2c0,0.3-0.1,0.7-0.1,1.1
		c-2.8,0-5.6,0-8.6,0c0-0.6,0-1.1,0-1.6c0-4.1,0-8.1,0-12.2c0-1.1-0.1-2.1-0.4-3.2c-0.5-1.9-1.7-2.9-3.5-3c-1.9-0.1-3.6,0.9-4.2,2.7
		c-0.3,0.9-0.4,1.9-0.4,2.9c0,4.2,0,8.5,0,12.7C206.6,141.7,206.6,142.2,206.5,142.8z"/>
	<path class="st1" d="M18,136.1c6.9,0,13.6,0,20.3,0c0,2.3,0,4.4,0,6.6c-11.1,0-22.1,0-33.3,0c0-1.4-0.1-2.7,0-4.1
		c0-0.4,0.4-0.8,0.7-1.2c6.1-7.4,12.3-14.8,18.5-22.1c0.3-0.4,0.6-0.8,1.2-1.5c-3.3,0-6.4,0-9.4,0c-3,0-6,0-9.1,0c0-2.3,0-4.5,0-6.7
		c10.3,0,20.6,0,31,0c0,1.5,0.1,3,0,4.6c0,0.4-0.5,0.9-0.8,1.2c-6,7.3-12,14.5-18,21.8C18.7,135.2,18.5,135.5,18,136.1z"/>
	<path class="st1" d="M75,108.2c-0.7,2.2-1.3,4.2-2,6.3c-1.6-0.3-3.1-0.7-4.6-0.9c-2.9-0.4-5.8-0.4-8.6,0.4
		c-7.3,1.9-10.8,9.5-7.5,16.3c1.5,3,4,4.7,7.1,5.6c4.1,1.2,8.2,0.8,12.3-0.1c0.3-0.1,0.6-0.1,0.9-0.2c0.1,0,0.2,0,0.4,0
		c0.5,2,0.9,4,1.5,6.2c-1.2,0.3-2.3,0.7-3.4,0.9c-5.7,1-11.5,1.1-17.1-0.6c-3.5-1-6.6-2.7-9-5.5c-6.6-7.6-5.1-19.5,3.1-25.5
		c3.3-2.4,7-3.7,11-4.3c4.7-0.7,9.4-0.5,14.1,0.6C73.8,107.7,74.3,107.9,75,108.2z"/>
	<path class="st1" d="M98,143.4c-4.5,0-7.6-0.6-10.5-2.1c-4.3-2.3-6.7-5.9-6.9-10.8c-0.2-5.1,1.9-9.1,6.3-11.8
		c3.6-2.1,7.5-2.7,11.6-2.5c2.6,0.1,5.2,0.7,7.5,1.9c4.5,2.3,7,6,7.1,11c0.1,5.2-2.1,9.2-6.7,11.8C103.5,142.8,100.2,143.4,98,143.4
		z M90.5,129.8c0.4,1.5,0.6,3,1.2,4.4c1,2.3,2.9,3.4,5.4,3.4c2.5,0,4.2-1.2,5.2-3.5c1.2-2.9,1.2-5.8-0.1-8.7c-1-2.2-2.8-3.3-5.2-3.3
		c-2.4,0-4.3,1-5.2,3.2C91.1,126.8,90.9,128.3,90.5,129.8z"/>
	<path class="st1" d="M173.4,142.8c-2.7,0-5.4,0-8.2,0c-0.2-1.2-0.4-2.3-0.6-3.5c-0.6,0.6-1,1-1.5,1.4c-3.7,3.1-10.3,3.7-14.5,1.3
		c-3.1-1.8-4.5-4.6-4.6-8c-0.2-5.5-0.1-11-0.1-16.5c0-0.1,0.1-0.2,0.1-0.5c3.1,0,6.3,0,9.6,0c0,0.5,0,1,0,1.5c0,4.1,0,8.2,0,12.3
		c0,0.9,0.1,1.8,0.3,2.7c0.6,2.4,2.5,3.6,5.1,3.3c2.6-0.3,4.4-2,4.4-4.5c0-1.3,0-2.6,0-3.8c0-3.3,0-6.7,0-10c0-0.5,0-0.9,0-1.5
		c3.3,0,6.4,0,9.8,0C173.4,125.6,173.4,134.2,173.4,142.8z"/>
	<path class="st1" d="M128.9,142.8c-3.4,0-6.5,0-9.8,0c0-8.6,0-17.1,0-25.8c2.6,0,5.3,0,8.1,0c0.1,1.4,0.2,2.9,0.4,4.6
		c0.4-0.6,0.6-0.9,0.8-1.2c2.2-3.2,5.2-4.3,9-4.2c0.5,0,0.9,0.2,0.9,0.8c0,2.3,0,4.5,0,6.9c-0.6,0-1-0.1-1.5-0.1
		c-1.4,0.1-2.8,0-4.1,0.4c-2.5,0.7-3.8,2.5-3.8,5.1c0,3.9,0,7.9,0,11.8C128.8,141.7,128.9,142.2,128.9,142.8z"/>
	<path class="st1" d="M237.6,117.2c-0.1,2.1-0.3,3.9-0.4,5.8c-0.6,0-1.1,0-1.8,0c0.2-2.7,0.3-5.3,0.5-8.2c0.8,0,1.5-0.1,2.2,0
		c0.3,0.1,0.6,0.5,0.7,0.9c0.5,1.4,0.8,2.8,1.3,4.4c0.4-1.4,0.8-2.6,1.2-3.8c0.5-1.5,0.5-1.5,2.1-1.5c0.3,0,0.5,0,1,0.1
		c0.2,2.7,0.3,5.4,0.5,8.2c-0.7,0-1.3,0-2,0c0-1.8,0-3.5,0-5.3c-0.1,0-0.3,0-0.4-0.1c-0.3,0.8-0.5,1.5-0.8,2.3
		c-0.2,0.7-0.5,1.5-0.7,2.2c-0.2,0.6-0.4,0.9-1.1,0.9c-0.6,0-0.9-0.3-1.1-0.9C238.6,120.5,238.1,119,237.6,117.2z"/>
	<path class="st1" d="M228.6,116.2c0-0.6,0-1,0-1.5c2.2,0,4.3,0,6.6,0c0,0.5,0,0.9,0.1,1.5c-0.8,0.1-1.4,0.1-2.3,0.2
		c0,2.2,0,4.3,0,6.5c-0.8,0-1.4,0-2.1,0c0-2.2,0-4.3,0-6.5C230,116.4,229.4,116.3,228.6,116.2z"/>
</g>
</svg>
