<svg version="1" xmlns="http://www.w3.org/2000/svg" width="1365.333" height="1365.333" viewBox="0 0 1024.000000 1024.000000"><path d="M77 205.5c-1 1.3-1.3 18.5-.3 18.6.4 0 15.6.2 33.6.3 18 .2 33.2.7 33.6 1.2.4.5 7.2 20.2 15 43.9 7.8 23.6 14.5 43.7 14.8 44.5.3.8.7 1.9.9 2.5 1.5 5.6 166.7 499.2 167.2 499.7 1.2 1.1 29.1 1.4 29.6.3.2-.6 3.6-10 7.5-21 4-11 7.7-21.1 8.2-22.4.5-1.3 4.2-11.2 8-22 3.9-10.8 8.1-22.3 9.3-25.6 1.3-3.3 6.3-16.8 11-30.1l8.7-24-69.6-209.5c-38.3-115.1-69.9-210.1-70.2-210.9-2.7-7.1-8.1-24.5-7.8-24.8.2-.3 13.2-.5 28.7-.6l28.3-.1v-8c.1-4.4-.1-8.7-.3-9.5-.3-1.3-4.8-1.5-33-1.7-37.7-.2-194.2-1.4-211-1.6-6.6-.1-11.7.2-12.2.8zM392.3 216.8l.1 9.8 16 .2c8.9 0 19 .1 22.6.2h6.5l3.7 11.3c3 9.2 32.4 96.4 48.8 144.7 2.1 6.3 9.4 27.7 16 47.5 6.7 19.8 17.2 50.6 23.2 68.5 6.1 17.9 16.3 48.2 22.8 67.5 6.5 19.2 20.8 61.5 31.8 94 11 32.4 24.8 73.4 30.6 91 5.9 17.6 11.1 32.9 11.6 34 .5 1.1 3.2 9.1 6.1 17.7 5.3 15.7 5.3 15.8 8.4 15.9 10.9.4 25.9-.1 26.5-.8.4-.4 4.2-10.5 8.5-22.3 4.2-11.8 9.1-25.1 10.7-29.5 1.6-4.4 3.8-10.7 4.9-14 1.2-3.3 2.8-7.5 3.6-9.4.8-1.8 1.6-3.9 1.7-4.5.2-1.1 9.4-26.6 14.6-40.6 1.6-4.1 4.4-11.8 6.3-17l3.4-9.5-4.3-12.5c-15.8-46.3-35.2-103.5-38.9-114.5-2.4-7.2-7.2-21.1-10.6-31-5.1-15-27.1-79.6-37.9-111.5-1.6-4.7-9.5-27.9-17.5-51.5-8-23.7-16.3-48.2-18.5-54.5-2.1-6.3-8-23.4-13-38-5.1-14.6-9.4-27.3-9.7-28.3-.5-1.7 1.2-1.8 36.3-1.5l36.9.3.3-9.8.3-9.7-10.3-.1c-5.7 0-29.6-.2-53.3-.4-23.6-.2-75.7-.6-115.6-.9l-72.7-.6.1 9.8zM789.9 211.7c-.1 2.1-.1 15.3 0 16.8.1 1 29.4 1.4 120.1 1.8l37.5.2.3-9.8.3-9.7h-17.8c-9.8 0-45.4-.3-79-.5-58-.5-61.3-.4-61.4 1.2z"/></svg>