<svg xmlns="http://www.w3.org/2000/svg" width="400" height="1700" viewBox="0 0 400 1700"><title>icons-nav</title><rect width="400" height="1700" style="fill:none"/><path d="M372.65,1160.54a25,25,0,0,0-33.2-33.21h0a25,25,0,1,0,33.2,33.2Zm-27.86,2.38a13.88,13.88,0,1,1,10.46.06,14.09,14.09,0,0,1-10.49,0Z" style="fill:#6400fa"/><path d="M367.67,1167.65a25.61,25.61,0,0,1-7.11,5,36.58,36.58,0,0,0-5.33-9.7,13.93,13.93,0,0,0,7.75-7.74,37,37,0,0,0,9.68,5.33A25.23,25.23,0,0,1,367.67,1167.65Z" style="fill:#32007d"/><path d="M340.14,1140.12a14,14,0,0,0-3.08,4.66,36.33,36.33,0,0,0-9.69-5.32,24.92,24.92,0,0,1,5-7.11,25.47,25.47,0,0,1,7.11-5h0a36.59,36.59,0,0,0,5.33,9.68A14.1,14.1,0,0,0,340.14,1140.12Z" style="fill:#32007d"/><path d="M339.43,1172.64a25.32,25.32,0,0,1-7.1-5,24.74,24.74,0,0,1-5-7.12,37.13,37.13,0,0,0,9.68-5.32,14.07,14.07,0,0,0,7.74,7.74A36.64,36.64,0,0,0,339.43,1172.64Z" style="fill:#32007d"/><path d="M372.66,1139.42a36.36,36.36,0,0,0-9.69,5.33,13.74,13.74,0,0,0-3.11-4.63,14.16,14.16,0,0,0-4.66-3.09,36.56,36.56,0,0,0,5.32-9.68,25.28,25.28,0,0,1,12.11,12.1Z" style="fill:#32007d"/><path d="M267.67,1132.31a25,25,0,1,0,0,35.34,25,25,0,0,0,0-35.34Zm-27.56,27.56a14,14,0,1,1,19.73,0,14,14,0,0,1-19.73,0Z" style="fill:#199619"/><path d="M272.65,1160.54a25,25,0,0,0-33.21-33.21h0a25,25,0,1,0,33.2,33.2Zm-27.86,2.38a13.95,13.95,0,1,1,15.12-22.85,13.68,13.68,0,0,1,3.09,4.64A14,14,0,0,1,244.76,1163Z" style="fill:#32e14b"/><path d="M267.67,1167.65a25.61,25.61,0,0,1-7.11,5,36.58,36.58,0,0,0-5.33-9.7,13.93,13.93,0,0,0,7.75-7.74,37,37,0,0,0,9.68,5.33A25.23,25.23,0,0,1,267.67,1167.65Z" style="fill:#199619"/><path d="M240.14,1140.12a14,14,0,0,0-3.08,4.66,36.61,36.61,0,0,0-9.69-5.32,24.88,24.88,0,0,1,5-7.1,25.3,25.3,0,0,1,7.11-5h0a36.59,36.59,0,0,0,5.33,9.68A14.1,14.1,0,0,0,240.14,1140.12Z" style="fill:#199619"/><path d="M239.43,1172.64a25.18,25.18,0,0,1-7.1-5,24.74,24.74,0,0,1-5-7.12,36.84,36.84,0,0,0,9.68-5.32,14.07,14.07,0,0,0,7.74,7.74A36.64,36.64,0,0,0,239.43,1172.64Z" style="fill:#199619"/><path d="M272.66,1139.42a36.42,36.42,0,0,0-9.7,5.33,13.57,13.57,0,0,0-3.1-4.63,14.1,14.1,0,0,0-4.67-3.09,36.59,36.59,0,0,0,5.33-9.68,25.22,25.22,0,0,1,12.1,12.1Z" style="fill:#199619"/><path d="M173.49,1141.43a25,25,0,0,0-47,0h0A25,25,0,0,0,150,1175a25.44,25.44,0,0,0,8.56-1.49,25,25,0,0,0,14.88-32.07Zm-18,21.39A13.95,13.95,0,1,1,150,1136a13.72,13.72,0,0,1,5.47,1.11,14,14,0,0,1,7.44,7.44,13.88,13.88,0,0,1,0,11,14.06,14.06,0,0,1-7.44,7.4Z" style="fill:#191919"/><path d="M175,1150a25.43,25.43,0,0,1-1.49,8.55,36.79,36.79,0,0,0-10.63-3.09,13.88,13.88,0,0,0,0-11,37,37,0,0,0,10.62-3.08A25.07,25.07,0,0,1,175,1150Z" style="fill:#646464"/><path d="M136.06,1150a14,14,0,0,0,1.11,5.46,36.9,36.9,0,0,0-10.62,3.09,24.93,24.93,0,0,1-1.48-8.55,25.53,25.53,0,0,1,1.48-8.57h0a37.2,37.2,0,0,0,10.62,3.08A14.13,14.13,0,0,0,136.06,1150Z" style="fill:#646464"/><path d="M158.56,1173.48A25.2,25.2,0,0,1,150,1175a24.51,24.51,0,0,1-8.56-1.51,37,37,0,0,0,3.08-10.6,14.06,14.06,0,0,0,10.95,0A36.72,36.72,0,0,0,158.56,1173.48Z" style="fill:#646464"/><path d="M158.56,1126.49a36.81,36.81,0,0,0-3.09,10.62,14.18,14.18,0,0,0-10.95,0,36.73,36.73,0,0,0-3.08-10.61,25.29,25.29,0,0,1,17.12,0Z" style="fill:#646464"/><path d="M50,1125a25,25,0,1,0,25,25,25,25,0,0,0-25-25Zm0,39a14,14,0,1,1,13.94-14,14,14,0,0,1-13.94,14Z" style="fill:#fff"/><path d="M73.48,1141.43a25,25,0,0,0-47,0h0a25,25,0,1,0,47,0Zm-18,21.39a13.94,13.94,0,1,1,0-25.68,13.92,13.92,0,0,1,0,25.72Z" style="fill:#969696"/><path d="M75,1150a25.18,25.18,0,0,1-1.49,8.55,36.39,36.39,0,0,0-10.62-3.08,14,14,0,0,0,0-11,36.89,36.89,0,0,0,10.62-3.08A25.3,25.3,0,0,1,75,1150Z" style="fill:#fff"/><path d="M36.05,1150a13.9,13.9,0,0,0,1.12,5.47,36.39,36.39,0,0,0-10.62,3.08,24.93,24.93,0,0,1-1.48-8.55,25.53,25.53,0,0,1,1.48-8.57h0a36.89,36.89,0,0,0,10.62,3.08A14,14,0,0,0,36.05,1150Z" style="fill:#fff"/><path d="M58.55,1173.48A25.23,25.23,0,0,1,50,1175a24.6,24.6,0,0,1-8.57-1.51,37,37,0,0,0,3.08-10.6,14.06,14.06,0,0,0,11,0A36.72,36.72,0,0,0,58.55,1173.48Z" style="fill:#fff"/><path d="M58.55,1126.49a36.9,36.9,0,0,0-3.09,10.62A13.84,13.84,0,0,0,50,1136a14.17,14.17,0,0,0-5.49,1.11,36.42,36.42,0,0,0-3.08-10.61,25.29,25.29,0,0,1,17.12,0Z" style="fill:#fff"/><path d="M83.31,1262.13v-6.35a2.87,2.87,0,0,0-2.93-2.82H27.69a2.87,2.87,0,0,0-2.93,2.82h0v7.32a2.87,2.87,0,0,0,2.93,2.82H79.43L85,1267.5Z" style="fill:#fff"/><path d="M16.64,1241.67v-6.35a2.87,2.87,0,0,1,2.92-2.82h52.7a2.87,2.87,0,0,1,2.93,2.82h0v7.32a2.87,2.87,0,0,1-2.93,2.82H20.57L15,1247Z" style="fill:#969696"/><path d="M283.36,1262.13v-6.35a2.87,2.87,0,0,0-2.93-2.82H227.7a2.87,2.87,0,0,0-2.93,2.8h0v7.34a2.88,2.88,0,0,0,2.91,2.82h51.74l5.58,1.58Z" style="fill:#32e14b"/><path d="M216.64,1241.67v-6.35a2.87,2.87,0,0,1,2.93-2.82H272.3a2.87,2.87,0,0,1,2.93,2.8h0v7.34a2.88,2.88,0,0,1-2.91,2.82H220.58L215,1247Z" style="fill:#199619"/><path d="M383.36,1262.13v-6.35a2.87,2.87,0,0,0-2.93-2.82H327.7a2.87,2.87,0,0,0-2.93,2.8h0v7.34a2.88,2.88,0,0,0,2.91,2.82h51.74l5.58,1.58Z" style="fill:#6400fa"/><path d="M316.64,1241.67v-6.35a2.87,2.87,0,0,1,2.93-2.82H372.3a2.87,2.87,0,0,1,2.93,2.8h0v7.34a2.88,2.88,0,0,1-2.91,2.82H320.58L315,1247Z" style="fill:#32007d"/><path d="M183.36,1262.13v-6.35a2.87,2.87,0,0,0-2.93-2.82H127.7a2.87,2.87,0,0,0-2.93,2.8h0v7.34a2.88,2.88,0,0,0,2.91,2.82h51.74l5.58,1.58Z" style="fill:#646464"/><path d="M116.64,1241.67v-6.35a2.87,2.87,0,0,1,2.93-2.82H172.3a2.87,2.87,0,0,1,2.93,2.8h0v7.34a2.88,2.88,0,0,1-2.91,2.82H120.58L115,1247Z" style="fill:#191919"/><path d="M60.56,662.56h-20a1.9,1.9,0,0,0-1.88,1.92h0v6.58A1.93,1.93,0,0,0,40.6,673h20a1.91,1.91,0,0,0,1.87-1.93v-6.58A1.9,1.9,0,0,0,60.56,662.56Z" style="fill:#afafaf"/><path d="M60.56,662.56h-10V673h10a1.91,1.91,0,0,0,1.87-1.93v-6.58A1.9,1.9,0,0,0,60.56,662.56Z" style="fill:#969696"/><path d="M71.78,638.06H29.37A1.91,1.91,0,0,0,27.5,640v12.89a13.36,13.36,0,0,0,13.1,13.55h20a13.36,13.36,0,0,0,13.1-13.55V640A1.93,1.93,0,0,0,71.78,638.06Z" style="fill:#fff"/><path d="M75.65,654.82H71.78a1.91,1.91,0,0,1-1.87-1.94V642.55a1.91,1.91,0,0,1,1.87-1.94h3.87a7.1,7.1,0,0,1,0,14.19Zm-2-3.87h2a3.16,3.16,0,0,0,3.32-3,3.2,3.2,0,0,0-2.92-3.43h-2.4Z" style="fill:#969696"/><path d="M71.78,638.06H50.58v28.37h10a13.36,13.36,0,0,0,13.1-13.55V640a1.9,1.9,0,0,0-1.89-1.93h0Z" style="fill:#afafaf"/><path d="M43.82,630.19a9.26,9.26,0,0,1,1.82-11.8,5.28,5.28,0,0,0,.67-7.24,4.85,4.85,0,0,0-.67-.69,2,2,0,0,1-.28-2.74,1.85,1.85,0,0,1,2.65-.29,9.26,9.26,0,0,1,1.2,12.72,10,10,0,0,1-1.2,1.24,5.28,5.28,0,0,0-1,6.75,2,2,0,0,1-.62,2.66,1.84,1.84,0,0,1-2.55-.6Z" style="fill:#fff"/><path d="M53.8,630.19a9.24,9.24,0,0,1,1.83-11.8,1.84,1.84,0,0,1,2.62.45,2,2,0,0,1-.24,2.55,5.28,5.28,0,0,0-1,6.75,2,2,0,0,1-.82,2.6,1.83,1.83,0,0,1-2.32-.54H53.8Z" style="fill:#fff"/><path d="M260.56,662.55h-20a1.91,1.91,0,0,0-1.88,1.93h0v6.58a1.93,1.93,0,0,0,1.88,1.93h20a1.91,1.91,0,0,0,1.87-1.93h0v-6.58a1.91,1.91,0,0,0-1.87-1.94Z" style="fill:#19c819"/><path d="M260.56,662.55h-10V673h10a1.91,1.91,0,0,0,1.87-1.93h0v-6.58a1.91,1.91,0,0,0-1.87-1.94Z" style="fill:#199619"/><path d="M271.78,638H229.37A1.91,1.91,0,0,0,227.5,640v12.89a13.35,13.35,0,0,0,13.1,13.55h20a13.35,13.35,0,0,0,13.1-13.55V640a1.91,1.91,0,0,0-1.89-1.94h0Z" style="fill:#32e14b"/><path d="M275.65,654.81h-3.87a1.91,1.91,0,0,1-1.87-1.94V642.53a1.9,1.9,0,0,1,1.87-1.93h3.87a7.1,7.1,0,0,1,0,14.19Zm-2-3.87h2a3.16,3.16,0,0,0,3.32-3,3.2,3.2,0,0,0-2.92-3.43h-2.4Z" style="fill:#199619"/><path d="M271.78,638h-21.2v28.38h10a13.35,13.35,0,0,0,13.1-13.55V640a1.91,1.91,0,0,0-1.89-1.94h0Z" style="fill:#19c819"/><path d="M243.82,630.17a9.27,9.27,0,0,1,1.82-11.81,5.28,5.28,0,0,0,.67-7.24,4.85,4.85,0,0,0-.67-.69,2,2,0,0,1-.25-2.72,1.83,1.83,0,0,1,2.64-.27,9.25,9.25,0,0,1,1.2,12.71h0a9.79,9.79,0,0,1-1.21,1.2,5.3,5.3,0,0,0-1,6.76,2,2,0,0,1-.62,2.66,1.84,1.84,0,0,1-2.55-.6Z" style="fill:#32e14b"/><path d="M253.8,630.17a9.25,9.25,0,0,1,1.83-11.81,1.84,1.84,0,0,1,2.62.45,2,2,0,0,1-.24,2.55h0a5.29,5.29,0,0,0-1.05,6.76,2,2,0,0,1-.61,2.66,1.84,1.84,0,0,1-2.55-.6Z" style="fill:#32e14b"/><path d="M360.56,662.55h-20a1.91,1.91,0,0,0-1.88,1.93h0v6.58A1.93,1.93,0,0,0,340.6,673h20a1.91,1.91,0,0,0,1.87-1.93v-6.58a1.91,1.91,0,0,0-1.87-1.94Z" style="fill:#4b00c8"/><path d="M360.56,662.55h-10V673h10a1.91,1.91,0,0,0,1.87-1.93v-6.58A1.91,1.91,0,0,0,360.56,662.55Z" style="fill:#32007d"/><path d="M371.78,638H329.37A1.91,1.91,0,0,0,327.5,640v12.89a13.35,13.35,0,0,0,13.1,13.55h20a13.35,13.35,0,0,0,13.1-13.55V640A1.93,1.93,0,0,0,371.78,638Z" style="fill:#6400fa"/><path d="M375.65,654.81h-3.87a1.91,1.91,0,0,1-1.87-1.94V642.53a1.9,1.9,0,0,1,1.87-1.93h3.87a7.1,7.1,0,0,1,0,14.19h0Zm-2-3.87h2a3.16,3.16,0,0,0,3.32-3,3.2,3.2,0,0,0-2.92-3.43h-2.4Z" style="fill:#32007d"/><path d="M371.78,638h-21.2v28.38h10a13.35,13.35,0,0,0,13.1-13.55V640a1.91,1.91,0,0,0-1.89-1.94h0Z" style="fill:#3200af"/><path d="M343.82,630.17a9.27,9.27,0,0,1,1.82-11.81,5.28,5.28,0,0,0,.67-7.24,4.85,4.85,0,0,0-.67-.69,2,2,0,0,1-.25-2.72,1.83,1.83,0,0,1,2.64-.27,9.25,9.25,0,0,1,1.2,12.71h0a9.79,9.79,0,0,1-1.21,1.2,5.3,5.3,0,0,0-1,6.76,2,2,0,0,1-.33,2.71,1.82,1.82,0,0,1-2.62-.33,2.14,2.14,0,0,1-.2-.32h0Z" style="fill:#6400fa"/><path d="M353.8,630.17a9.25,9.25,0,0,1,1.83-11.81,1.84,1.84,0,0,1,2.62.45,2,2,0,0,1-.24,2.55h0a5.29,5.29,0,0,0-1.05,6.76,2,2,0,0,1-.61,2.66,1.84,1.84,0,0,1-2.55-.6Z" style="fill:#6400fa"/><path d="M160.72,662.55H142.41a1.84,1.84,0,0,0-1.71,1.93V671a1.85,1.85,0,0,0,1.71,1.94h18.31a1.84,1.84,0,0,0,1.71-1.94v-6.55A1.84,1.84,0,0,0,160.72,662.55Z" style="fill:#323232"/><path d="M160.56,662.55h-10V673h10a1.91,1.91,0,0,0,1.87-1.93v-6.58A1.91,1.91,0,0,0,160.56,662.55Z" style="fill:#191919"/><path d="M171.78,638H129.37A1.91,1.91,0,0,0,127.5,640v12.89a13.35,13.35,0,0,0,13.1,13.55h20a13.35,13.35,0,0,0,13.1-13.55V640a1.91,1.91,0,0,0-1.89-1.94h0Z" style="fill:#646464"/><path d="M175.65,654.81h-3.87a1.91,1.91,0,0,1-1.87-1.94V642.53a1.9,1.9,0,0,1,1.87-1.93h3.87a7.1,7.1,0,0,1,0,14.19h0Zm-2-3.87h2a3.16,3.16,0,0,0,3.32-3,3.2,3.2,0,0,0-2.92-3.43h-2.4Z"/><path d="M171.78,638h-21.2v28.38h10a13.35,13.35,0,0,0,13.1-13.55V640a1.91,1.91,0,0,0-1.89-1.94h0Z" style="fill:#191919"/><path d="M143.82,630.17a9.27,9.27,0,0,1,1.82-11.81,5.28,5.28,0,0,0,.67-7.24,4.85,4.85,0,0,0-.67-.69,2,2,0,0,1-.25-2.72,1.83,1.83,0,0,1,2.64-.27h0a9.25,9.25,0,0,1,1.2,12.71h0a9.79,9.79,0,0,1-1.21,1.2,5.3,5.3,0,0,0-1,6.76,2,2,0,0,1-.62,2.66,1.84,1.84,0,0,1-2.55-.6Z" style="fill:#646464"/><path d="M153.8,630.17a9.25,9.25,0,0,1,1.83-11.81,1.84,1.84,0,0,1,2.62.45,2,2,0,0,1-.24,2.55h0a5.29,5.29,0,0,0-1,6.76,2,2,0,0,1-.61,2.66,1.84,1.84,0,0,1-2.55-.6Z" style="fill:#646464"/><path d="M36.74,365.58l7.69-6.24L56.92,370,77.5,320l-55,20.64,18.34,15.64Z" style="fill:#fff"/><path d="M32.65,349.29l4.09,16.29,4.1-9.3L77.5,320Z" style="fill:#afafaf"/><path d="M350,269.8V259.62h-3.14l.48-5.23a3.46,3.46,0,0,1,.07-5,3.83,3.83,0,0,1,2.59-1V238.19a.2.2,0,0,1,.21-.2H342.9v-4.51a6.72,6.72,0,0,1,7.1-6.25V220c-7.79-.14-14.24,5.77-14.39,13.21V238h-3.73a1.84,1.84,0,0,0-1.88,1.8v28.37a1.86,1.86,0,0,0,1.9,1.81h18.31A.2.2,0,0,1,350,269.8Z" style="fill:#6400fa"/><polygon points="350 259.62 350 259.62 350 248.35 350 248.35 350 259.62" style="fill:#004bfa"/><path d="M367.86,238h-3.47v1.53h0v-6.31c-.15-7.43-6.58-13.35-14.37-13.21v7.23a7.51,7.51,0,0,1,5,1.83,5.84,5.84,0,0,1,2.08,4.42V238h-6.87a.2.2,0,0,0-.21.2v10.16a3.65,3.65,0,0,1,3.72,3.56s0,.08,0,.12a3.57,3.57,0,0,1-1,2.36l.48,5.23H350V269.8a.2.2,0,0,0,.21.2H368.1a1.86,1.86,0,0,0,1.9-1.81V240h0A2.1,2.1,0,0,0,367.86,238Z" style="fill:#3200af"/><path d="M250,248.35V238.19a.2.2,0,0,1,.21-.2H242.9v-4.51a6.72,6.72,0,0,1,7.1-6.25V220c-7.79-.14-14.24,5.77-14.39,13.21V238h-3.73a1.84,1.84,0,0,0-1.88,1.8v28.37a1.86,1.86,0,0,0,1.9,1.81h18.31a.21.21,0,0,1-.21-.17V259.62h-3.14l.48-5.23a3.46,3.46,0,0,1,.07-5A3.83,3.83,0,0,1,250,248.35Z" style="fill:#32e14b"/><polygon points="250 259.62 250 259.62 250 248.35 250 248.35 250 259.62" style="fill:#78db99"/><path d="M267.86,238h-3.47v1.53h0v-6.31c-.15-7.43-6.58-13.35-14.37-13.21v7.23a7.51,7.51,0,0,1,5,1.83,5.84,5.84,0,0,1,2.08,4.42V238h-6.87a.2.2,0,0,0-.21.2v10.16a3.65,3.65,0,0,1,3.72,3.56s0,.08,0,.12a3.57,3.57,0,0,1-1.05,2.36l.48,5.23H250V269.8a.2.2,0,0,0,.21.2H268.1a1.86,1.86,0,0,0,1.9-1.81V240h0A2.1,2.1,0,0,0,267.86,238Z" style="fill:#199619"/><path d="M50,269.8V259.62H46.86l.48-5.23a3.46,3.46,0,0,1,.07-5,3.83,3.83,0,0,1,2.59-1V238.19a.2.2,0,0,1,.21-.2H42.9v-4.51a6.72,6.72,0,0,1,7.1-6.25V220c-7.79-.14-14.24,5.77-14.39,13.21V238H31.88a1.84,1.84,0,0,0-1.88,1.8v28.37A1.86,1.86,0,0,0,31.9,270H50.21A.21.21,0,0,1,50,269.8Z" style="fill:#fff"/><path d="M53.14,259.62h0l-.48-5.23a3.49,3.49,0,0,0,1.06-2.48,3.49,3.49,0,0,1-1.06,2.48Z" style="fill:#c8c8c8"/><polygon points="50 259.62 50 259.62 50 248.35 50 248.35 50 259.62" style="fill:#c8c8c8"/><path d="M67.86,238H64.39v1.53h0v-6.31C64.22,225.78,57.79,219.86,50,220v7.23a7.51,7.51,0,0,1,5,1.83,5.84,5.84,0,0,1,2.08,4.42V238H50.21a.2.2,0,0,0-.21.2v10.16a3.65,3.65,0,0,1,3.72,3.57,3.55,3.55,0,0,1-1.06,2.47l.48,5.23H50V269.8a.2.2,0,0,0,.21.2H68.1a1.86,1.86,0,0,0,1.9-1.81V240h0A2.1,2.1,0,0,0,67.86,238Z" style="fill:#afafaf"/><path d="M150,269.8V259.62h-3.14l.48-5.23a3.46,3.46,0,0,1,.07-5,3.83,3.83,0,0,1,2.59-1V238.19a.2.2,0,0,1,.21-.2H142.9v-4.51a6.72,6.72,0,0,1,7.1-6.25V220c-7.79-.14-14.24,5.77-14.39,13.21V238h-3.73a1.84,1.84,0,0,0-1.88,1.8v28.37a1.86,1.86,0,0,0,1.9,1.81h18.31A.21.21,0,0,1,150,269.8Z" style="fill:#646464"/><path d="M153.14,259.62h0l-.48-5.23a3.49,3.49,0,0,0,1.06-2.48,3.49,3.49,0,0,1-1.06,2.48Z" style="fill:#323232"/><polygon points="150 259.62 150 259.62 150 248.35 150 248.35 150 259.62" style="fill:#323232"/><path d="M167.86,238h-3.47v1.53h0v-6.31c-.15-7.43-6.58-13.35-14.37-13.21v7.23a7.51,7.51,0,0,1,5,1.83,5.84,5.84,0,0,1,2.08,4.42V238h-6.87a.2.2,0,0,0-.21.2v10.16a3.65,3.65,0,0,1,3.72,3.57,3.55,3.55,0,0,1-1.06,2.47l.48,5.23H150V269.8a.2.2,0,0,0,.21.2H168.1a1.86,1.86,0,0,0,1.9-1.81V240h0A2.1,2.1,0,0,0,167.86,238Z" style="fill:#191919"/><path d="M253.8,140.48a14.93,14.93,0,1,0-8.32,8.32l4.78,4.78h1.28v1.28L254.7,158l2.78.22.22,2.78,2.52,2.52,2,.07.06,2,4.4,4.39,7.55-.77.77-7.55Zm-15.41-7.09a3.44,3.44,0,1,1,0-4.87,3.44,3.44,0,0,1,0,4.87Z" style="fill:#32e14b"/><path d="M353.8,140.48a14.93,14.93,0,1,0-8.32,8.32l4.78,4.78h1.28v1.28L354.7,158l2.78.22.22,2.78,2.52,2.52,2,.07.06,2,4.4,4.39,7.55-.77.77-7.55Zm-15.41-7.09a3.44,3.44,0,1,1,0-4.87,3.44,3.44,0,0,1,0,4.87Z" style="fill:#6400fa"/><path d="M153.8,140.48a14.93,14.93,0,1,0-8.32,8.32l4.78,4.78h1.28v1.28L154.7,158l2.78.22.22,2.78,2.52,2.52,2,.07.06,2,4.4,4.39,7.55-.77.77-7.55Zm-15.41-7.09a3.44,3.44,0,1,1,0-4.87,3.44,3.44,0,0,1,0,4.87Z" style="fill:#191919"/><path d="M38.83,128.78c.05.08.09.17.13.25A.94.94,0,0,1,38.83,128.78Z" style="fill:none"/><path d="M33.1,132.63c-.06-.1-.1-.2-.16-.3C33,132.43,33,132.53,33.1,132.63Z" style="fill:none"/><path d="M32.78,132a1,1,0,0,1-.06-.22A1,1,0,0,0,32.78,132Z" style="fill:none"/><path d="M39.14,129.4a4,4,0,0,1,.15.49A4,4,0,0,0,39.14,129.4Z" style="fill:none"/><path d="M39.4,130.71a3.43,3.43,0,0,1-6.18,2.07,3.68,3.68,0,0,0,.31.38h0A3.44,3.44,0,0,0,39.31,130,3.83,3.83,0,0,1,39.4,130.71Z" style="fill:none"/><path d="M53.81,140.48a14.94,14.94,0,1,0-24.44,5h0a14.87,14.87,0,0,0,16.11,3.31l4.78,4.78h1.29v1.28L54.69,158l2.78.22.22,2.78,2.52,2.52,2,.07.06,2,4.4,4.39,7.56-.77.77-7.55ZM38.39,133.4a3.46,3.46,0,0,1-4.86,0h0c-.11-.12-.21-.25-.31-.38l-.12-.14c-.06-.1-.1-.2-.16-.3l-.16-.3-.06-.22a3.81,3.81,0,0,1-.2-1.1,3.44,3.44,0,0,1,6.3-1.93c0,.08.08.17.13.25l.18.34a4,4,0,0,1,.15.49v.14a3.42,3.42,0,0,1-.89,3.15Z" style="fill:#fff"/><path d="M39.29,129.89V130A.5.5,0,0,0,39.29,129.89Z" style="fill:#fff"/><path d="M33.22,132.78l-.12-.14Z" style="fill:#fff"/><path d="M39,129.06l.18.34Z" style="fill:#fff"/><path d="M32.94,132.33l-.16-.3Z" style="fill:#fff"/><path d="M33.54,128.29a3.42,3.42,0,0,1,4.85,0h0a4.4,4.4,0,0,1,.43.52,3.44,3.44,0,0,0-6.31,1.9,3.24,3.24,0,0,0,.2,1.1A3.4,3.4,0,0,1,33.54,128.29Z" style="fill:#fff"/><path d="M260.13,936.09H239.86a1,1,0,0,1-.76-.33.87.87,0,0,1-.2-.8l2.26-9.23a1,1,0,0,1,1-.73h15.76a1,1,0,0,1,.95.73l2.26,9.23a.85.85,0,0,1-.2.8A1,1,0,0,1,260.13,936.09Zm-19-1.93H258.9l-1.78-7.3H242.88Z" style="fill:#19c819"/><path d="M272.12,975H227.88a2.88,2.88,0,0,1-2.95-2.81h0V946.85a2.88,2.88,0,0,1,2.89-2.86h44.3a2.88,2.88,0,0,1,2.95,2.81h0v25.34A2.93,2.93,0,0,1,272.12,975Z" style="fill:#199619"/><path d="M271.64,956.87H228.32a5.73,5.73,0,0,1-5.82-5.63h0V934.41A2.43,2.43,0,0,1,225,932H275a2.44,2.44,0,0,1,2.46,2.38h0v16.83a5.75,5.75,0,0,1-5.84,5.63Z" style="fill:#32e14b"/><path d="M266.23,962.7h-2.6a.94.94,0,0,1-1-.89h0v-3a.93.93,0,0,1,.92-.93h2.65a.93.93,0,0,1,1,.89h0v3a.93.93,0,0,1-.92.93h0Z" style="fill:#32e14b"/><path d="M267.33,959.78h-4.8a.92.92,0,0,1-1-.87h0v-5.22a.93.93,0,0,1,.92-.93h4.84a.93.93,0,0,1,1,.89h0v5.21a.92.92,0,0,1-.91.92h-.05Z" style="fill:#32c864"/><path d="M236.36,962.7h-2.6a.91.91,0,0,1-.95-.88h0v-3a.91.91,0,0,1,.9-.93h2.65a.94.94,0,0,1,1,.89h0v3A1,1,0,0,1,236.36,962.7Z" style="fill:#32e14b"/><path d="M237.46,959.78h-4.8a.91.91,0,0,1-.95-.86h0v-5.23a.92.92,0,0,1,.9-.93h4.85a.93.93,0,0,1,1,.89h0v5.21A1,1,0,0,1,237.46,959.78Z" style="fill:#32c864"/><rect x="263.08" y="931.96" width="3.7" height="20.8" style="fill:#199619"/><rect x="233.21" y="931.96" width="3.7" height="20.8" style="fill:#199619"/><path d="M360.1,936.09H339.83a1,1,0,0,1-.75-.33.81.81,0,0,1-.21-.8l2.26-9.23a1,1,0,0,1,1-.73h15.76a1,1,0,0,1,1,.73l2.26,9.23a.81.81,0,0,1-.21.8A1,1,0,0,1,360.1,936.09Zm-19-1.93h17.8l-1.78-7.3H342.84Z" style="fill:#3200af"/><path d="M372.09,975H327.84a2.88,2.88,0,0,1-2.94-2.83h0V946.85a2.88,2.88,0,0,1,2.91-2.86h44.28a2.88,2.88,0,0,1,2.94,2.83h0v25.32A2.92,2.92,0,0,1,372.09,975Z" style="fill:#32007d"/><path d="M371.61,956.87H328.32a5.72,5.72,0,0,1-5.82-5.63h0V934.41A2.42,2.42,0,0,1,325,932H375a2.42,2.42,0,0,1,2.47,2.37h0v16.85a5.75,5.75,0,0,1-5.86,5.63h0Z" style="fill:#6400fa"/><path d="M366.2,962.7h-2.6a.92.92,0,0,1-1-.84v-3.09a.91.91,0,0,1,.89-.93h2.71a.93.93,0,0,1,1,.84v3.09a.91.91,0,0,1-.89.93h-.11Z" style="fill:#6400fa"/><path d="M367.29,959.78H362.5a.93.93,0,0,1-1-.84v-5.25a.91.91,0,0,1,.89-.93h4.9a1,1,0,0,1,1,.86v5.24a.92.92,0,0,1-.92.92h-.08Z" style="fill:#3200af"/><path d="M336.33,962.7h-2.6a.94.94,0,0,1-1-.86v-3.07a.93.93,0,0,1,.93-.93h2.67a.92.92,0,0,1,1,.84v3.09A1,1,0,0,1,336.33,962.7Z" style="fill:#6400fa"/><path d="M337.43,959.78h-4.79a.93.93,0,0,1-1-.84v-5.25a.91.91,0,0,1,.89-.93h4.9a.93.93,0,0,1,1,.84v5.26A1,1,0,0,1,337.43,959.78Z" style="fill:#3200af"/><rect x="363.05" y="931.96" width="3.7" height="20.8" style="fill:#4b00c8"/><rect x="333.19" y="931.96" width="3.7" height="20.8" style="fill:#4b00c8"/><path d="M60.11,936.09H39.83a1,1,0,0,1-.75-.33.81.81,0,0,1-.21-.8l2.26-9.23a1,1,0,0,1,1-.73H57.84a1,1,0,0,1,1,.73L61.06,935a.83.83,0,0,1-.2.8A1,1,0,0,1,60.11,936.09Zm-19-1.93H58.89l-1.78-7.3H42.85Z" style="fill:#afafaf"/><path d="M72.09,975H27.84a2.89,2.89,0,0,1-3-2.8h0V946.85a2.88,2.88,0,0,1,2.9-2.86H72.09a2.88,2.88,0,0,1,3,2.8h0v25.35A3,3,0,0,1,72.09,975Z" style="fill:#afafaf"/><path d="M71.6,958.35H28.33a5.86,5.86,0,0,1-5.83-5.9h0V934.84a2.47,2.47,0,0,1,2.44-2.49H75a2.47,2.47,0,0,1,2.47,2.46v0h0v17.61a5.89,5.89,0,0,1-5.85,5.9Z" style="fill:#fff"/><path d="M66.2,964.45H63.59a1,1,0,0,1-1-1v-3.12a1,1,0,0,1,1-1H66.2a1,1,0,0,1,1,1v3.12A1,1,0,0,1,66.2,964.45Z" style="fill:#fff"/><path d="M67.3,961.4H62.5a1,1,0,0,1-1-1V955a1,1,0,0,1,1-1h4.8a1,1,0,0,1,1,1v5.41A1,1,0,0,1,67.3,961.4Z" style="fill:#969696"/><path d="M36.34,964.45H33.73a1,1,0,0,1-1-1v-3.12a1,1,0,0,1,1-1h2.61a1,1,0,0,1,1,1v3.12A1,1,0,0,1,36.34,964.45Z" style="fill:#fff"/><path d="M37.44,961.4h-4.8a1,1,0,0,1-1-1V955a1,1,0,0,1,1-1h4.8a1,1,0,0,1,1,1v5.41A1,1,0,0,1,37.44,961.4Z" style="fill:#969696"/><rect x="63.05" y="932.28" width="3.69" height="21.77" style="fill:#c8c8c8"/><rect x="33.19" y="932.28" width="3.69" height="21.77" style="fill:#c8c8c8"/><path d="M249.88,732.07c3,0,5.35-3.07,5.35-6.89s-2.39-5.18-5.35-5.18-5.36,1.44-5.36,5.18S246.91,732.07,249.88,732.07Z" style="fill:#32e14b"/><path d="M249.88,732.07c3,0,5.35-3.07,5.35-6.89s-2.39-5.18-5.35-5.18" style="fill:#19c819"/><path d="M252.46,733.4h-5a6.83,6.83,0,0,0-6.81,6.71l-.09,9.77a6.85,6.85,0,0,0,2.88,5.55c0,.2-.1.39-.1.58l-.09,21A2.86,2.86,0,0,0,246,779.9a2.93,2.93,0,0,0,2.87-2.77l.1-14.27h1.53l-.1,14.27a2.93,2.93,0,0,0,2.77,2.87,2.87,2.87,0,0,0,2.87-2.78l.1-21a1,1,0,0,0-.1-.57,6.69,6.69,0,0,0,2.88-5.47l.1-9.76a6.62,6.62,0,0,0-6.18-7h-.4Z" style="fill:#32e14b"/><path d="M249,777l.09-14.28h1.53L250.55,777a2.82,2.82,0,0,0,5.64.09l.1-21a1.15,1.15,0,0,0-.1-.58A6.66,6.66,0,0,0,259,750l.09-9.76a6.75,6.75,0,0,0-6.69-6.81h-5" style="fill:#19c819"/><path d="M269.4,734.36c2.59,0,4.7-2.68,4.7-6s-2.11-4.5-4.7-4.5-4.69,1.25-4.69,4.5S266.82,734.36,269.4,734.36Z" style="fill:#32e14b"/><path d="M269.4,734.36c2.59,0,4.7-2.68,4.7-6s-2.11-4.5-4.7-4.5" style="fill:#19c819"/><path d="M271.61,735.52H267.3a5.79,5.79,0,0,0-5.84,5.74h0v8.52a5.7,5.7,0,0,0,2.49,4.78c0,.19-.1.3-.1.49l-.09,18.28a2.44,2.44,0,0,0,4.86.4v-.3l.1-12.45H270l-.1,12.45a2.45,2.45,0,1,0,4.89.09l.1-18.28v-.49A5.73,5.73,0,0,0,277.4,750l.1-8.52A6,6,0,0,0,271.61,735.52Z" style="fill:#32e14b"/><path d="M268.63,773.43l.1-12.45H270l-.1,12.45a2.45,2.45,0,1,0,4.89.09l.1-18.28v-.49A5.73,5.73,0,0,0,277.4,750l.1-8.52a5.8,5.8,0,0,0-5.76-5.84h-4.39" style="fill:#19c819"/><path d="M230.45,734.36c2.58,0,4.69-2.68,4.69-6s-2.11-4.5-4.69-4.5-4.7,1.25-4.7,4.5S227.86,734.36,230.45,734.36Z" style="fill:#32e14b"/><path d="M230.45,734.36c2.58,0,4.69-2.68,4.69-6s-2.11-4.5-4.69-4.5" style="fill:#19c819"/><path d="M232.74,735.52h-4.31a5.78,5.78,0,0,0-5.83,5.75h0v.08l-.1,8.53a5.7,5.7,0,0,0,2.49,4.78c0,.19-.1.3-.1.49l-.09,18.28a2.44,2.44,0,0,0,4.88.09l.1-12.44h1.34l-.1,12.44a2.44,2.44,0,1,0,4.88.1h0l.1-18.28v-.49a5.73,5.73,0,0,0,2.48-4.78l.1-8.53A6,6,0,0,0,232.74,735.52Z" style="fill:#32e14b"/><path d="M229.68,773.43l.1-12.45h1.34l-.1,12.45a2.44,2.44,0,1,0,4.88.09l.1-18.28v-.49a5.83,5.83,0,0,0,2.48-4.78v-8.43a5.79,5.79,0,0,0-5.75-5.83h-4.4" style="fill:#19c819"/><path d="M349.88,732.07c3,0,5.35-3.07,5.35-6.89s-2.39-5.18-5.35-5.18-5.36,1.44-5.36,5.18S346.91,732.07,349.88,732.07Z" style="fill:#6400fa"/><path d="M349.88,732.07c3,0,5.35-3.07,5.35-6.89s-2.39-5.18-5.35-5.18" style="fill:#3200af"/><path d="M352.46,733.4h-5a6.83,6.83,0,0,0-6.81,6.71l-.09,9.77a6.85,6.85,0,0,0,2.88,5.55c0,.2-.1.39-.1.58l-.09,21A2.86,2.86,0,0,0,346,779.9a2.93,2.93,0,0,0,2.87-2.77l.1-14.27h1.53l-.1,14.27a2.93,2.93,0,0,0,2.77,2.87,2.87,2.87,0,0,0,2.87-2.78l.1-21a1,1,0,0,0-.1-.57,6.69,6.69,0,0,0,2.88-5.47l.1-9.76a6.62,6.62,0,0,0-6.18-7h-.4Z" style="fill:#6400fa"/><path d="M349,777l.09-14.28h1.53L350.55,777a2.82,2.82,0,0,0,5.64.09l.1-21a1.15,1.15,0,0,0-.1-.58A6.66,6.66,0,0,0,359,750l.09-9.76a6.75,6.75,0,0,0-6.69-6.81h-5" style="fill:#3200af"/><path d="M369.4,734.36c2.59,0,4.7-2.68,4.7-6s-2.11-4.5-4.7-4.5-4.69,1.25-4.69,4.5S366.82,734.36,369.4,734.36Z" style="fill:#6400fa"/><path d="M369.4,734.36c2.59,0,4.7-2.68,4.7-6s-2.11-4.5-4.7-4.5" style="fill:#3200af"/><path d="M371.61,735.52H367.3a5.79,5.79,0,0,0-5.84,5.74h0v8.52a5.7,5.7,0,0,0,2.49,4.78c0,.19-.1.3-.1.49l-.09,18.28a2.44,2.44,0,0,0,4.86.4v-.3l.1-12.45H370l-.1,12.45a2.45,2.45,0,1,0,4.89.09l.1-18.28v-.49A5.73,5.73,0,0,0,377.4,750l.1-8.52A6,6,0,0,0,371.61,735.52Z" style="fill:#6400fa"/><path d="M368.63,773.43l.1-12.45H370l-.1,12.45a2.45,2.45,0,1,0,4.89.09l.1-18.28v-.49A5.73,5.73,0,0,0,377.4,750l.1-8.52a5.8,5.8,0,0,0-5.76-5.84h-4.39" style="fill:#3200af"/><path d="M330.45,734.36c2.58,0,4.69-2.68,4.69-6s-2.11-4.5-4.69-4.5-4.7,1.25-4.7,4.5S327.86,734.36,330.45,734.36Z" style="fill:#6400fa"/><path d="M330.45,734.36c2.58,0,4.69-2.68,4.69-6s-2.11-4.5-4.69-4.5" style="fill:#3200af"/><path d="M332.74,735.52h-4.31a5.78,5.78,0,0,0-5.83,5.75h0v.08l-.1,8.53a5.7,5.7,0,0,0,2.49,4.78c0,.19-.1.3-.1.49l-.09,18.28a2.44,2.44,0,0,0,4.88.09l.1-12.44h1.34l-.1,12.44a2.44,2.44,0,1,0,4.88.1h0l.1-18.28v-.49a5.73,5.73,0,0,0,2.48-4.78l.1-8.53A6,6,0,0,0,332.74,735.52Z" style="fill:#6400fa"/><path d="M329.68,773.43l.1-12.45h1.34l-.1,12.45a2.44,2.44,0,1,0,4.88.09l.1-18.28v-.49a5.83,5.83,0,0,0,2.48-4.78v-8.43a5.79,5.79,0,0,0-5.75-5.83h-4.4" style="fill:#3200af"/><path d="M149.88,732.05c3,0,5.35-3.06,5.35-6.89s-2.39-5.16-5.35-5.16-5.36,1.43-5.36,5.16S146.91,732.05,149.88,732.05Z" style="fill:#646464"/><path d="M149.88,732.05c3,0,5.35-3.06,5.35-6.89s-2.39-5.16-5.35-5.16" style="fill:#191919"/><path d="M152.46,733.39h-5a6.81,6.81,0,0,0-6.81,6.7l-.09,9.75a6.87,6.87,0,0,0,2.88,5.55c0,.19-.1.38-.1.56l-.09,21a2.84,2.84,0,0,0,2.77,2.87,3,3,0,0,0,2.87-2.78l.13-14.21h1.53l-.1,14.25a2.92,2.92,0,0,0,2.77,2.87,2.86,2.86,0,0,0,2.87-2.77l.1-21a1,1,0,0,0-.1-.57,6.66,6.66,0,0,0,2.88-5.46l.1-9.76a6.58,6.58,0,0,0-6.14-6.94Z" style="fill:#646464"/><path d="M149,776.9l.09-14.25h1.53l-.09,14.25a2.82,2.82,0,0,0,5.64.1h0l.1-21a1,1,0,0,0-.1-.56A6.69,6.69,0,0,0,159,750l.09-9.76a6.73,6.73,0,0,0-6.67-6.78h-5" style="fill:#191919"/><path d="M169.4,734.34c2.59,0,4.7-2.68,4.7-6s-2.11-4.5-4.7-4.5-4.69,1.24-4.69,4.5S166.82,734.34,169.4,734.34Z" style="fill:#646464"/><path d="M169.4,734.34c2.59,0,4.7-2.68,4.7-6s-2.11-4.5-4.7-4.5" style="fill:#191919"/><path d="M171.61,735.49H167.3a5.81,5.81,0,0,0-5.84,5.76v8.49a5.74,5.74,0,0,0,2.49,4.79c0,.18-.1.28-.1.47l-.09,18.27a2.44,2.44,0,0,0,4.85.59,1.27,1.27,0,0,0,0-.2v-.3l.1-12.43H170l-.1,12.43a2.45,2.45,0,0,0,4.89.1l.1-18.27v-.48a5.68,5.68,0,0,0,2.48-4.78l.1-8.51A6,6,0,0,0,171.61,735.49Z" style="fill:#646464"/><path d="M168.63,773.36l.1-12.43H170l-.1,12.43a2.45,2.45,0,0,0,4.89.1l.1-18.27v-.48a5.68,5.68,0,0,0,2.48-4.78l.1-8.51a5.79,5.79,0,0,0-5.75-5.83h-4.4" style="fill:#191919"/><path d="M130.45,734.34c2.58,0,4.69-2.68,4.69-6s-2.11-4.5-4.69-4.5-4.7,1.24-4.7,4.5S127.86,734.34,130.45,734.34Z" style="fill:#646464"/><path d="M130.45,734.34c2.58,0,4.69-2.68,4.69-6s-2.11-4.5-4.69-4.5" style="fill:#191919"/><path d="M132.74,735.49h-4.31a5.81,5.81,0,0,0-5.83,5.77v.07l-.1,8.51a5.71,5.71,0,0,0,2.49,4.77c0,.2-.1.29-.1.49l-.09,18.26a2.45,2.45,0,0,0,4.87.4v-.3l.1-12.43h1.34l-.1,12.43a2.44,2.44,0,0,0,4.88.1l.1-18.27v-.48a5.69,5.69,0,0,0,2.48-4.78l.1-8.51A6,6,0,0,0,132.74,735.49Z" style="fill:#646464"/><path d="M129.68,773.36l.1-12.43h1.34l-.1,12.43a2.44,2.44,0,0,0,4.88.1l.1-18.27v-.48a5.84,5.84,0,0,0,2.48-4.78v-8.41a5.81,5.81,0,0,0-5.76-5.84h-4.39" style="fill:#191919"/><path d="M49.86,732.06c3,0,5.35-3.07,5.35-6.89S52.82,720,49.86,720s-5.36,1.44-5.36,5.17S46.89,732.06,49.86,732.06Z" style="fill:#fff"/><path d="M49.86,732.06c3,0,5.35-3.07,5.35-6.89S52.82,720,49.86,720" style="fill:#afafaf"/><path d="M52.44,733.39h-5a6.83,6.83,0,0,0-6.8,6.7l-.09,9.77a6.85,6.85,0,0,0,2.87,5.54c0,.2-.1.39-.1.58l-.09,21A2.86,2.86,0,0,0,46,779.85a2.93,2.93,0,0,0,2.87-2.77l.1-14.25H50.5l-.1,14.25A2.93,2.93,0,0,0,53.2,780a2.87,2.87,0,0,0,2.87-2.78l.1-21a1.1,1.1,0,0,0-.1-.57,6.71,6.71,0,0,0,2.87-5.46l.1-9.76a6.62,6.62,0,0,0-6.15-7Z" style="fill:#fff"/><path d="M49,776.93l.09-14.26h1.53l-.09,14.26a2.82,2.82,0,1,0,5.64.09l.1-21a1.27,1.27,0,0,0-.1-.58A6.67,6.67,0,0,0,59,750l.09-9.76a6.75,6.75,0,0,0-6.68-6.8h-5" style="fill:#afafaf"/><path d="M69.37,734.35c2.58,0,4.69-2.68,4.69-6s-2.11-4.49-4.69-4.49-4.69,1.24-4.69,4.49S66.79,734.35,69.37,734.35Z" style="fill:#fff"/><path d="M69.37,734.35c2.58,0,4.69-2.68,4.69-6s-2.11-4.49-4.69-4.49" style="fill:#afafaf"/><path d="M71.57,735.5h-4.3a5.79,5.79,0,0,0-5.84,5.74h0v8.52a5.72,5.72,0,0,0,2.49,4.78c0,.19-.1.29-.1.48l-.09,18.27a2.44,2.44,0,0,0,4.86.4v-.3l.1-12.44H70l-.1,12.44a2.44,2.44,0,0,0,4.88.09l.1-18.27v-.48A5.72,5.72,0,0,0,77.4,750l.1-8.52A6,6,0,0,0,71.57,735.5Z" style="fill:#fff"/><path d="M68.6,773.39,68.7,761H70l-.1,12.44a2.44,2.44,0,0,0,4.88.09l.1-18.27v-.48A5.72,5.72,0,0,0,77.4,750l.1-8.52a5.8,5.8,0,0,0-5.76-5.84H67.36" style="fill:#afafaf"/><path d="M30.44,734.35c2.58,0,4.69-2.68,4.69-6s-2.11-4.49-4.69-4.49-4.69,1.24-4.69,4.49S27.86,734.35,30.44,734.35Z" style="fill:#fff"/><path d="M30.44,734.35c2.58,0,4.69-2.68,4.69-6s-2.11-4.49-4.69-4.49" style="fill:#afafaf"/><path d="M32.73,735.5h-4.3a5.79,5.79,0,0,0-5.83,5.75h0v.08l-.1,8.53A5.72,5.72,0,0,0,25,754.64c0,.19-.1.29-.1.48l-.09,18.27a2.44,2.44,0,0,0,4.87.09l.1-12.43h1.34L31,773.48a2.44,2.44,0,1,0,4.88.1l.1-18.27v-.48A5.76,5.76,0,0,0,38.47,750l.1-8.52A6,6,0,0,0,32.73,735.5Z" style="fill:#fff"/><path d="M29.67,773.39l.1-12.44h1.34L31,773.39a2.44,2.44,0,0,0,4.88.09l.1-18.27v-.48a5.85,5.85,0,0,0,2.48-4.79v-8.42a5.79,5.79,0,0,0-5.75-5.83H28.33" style="fill:#afafaf"/><path d="M46.46,1050l-23.59,19.6a1.36,1.36,0,0,1-.37-.94v-37.32a1.36,1.36,0,0,1,.37-.94Z" style="fill:#afafaf"/><path d="M77.5,1031.34v37.32a1.36,1.36,0,0,1-.37.94L53.54,1050l23.59-19.6A1.36,1.36,0,0,1,77.5,1031.34Z" style="fill:#afafaf"/><path d="M76.19,1030H23.81a1.3,1.3,0,0,0-1,.4L50,1059.35l27.13-28.95A1.3,1.3,0,0,0,76.19,1030Z" style="fill:#fff"/><path d="M58.78,1050l18.37,19.6a1.3,1.3,0,0,1-1,.4H23.81a1.3,1.3,0,0,1-1-.4L41.22,1050l8.78,9.35Z" style="fill:#c8c8c8"/><path d="M146.46,1050l-23.59,19.6a1.36,1.36,0,0,1-.37-.94v-37.32a1.36,1.36,0,0,1,.37-.94Z" style="fill:#191919"/><path d="M177.5,1031.34v37.32a1.36,1.36,0,0,1-.37.94L153.54,1050l23.59-19.6A1.36,1.36,0,0,1,177.5,1031.34Z" style="fill:#191919"/><path d="M176.19,1030H123.81a1.3,1.3,0,0,0-1,.4L150,1059.35l27.13-28.95A1.29,1.29,0,0,0,176.19,1030Z" style="fill:#646464"/><path d="M158.78,1050l18.37,19.6a1.3,1.3,0,0,1-1,.4H123.81a1.3,1.3,0,0,1-1-.4l18.39-19.6,8.78,9.35Z" style="fill:#323232"/><path d="M346.46,1050l-23.59,19.6a1.36,1.36,0,0,1-.37-.94v-37.32a1.36,1.36,0,0,1,.37-.94Z" style="fill:#32007d"/><path d="M377.5,1031.34v37.32a1.36,1.36,0,0,1-.37.94L353.54,1050l23.59-19.6A1.36,1.36,0,0,1,377.5,1031.34Z" style="fill:#32007d"/><path d="M376.19,1030H323.81a1.3,1.3,0,0,0-1,.4L350,1059.35l27.13-28.95A1.29,1.29,0,0,0,376.19,1030Z" style="fill:#6400fa"/><path d="M358.78,1050l18.37,19.6a1.3,1.3,0,0,1-1,.4H323.81a1.3,1.3,0,0,1-1-.4l18.39-19.6,8.78,9.35Z" style="fill:#3200af"/><path d="M246.46,1050l-23.59,19.6a1.36,1.36,0,0,1-.37-.94v-37.32a1.36,1.36,0,0,1,.37-.94Z" style="fill:#199619"/><path d="M277.5,1031.34v37.32a1.36,1.36,0,0,1-.37.94L253.54,1050l23.59-19.6A1.36,1.36,0,0,1,277.5,1031.34Z" style="fill:#199619"/><path d="M276.19,1030H223.81a1.3,1.3,0,0,0-1,.4L250,1059.35l27.13-28.95A1.29,1.29,0,0,0,276.19,1030Z" style="fill:#32e14b"/><path d="M258.78,1050l18.37,19.6a1.3,1.3,0,0,1-1,.4H223.81a1.3,1.3,0,0,1-1-.4l18.39-19.6,8.78,9.35Z" style="fill:#19c819"/><polygon points="62.21 1340.31 50 1375 80 1340.31 62.21 1340.31" style="fill:#fff"/><polygon points="32.41 1325 20 1340.31 37.79 1340.31 32.41 1325" style="fill:#c8c8c8"/><polygon points="62.21 1340.31 80 1340.31 67.59 1325 62.21 1340.31" style="fill:#c8c8c8"/><polygon points="62.21 1340.31 50 1325 37.79 1340.31 62.21 1340.31" style="fill:#c8c8c8"/><polygon points="50 1325 32.41 1325 37.79 1340.31 50 1325" style="fill:#afafaf"/><polygon points="67.59 1325 50 1325 62.21 1340.31 67.59 1325" style="fill:#fff"/><polygon points="37.79 1340.31 50 1375 62.21 1340.31 37.79 1340.31" style="fill:#afafaf"/><polygon points="20 1340.31 50 1375 37.79 1340.31 20 1340.31" style="fill:#fff"/><polygon points="362.21 1340.31 350 1375 380 1340.31 362.21 1340.31" style="fill:#4b00c8"/><polygon points="332.41 1325 320 1340.31 337.79 1340.31 332.41 1325" style="fill:#4b00c8"/><polygon points="362.21 1340.31 380 1340.31 367.59 1325 362.21 1340.31" style="fill:#32007d"/><polygon points="362.21 1340.31 350 1325 337.79 1340.31 362.21 1340.31" style="fill:#32007d"/><polygon points="350 1325 332.41 1325 337.79 1340.31 350 1325" style="fill:#6400fa"/><polygon points="367.59 1325 350 1325 362.21 1340.31 367.59 1325" style="fill:#6400fa"/><polygon points="337.79 1340.31 350 1375 362.21 1340.31 337.79 1340.31" style="fill:#3200af"/><polygon points="320 1340.31 350 1375 337.79 1340.31 320 1340.31" style="fill:#32007d"/><polygon points="262.21 1340.31 250 1375 280 1340.31 262.21 1340.31" style="fill:#32e14b"/><polygon points="232.41 1325 220 1340.31 237.79 1340.31 232.41 1325" style="fill:#19c819"/><polygon points="262.21 1340.31 280 1340.31 267.59 1325 262.21 1340.31" style="fill:#199619"/><polygon points="262.21 1340.31 250 1325 237.79 1340.31 262.21 1340.31" style="fill:#199619"/><polygon points="250 1325 232.41 1325 237.79 1340.31 250 1325" style="fill:#32e14b"/><polygon points="267.59 1325 250 1325 262.21 1340.31 267.59 1325" style="fill:#32c864"/><polygon points="237.79 1340.31 250 1375 262.21 1340.31 237.79 1340.31" style="fill:#32c864"/><polygon points="220 1340.31 250 1375 237.79 1340.31 220 1340.31" style="fill:#199619"/><polygon points="162.21 1340.31 150 1375 180 1340.31 162.21 1340.31" style="fill:#646464"/><polygon points="132.41 1325 120 1340.31 137.79 1340.31 132.41 1325" style="fill:#191919"/><polygon points="162.21 1340.31 180 1340.31 167.59 1325 162.21 1340.31" style="fill:#191919"/><polygon points="162.21 1340.31 150 1325 137.79 1340.31 162.21 1340.31" style="fill:#191919"/><polygon points="150 1325 132.41 1325 137.79 1340.31 150 1325" style="fill:#323232"/><polygon points="167.59 1325 150 1325 162.21 1340.31 167.59 1325" style="fill:#646464"/><polygon points="137.79 1340.31 150 1375 162.21 1340.31 137.79 1340.31" style="fill:#323232"/><polygon points="120 1340.31 150 1375 137.79 1340.31 120 1340.31"/><path d="M31.65,1425h9.64a6.62,6.62,0,0,1,6.65,6.59v9.55a6.62,6.62,0,0,1-6.65,6.59H31.65a6.62,6.62,0,0,1-6.65-6.59v-9.55A6.62,6.62,0,0,1,31.65,1425Z" style="fill:#fff"/><path d="M58.71,1425h9.64a6.62,6.62,0,0,1,6.65,6.59v9.55a6.62,6.62,0,0,1-6.65,6.59H58.71a6.62,6.62,0,0,1-6.65-6.59v-9.55A6.62,6.62,0,0,1,58.71,1425Z" style="fill:#c8c8c8"/><path d="M31.65,1452.27h9.64a6.62,6.62,0,0,1,6.65,6.59v9.55a6.62,6.62,0,0,1-6.65,6.59H31.65a6.62,6.62,0,0,1-6.65-6.59v-9.55A6.62,6.62,0,0,1,31.65,1452.27Z" style="fill:#c8c8c8"/><path d="M58.71,1452.27h9.64a6.62,6.62,0,0,1,6.65,6.59v9.55a6.62,6.62,0,0,1-6.65,6.59H58.71a6.62,6.62,0,0,1-6.65-6.59v-9.55A6.62,6.62,0,0,1,58.71,1452.27Z" style="fill:#c8c8c8"/><path d="M131.65,1425h9.64a6.59,6.59,0,0,1,6.65,6.53V1441a6.6,6.6,0,0,1-6.65,6.53h-9.64A6.6,6.6,0,0,1,125,1441v-9.47A6.59,6.59,0,0,1,131.65,1425Z" style="fill:#646464"/><path d="M158.71,1425h9.64a6.59,6.59,0,0,1,6.65,6.53V1441a6.6,6.6,0,0,1-6.65,6.53h-9.64a6.6,6.6,0,0,1-6.65-6.53v-9.47A6.59,6.59,0,0,1,158.71,1425Z" style="fill:#191919"/><path d="M131.65,1452h9.64a6.6,6.6,0,0,1,6.65,6.53V1468a6.6,6.6,0,0,1-6.65,6.53h-9.64A6.6,6.6,0,0,1,125,1468v-9.47A6.6,6.6,0,0,1,131.65,1452Z" style="fill:#191919"/><path d="M158.71,1452.47h9.64A6.6,6.6,0,0,1,175,1459v9.47a6.59,6.59,0,0,1-6.65,6.53h-9.64a6.59,6.59,0,0,1-6.65-6.53V1459A6.6,6.6,0,0,1,158.71,1452.47Z" style="fill:#191919"/><path d="M331.65,1425h9.64a6.62,6.62,0,0,1,6.65,6.59v9.55a6.62,6.62,0,0,1-6.65,6.59h-9.64a6.62,6.62,0,0,1-6.65-6.59v-9.55A6.62,6.62,0,0,1,331.65,1425Z" style="fill:#6400fa"/><path d="M358.71,1425h9.64a6.62,6.62,0,0,1,6.65,6.59v9.55a6.62,6.62,0,0,1-6.65,6.59h-9.64a6.62,6.62,0,0,1-6.65-6.59v-9.55A6.62,6.62,0,0,1,358.71,1425Z" style="fill:#4b00c8"/><path d="M331.65,1452.27h9.64a6.62,6.62,0,0,1,6.65,6.59v9.55a6.62,6.62,0,0,1-6.65,6.59h-9.64a6.62,6.62,0,0,1-6.65-6.59v-9.55A6.62,6.62,0,0,1,331.65,1452.27Z" style="fill:#3200af"/><path d="M358.71,1452.27h9.64a6.62,6.62,0,0,1,6.65,6.59v9.55a6.62,6.62,0,0,1-6.65,6.59h-9.64a6.62,6.62,0,0,1-6.65-6.59v-9.55A6.62,6.62,0,0,1,358.71,1452.27Z" style="fill:#32007d"/><path d="M231.65,1425h9.64a6.62,6.62,0,0,1,6.65,6.59v9.55a6.62,6.62,0,0,1-6.65,6.59h-9.64a6.62,6.62,0,0,1-6.65-6.59v-9.55A6.62,6.62,0,0,1,231.65,1425Z" style="fill:#32e14b"/><path d="M258.71,1425h9.64a6.62,6.62,0,0,1,6.65,6.59v9.55a6.62,6.62,0,0,1-6.65,6.59h-9.64a6.62,6.62,0,0,1-6.65-6.59v-9.55A6.62,6.62,0,0,1,258.71,1425Z" style="fill:#19c819"/><path d="M231.65,1452.27h9.64a6.62,6.62,0,0,1,6.65,6.59v9.55a6.62,6.62,0,0,1-6.65,6.59h-9.64a6.62,6.62,0,0,1-6.65-6.59v-9.55A6.62,6.62,0,0,1,231.65,1452.27Z" style="fill:#19c819"/><path d="M258.71,1452.27h9.64a6.62,6.62,0,0,1,6.65,6.59v9.55a6.62,6.62,0,0,1-6.65,6.59h-9.64a6.62,6.62,0,0,1-6.65-6.59v-9.55A6.62,6.62,0,0,1,258.71,1452.27Z" style="fill:#199619"/><path d="M126.14,549.06h0a1.57,1.57,0,0,0,.71-.4l4.43-4.27a1.52,1.52,0,0,0,0-2.19,1.62,1.62,0,0,0-.75-.43l-1.29-.34A22.5,22.5,0,0,1,150,528.12h0a22.75,22.75,0,0,1,3.8.32h.06c.58.1,1.16.22,1.73.36l.33.09c.38.1.77.22,1.15.34l.79.27.94.37c.34.14.67.29,1,.44l.33.16a22,22,0,0,1,11.7,14.41,1.61,1.61,0,0,0,1.88,1.26,1.57,1.57,0,0,0,1.3-1.83.83.83,0,0,0,0-.15,19.78,19.78,0,0,0-.55-1.9l-.09-.27c-.21-.62-.45-1.22-.7-1.8l-.08-.18a25,25,0,0,0-3.18-5.26l0,0a25.28,25.28,0,0,0-4.35-4.3l-.14-.11q-.78-.58-1.59-1.11l-.15-.1a25.64,25.64,0,0,0-3.47-1.86l-.21-.1c-.59-.25-1.19-.49-1.8-.7l-.21-.07a26.13,26.13,0,0,0-6.18-1.29h0q-1.07-.09-2.16-.09h0a26.7,26.7,0,0,0-6,.68,25.49,25.49,0,0,0-17.88,14.94l-1.61-.43a1.61,1.61,0,0,0-2,1.06,1.47,1.47,0,0,0,0,.88l1.59,5.82A1.61,1.61,0,0,0,126.14,549.06Z" style="fill:#191919"/><path d="M177.43,557.85,175.84,552a1.63,1.63,0,0,0-2-1.11h0a1.48,1.48,0,0,0-.71.4l-4.43,4.26a1.53,1.53,0,0,0,0,2.2,1.7,1.7,0,0,0,.75.42l1.29.34c-.2.46-.42.91-.65,1.35l-.14.26A22.49,22.49,0,0,1,150,571.82v0a23.07,23.07,0,0,1-8.79-1.74,22,22,0,0,1-13.09-15,1.58,1.58,0,0,0-1.69-1.48,1.57,1.57,0,0,0-1.52,1.63c0,.06,0,.11,0,.16a2.13,2.13,0,0,0,.1.42c3.29,13.41,17.15,21.69,31,18.5a25.52,25.52,0,0,0,17.88-14.94l1.6.42a1.68,1.68,0,0,0,1.11-.13,1.56,1.56,0,0,0,.86-1v0A1.59,1.59,0,0,0,177.43,557.85Z" style="fill:#191919"/><path d="M226.14,549.06h0a1.57,1.57,0,0,0,.71-.4l4.43-4.27a1.52,1.52,0,0,0,0-2.19,1.62,1.62,0,0,0-.75-.43l-1.29-.34A22.5,22.5,0,0,1,250,528.12h0a22.75,22.75,0,0,1,3.8.32h.06c.59.1,1.16.22,1.73.36l.33.09c.38.1.77.22,1.15.34l.79.27.94.37c.34.14.67.29,1,.44l.33.16a22,22,0,0,1,11.7,14.41,1.63,1.63,0,0,0,2,1.07,1.57,1.57,0,0,0,1.14-1.79,19.78,19.78,0,0,0-.55-1.9l-.09-.27c-.21-.62-.45-1.22-.7-1.8l-.08-.18a25,25,0,0,0-3.18-5.26l0,0a25.28,25.28,0,0,0-4.35-4.3l-.14-.11q-.78-.58-1.59-1.11l-.15-.1a25.64,25.64,0,0,0-3.47-1.86l-.21-.1c-.59-.25-1.19-.49-1.8-.7l-.21-.07a26.13,26.13,0,0,0-6.18-1.29h0q-1.07-.09-2.16-.09h0a26.7,26.7,0,0,0-6,.68,25.49,25.49,0,0,0-17.88,14.94l-1.61-.43a1.61,1.61,0,0,0-2,1.06,1.47,1.47,0,0,0,0,.88l1.59,5.82A1.61,1.61,0,0,0,226.14,549.06Z" style="fill:#32e14b"/><path d="M277.43,557.85,275.84,552a1.63,1.63,0,0,0-2-1.11h0a1.48,1.48,0,0,0-.71.4l-4.43,4.26a1.53,1.53,0,0,0,0,2.2,1.7,1.7,0,0,0,.75.42l1.29.34c-.2.46-.42.91-.65,1.35l-.14.26A22.49,22.49,0,0,1,250,571.82v0a23.07,23.07,0,0,1-8.79-1.74,22,22,0,0,1-13.09-15,1.58,1.58,0,0,0-1.69-1.48,1.57,1.57,0,0,0-1.52,1.63c0,.06,0,.11,0,.16a2.13,2.13,0,0,0,.1.42c3.29,13.41,17.15,21.69,30.95,18.5a25.52,25.52,0,0,0,17.88-14.94l1.6.42a1.67,1.67,0,0,0,1.11-.13,1.56,1.56,0,0,0,.86-1v0A1.59,1.59,0,0,0,277.43,557.85Z" style="fill:#32e14b"/><path d="M326.14,549.06h0a1.57,1.57,0,0,0,.71-.4l4.43-4.27a1.52,1.52,0,0,0,0-2.19,1.62,1.62,0,0,0-.75-.43l-1.29-.34A22.5,22.5,0,0,1,350,528.12h0a22.75,22.75,0,0,1,3.8.32h.06c.58.1,1.16.22,1.73.36l.33.09c.38.1.77.22,1.15.34l.79.27.94.37c.34.14.67.29,1,.44l.33.16a22,22,0,0,1,11.7,14.41,1.42,1.42,0,0,0,.08.18,1.6,1.6,0,0,0,3.18-.33,1,1,0,0,0,0-.16,1.17,1.17,0,0,0-.1-.41,19.78,19.78,0,0,0-.55-1.9l-.09-.27c-.21-.62-.45-1.22-.7-1.8l-.08-.18a25,25,0,0,0-3.18-5.26l0,0a25.28,25.28,0,0,0-4.35-4.3l-.14-.11q-.78-.58-1.59-1.11l-.15-.1a25.64,25.64,0,0,0-3.47-1.86l-.21-.1c-.59-.25-1.19-.49-1.8-.7l-.21-.07a26.13,26.13,0,0,0-6.18-1.29h0q-1.07-.09-2.16-.09h0a26.7,26.7,0,0,0-6,.68,25.49,25.49,0,0,0-17.88,14.94l-1.61-.43a1.61,1.61,0,0,0-2,1.06,1.47,1.47,0,0,0,0,.88l1.59,5.82A1.61,1.61,0,0,0,326.14,549.06Z" style="fill:#6400fa"/><path d="M377.43,557.85,375.84,552a1.63,1.63,0,0,0-2-1.11h0a1.48,1.48,0,0,0-.71.4l-4.43,4.26a1.53,1.53,0,0,0,0,2.2,1.7,1.7,0,0,0,.75.42l1.29.34c-.2.46-.42.91-.65,1.35l-.14.26A22.49,22.49,0,0,1,350,571.82v0a23.07,23.07,0,0,1-8.79-1.74,22,22,0,0,1-13.09-15,1.63,1.63,0,0,0-2.09-.88,1.57,1.57,0,0,0-1,1.61c3.29,13.41,17.15,21.69,30.95,18.5a25.52,25.52,0,0,0,17.88-14.94l1.6.42a1.68,1.68,0,0,0,1.11-.13,1.56,1.56,0,0,0,.86-1v0A1.59,1.59,0,0,0,377.43,557.85Z" style="fill:#6400fa"/><path d="M26.14,549.06h0a1.57,1.57,0,0,0,.71-.4l4.43-4.27a1.52,1.52,0,0,0,0-2.19,1.62,1.62,0,0,0-.75-.43l-1.29-.34A22.5,22.5,0,0,1,50,528.12h0a22.75,22.75,0,0,1,3.8.32h.06c.59.1,1.16.22,1.73.36l.33.09c.38.1.77.22,1.15.34l.79.27.94.37c.34.14.67.29,1,.44l.33.16a22,22,0,0,1,11.7,14.41,1.61,1.61,0,0,0,1.88,1.26,1.57,1.57,0,0,0,1.3-1.83.83.83,0,0,0,0-.15,19.78,19.78,0,0,0-.55-1.9l-.09-.27c-.21-.61-.45-1.22-.7-1.8l-.08-.18a25,25,0,0,0-3.18-5.26l0,0a25.28,25.28,0,0,0-4.35-4.3l-.14-.11q-.78-.58-1.59-1.11l-.15-.1a25.64,25.64,0,0,0-3.47-1.86l-.21-.1c-.59-.25-1.19-.49-1.79-.7l-.22-.07a26.13,26.13,0,0,0-6.18-1.29h0q-1.06-.09-2.16-.09h0a26.7,26.7,0,0,0-6,.68,25.49,25.49,0,0,0-17.88,14.94l-1.61-.43a1.61,1.61,0,0,0-2,1.06,1.47,1.47,0,0,0,0,.88L24.16,548A1.61,1.61,0,0,0,26.14,549.06Z" style="fill:#fff"/><path d="M77.43,557.85,75.84,552a1.63,1.63,0,0,0-2-1.11h0a1.48,1.48,0,0,0-.71.4l-4.43,4.26a1.53,1.53,0,0,0,0,2.2,1.7,1.7,0,0,0,.75.42l1.29.34c-.2.46-.42.91-.65,1.35l-.14.26A22.49,22.49,0,0,1,50,571.82v0a23.07,23.07,0,0,1-8.79-1.74,22,22,0,0,1-13.09-15,1.62,1.62,0,0,0-2.1-.84,1.56,1.56,0,0,0-1,1.57c3.29,13.41,17.15,21.69,31,18.5a25.52,25.52,0,0,0,17.88-14.94l1.6.42a1.68,1.68,0,0,0,1.32-.25,1.56,1.56,0,0,0,.64-.86v0A1.59,1.59,0,0,0,77.43,557.85Z" style="fill:#fff"/><path d="M62.15,27.76a.91.91,0,0,0-1.14.58h0a.87.87,0,0,0,.24.9,20.88,20.88,0,0,1,9.46,23.35.88.88,0,0,0,.64,1.07h.22a.9.9,0,0,0,.91-.65A22.59,22.59,0,0,0,62.15,27.76Z" style="fill:#afafaf"/><path d="M58.18,66.65a21.67,21.67,0,0,1-24-5.28.92.92,0,0,0-1.27.17.87.87,0,0,0,0,1,23.49,23.49,0,0,0,26,5.71A.87.87,0,0,0,59.14,67,.92.92,0,0,0,58.18,66.65Z" style="fill:#afafaf"/><path d="M44.9,26.74a.89.89,0,0,0,.46-1.18.92.92,0,0,0-.89-.52A22.82,22.82,0,0,0,26.85,45.58a.9.9,0,0,0,.83.89h.07a.89.89,0,0,0,.9-.82A21.08,21.08,0,0,1,44.9,26.74Z" style="fill:#afafaf"/><ellipse cx="50" cy="25.26" rx="5.35" ry="5.26" style="fill:#fff"/><ellipse cx="30.35" cy="57.72" rx="5.35" ry="5.26" style="fill:#fff"/><ellipse cx="69.65" cy="57.72" rx="5.35" ry="5.26" style="fill:#fff"/><path d="M362.15,27.76a.91.91,0,0,0-1.14.58h0a.87.87,0,0,0,.24.9,20.88,20.88,0,0,1,9.46,23.35.88.88,0,0,0,.64,1.07h.22a.9.9,0,0,0,.87-.65,22.59,22.59,0,0,0-10.29-25.28Z" style="fill:#3200af"/><path d="M358.18,66.65a21.67,21.67,0,0,1-24-5.28.92.92,0,0,0-1.27.17.87.87,0,0,0,0,1,23.49,23.49,0,0,0,26,5.71.87.87,0,0,0,.28-1.23A.92.92,0,0,0,358.18,66.65Z" style="fill:#3200af"/><path d="M344.9,26.74a.89.89,0,1,0-.43-1.7,22.82,22.82,0,0,0-17.62,20.54.9.9,0,0,0,.83.89h.07a.89.89,0,0,0,.9-.82A21.08,21.08,0,0,1,344.9,26.74Z" style="fill:#3200af"/><ellipse cx="350" cy="25.26" rx="5.35" ry="5.26" style="fill:#6400fa"/><ellipse cx="330.35" cy="57.72" rx="5.35" ry="5.26" style="fill:#6400fa"/><ellipse cx="369.65" cy="57.72" rx="5.35" ry="5.26" style="fill:#6400fa"/><path d="M262.15,27.76a.91.91,0,0,0-1.14.58h0a.87.87,0,0,0,.24.9,20.88,20.88,0,0,1,9.46,23.35.88.88,0,0,0,.64,1.07h.22a.9.9,0,0,0,.87-.65,22.59,22.59,0,0,0-10.29-25.28Z" style="fill:#199619"/><path d="M258.18,66.65a21.67,21.67,0,0,1-24-5.28.92.92,0,0,0-1.27.17.87.87,0,0,0,0,1,23.49,23.49,0,0,0,26,5.71.87.87,0,0,0,.28-1.23A.92.92,0,0,0,258.18,66.65Z" style="fill:#199619"/><path d="M244.9,26.74a.89.89,0,0,0,.46-1.18.92.92,0,0,0-.89-.52,22.82,22.82,0,0,0-17.62,20.54.9.9,0,0,0,.83.89h.07a.89.89,0,0,0,.9-.82A21.08,21.08,0,0,1,244.9,26.74Z" style="fill:#199619"/><ellipse cx="250" cy="25.26" rx="5.35" ry="5.26" style="fill:#32e14b"/><ellipse cx="230.35" cy="57.72" rx="5.35" ry="5.26" style="fill:#32e14b"/><ellipse cx="269.65" cy="57.72" rx="5.35" ry="5.26" style="fill:#32e14b"/><path d="M50,425a25,25,0,1,0,25,25,25,25,0,0,0-25-25Zm13.42,25.71-19,12.93a.83.83,0,0,1-.48.15.87.87,0,0,1-.87-.85h0V437.07a.86.86,0,0,1,1.35-.71l19,12.93a.88.88,0,0,1,.21,1.21A1,1,0,0,1,63.42,450.71Z" style="fill:#fff"/><path d="M150,425a25,25,0,1,0,25,25,25,25,0,0,0-25-25Zm13.42,25.71-19,12.93a.83.83,0,0,1-.48.15.87.87,0,0,1-.87-.85h0V437.07a.86.86,0,0,1,1.35-.71l19,12.93a.88.88,0,0,1,.21,1.21,1,1,0,0,1-.21.21Z" style="fill:#191919"/><path d="M250,425a25,25,0,1,0,25,25,25,25,0,0,0-25-25Zm13.42,25.71-19,12.93a.83.83,0,0,1-.48.15.87.87,0,0,1-.87-.85h0V437.07a.86.86,0,0,1,1.35-.71l19,12.93a.88.88,0,0,1,.21,1.21,1,1,0,0,1-.21.21Z" style="fill:#32e14b"/><path d="M350,425a25,25,0,1,0,25,25,25,25,0,0,0-25-25Zm13.42,25.71-19,12.93a.83.83,0,0,1-.48.15.87.87,0,0,1-.87-.85h0V437.07a.86.86,0,0,1,1.35-.71l19,12.93a.88.88,0,0,1,.21,1.21A1,1,0,0,1,363.42,450.71Z" style="fill:#6400fa"/><path d="M25.54,1574.46a1.32,1.32,0,0,1,0,1.87h0l-.47.47,7.65-2.09-7.43-7.44-2.09,7.66.47-.47a1.3,1.3,0,0,1,1.86,0Z" style="fill:#c8c8c8"/><path d="M25.07,1576.8l.47-.47a1.33,1.33,0,0,0,0-1.87,1.32,1.32,0,0,0-1.87,0l-.47.47-.7,2.57Z" style="fill:#969696"/><polygon points="68.26 1539.16 60.8 1531.69 25.3 1567.22 25.29 1567.27 32.72 1574.71 32.77 1574.7 68.26 1539.16" style="fill:#fff"/><path d="M76.69,1527,73,1523.26a2.63,2.63,0,0,0-3.69,0h0L64.54,1528l7.46,7.47,4.69-4.68a2.62,2.62,0,0,0,.1-3.69h0Z" style="fill:#969696"/><polygon points="60.8 1531.69 64.53 1527.95 64.53 1527.95 60.8 1531.69" style="fill:#f7e6a1"/><polygon points="60.8 1531.69 64.53 1527.95 72.01 1535.43 68.27 1539.18 60.8 1531.69" style="fill:#c8c8c8"/><path d="M125.54,1574.46a1.32,1.32,0,0,1,0,1.87h0l-.47.47,7.66-2.09-7.44-7.43-2.09,7.65.47-.47a1.32,1.32,0,0,1,1.87,0Z" style="fill:#646464"/><path d="M125.07,1576.8l.47-.47a1.32,1.32,0,0,0,0-1.87,1.33,1.33,0,0,0-1.87,0l-.47.47-.7,2.57Z"/><polygon points="168.29 1539.19 160.82 1531.72 125.31 1567.23 125.29 1567.28 132.73 1574.71 132.78 1574.7 168.29 1539.19" style="fill:#191919"/><path d="M176.72,1527l-3.77-3.77a2.63,2.63,0,0,0-3.69,0h0l-4.68,4.69,7.47,7.46,4.69-4.67a2.63,2.63,0,0,0,0-3.69Z"/><polygon points="160.82 1531.72 164.56 1527.99 164.56 1527.99 160.82 1531.72" style="fill:#f7e6a1"/><rect x="163.79" y="1528.31" width="5.29" height="10.58" transform="translate(-1035.49 566.65) rotate(-44.99)" style="fill:#646464"/><path d="M225.54,1574.46a1.32,1.32,0,0,1,0,1.87h0l-.47.47,7.66-2.09-7.44-7.43-2.09,7.65.47-.47a1.32,1.32,0,0,1,1.87,0Z" style="fill:#199619"/><path d="M225.07,1576.8l.47-.47a1.32,1.32,0,0,0,0-1.87,1.33,1.33,0,0,0-1.87,0l-.47.47-.7,2.57Z" style="fill:#32e14b"/><polygon points="268.29 1539.19 260.82 1531.72 225.31 1567.23 225.29 1567.28 232.73 1574.71 232.78 1574.7 268.29 1539.19" style="fill:#32e14b"/><path d="M276.72,1527l-3.77-3.77a2.63,2.63,0,0,0-3.69,0h0l-4.68,4.69,7.47,7.46,4.69-4.67a2.63,2.63,0,0,0,0-3.69Z" style="fill:#19c819"/><polygon points="260.82 1531.72 264.56 1527.99 264.56 1527.99 260.82 1531.72" style="fill:#32e14b"/><rect x="263.79" y="1528.31" width="5.29" height="10.58" transform="translate(-1006.22 637.35) rotate(-44.99)" style="fill:#199619"/><path d="M325.54,1574.46a1.32,1.32,0,0,1,0,1.87h0l-.47.47,7.66-2.09-7.44-7.43-2.09,7.65.47-.47a1.32,1.32,0,0,1,1.87,0Z" style="fill:#3200af"/><path d="M325.07,1576.8l.47-.47a1.32,1.32,0,0,0,0-1.87,1.33,1.33,0,0,0-1.87,0l-.47.47-.7,2.57Z" style="fill:#6400fa"/><polygon points="368.29 1539.19 360.82 1531.72 325.31 1567.23 325.29 1567.28 332.73 1574.71 332.78 1574.7 368.29 1539.19" style="fill:#6400fa"/><path d="M376.72,1527l-3.77-3.77a2.63,2.63,0,0,0-3.69,0h0l-4.68,4.69,7.47,7.46,4.69-4.67a2.63,2.63,0,0,0,0-3.69Z" style="fill:#6400fa"/><polygon points="360.82 1531.72 364.56 1527.99 364.56 1527.99 360.82 1531.72" style="fill:#6400fa"/><rect x="363.79" y="1528.31" width="5.29" height="10.58" transform="translate(-976.94 708.04) rotate(-44.99)" style="fill:#3200af"/><path d="M162.15,27.76a.91.91,0,0,0-1.14.58h0a.87.87,0,0,0,.24.9,20.88,20.88,0,0,1,9.46,23.35.88.88,0,0,0,.64,1.07h.22a.9.9,0,0,0,.87-.65,22.59,22.59,0,0,0-10.29-25.28Z" style="fill:#646464"/><path d="M158.18,66.65a21.67,21.67,0,0,1-24-5.28.92.92,0,0,0-1.27.17.87.87,0,0,0,0,1,23.49,23.49,0,0,0,26,5.71.87.87,0,0,0,.28-1.23A.92.92,0,0,0,158.18,66.65Z" style="fill:#646464"/><path d="M144.9,26.74a.89.89,0,0,0,.46-1.18.92.92,0,0,0-.89-.52,22.82,22.82,0,0,0-17.62,20.54.9.9,0,0,0,.83.89h.07a.89.89,0,0,0,.9-.82A21.08,21.08,0,0,1,144.9,26.74Z" style="fill:#646464"/><ellipse cx="150" cy="25.26" rx="5.35" ry="5.26"/><ellipse cx="130.35" cy="57.72" rx="5.35" ry="5.26"/><ellipse cx="169.65" cy="57.72" rx="5.35" ry="5.26"/><path d="M136.74,365.58l7.69-6.24L156.92,370l20.58-50-55,20.64,18.34,15.64Z" style="fill:#646464"/><path d="M132.65,349.29l4.09,16.29,4.1-9.3L177.5,320Z"/><path d="M236.74,365.58l7.69-6.24L256.92,370l20.58-50-55,20.64,18.34,15.64Z" style="fill:#32e14b"/><path d="M232.65,349.29l4.09,16.29,4.1-9.3L277.5,320Z" style="fill:#199619"/><path d="M336.74,365.58l7.69-6.24L356.92,370l20.58-50-55,20.64,18.34,15.64Z" style="fill:#6400fa"/><path d="M332.65,349.29l4.09,16.29,4.1-9.3L377.5,320Z" style="fill:#3200af"/><path d="M160.11,936.09H139.83a1,1,0,0,1-.75-.33.81.81,0,0,1-.21-.8l2.26-9.23a1,1,0,0,1,1-.73h15.72a1,1,0,0,1,1,.73l2.23,9.27a.83.83,0,0,1-.2.8A1,1,0,0,1,160.11,936.09Zm-19-1.93h17.78l-1.78-7.3H142.85Z" style="fill:#191919"/><path d="M172.09,975H127.84a2.89,2.89,0,0,1-3-2.8h0V946.85a2.88,2.88,0,0,1,2.9-2.86h44.31a2.88,2.88,0,0,1,3,2.8h0v25.35A3,3,0,0,1,172.09,975Z"/><path d="M171.6,958.35H128.33a5.86,5.86,0,0,1-5.83-5.9h0V934.84a2.47,2.47,0,0,1,2.44-2.49H175a2.47,2.47,0,0,1,2.47,2.46v0h0v17.61a5.89,5.89,0,0,1-5.85,5.9Z" style="fill:#646464"/><path d="M166.2,964.45h-2.61a1,1,0,0,1-1-1v-3.12a1,1,0,0,1,1-1h2.61a1,1,0,0,1,1,1v3.12A1,1,0,0,1,166.2,964.45Z" style="fill:#c8c8c8"/><path d="M167.3,961.4h-4.8a1,1,0,0,1-1-1V955a1,1,0,0,1,1-1h4.8a1,1,0,0,1,1,1v5.41A1,1,0,0,1,167.3,961.4Z" style="fill:#969696"/><path d="M136.34,964.45h-2.61a1,1,0,0,1-1-1v-3.12a1,1,0,0,1,1-1h2.61a1,1,0,0,1,1,1v3.12A1,1,0,0,1,136.34,964.45Z" style="fill:#c8c8c8"/><path d="M137.44,961.4h-4.8a1,1,0,0,1-1-1V955a1,1,0,0,1,1-1h4.8a1,1,0,0,1,1,1v5.41A1,1,0,0,1,137.44,961.4Z" style="fill:#969696"/><rect x="163.05" y="932.28" width="3.69" height="21.77" style="fill:#c8c8c8"/><rect x="133.19" y="932.28" width="3.69" height="21.77" style="fill:#c8c8c8"/><path d="M74.78,1657.05l-8.68-17.36,7.31-14.62a2,2,0,0,0-3.64-1.82l-5.94,11.89-12-24h0a2.14,2.14,0,0,0-.2-.32l0,0a1.88,1.88,0,0,0-.24-.25l0,0a1.46,1.46,0,0,0-.24-.17l-.1-.06-.06,0a.85.85,0,0,0-.17-.06l-.14-.06-.22,0-.18,0h-.41l-.15,0-.24,0-.13.05-.18.07-.06,0-.09,0a2.27,2.27,0,0,0-.25.18l0,0a2,2,0,0,0-.24.26h0a3,3,0,0,0-.21.33h0l-23,45.93a2,2,0,1,0,3.63,1.82l8.61-17.22H47.91a2,2,0,0,0,0-4.07H39.5l10.5-21,11.55,23.11L52.87,1657a2,2,0,0,0,.91,2.73,2.16,2.16,0,0,0,.91.21,2,2,0,0,0,1.82-1.12l7.32-14.63,7.32,14.64a2,2,0,1,0,3.63-1.82Z" style="fill:#f80096"/><path d="M174.78,1657.05l-8.68-17.36,7.31-14.62a2,2,0,0,0-3.64-1.82l-5.94,11.89-12-24h0a2.14,2.14,0,0,0-.2-.32l0,0a1.88,1.88,0,0,0-.24-.25l0,0a1.46,1.46,0,0,0-.24-.17l-.1-.06-.06,0a.85.85,0,0,0-.17-.06l-.14-.06-.22,0-.18,0h-.41l-.15,0-.24,0-.13.05-.18.07-.06,0-.09,0a2.27,2.27,0,0,0-.25.18l0,0a2,2,0,0,0-.24.26h0a3,3,0,0,0-.21.33h0l-23,45.93a2,2,0,1,0,3.63,1.82l8.61-17.22h10.45a2,2,0,0,0,0-4.07H139.5l10.5-21,11.55,23.11L152.87,1657a2,2,0,0,0,.91,2.73,2.16,2.16,0,0,0,.91.21,2,2,0,0,0,1.82-1.12l7.32-14.63,7.32,14.64a2,2,0,1,0,3.63-1.82Z" style="fill:#f80096"/><path d="M274.78,1657.05l-8.68-17.36,7.31-14.62a2,2,0,0,0-3.64-1.82l-5.94,11.89-12-24h0a2.14,2.14,0,0,0-.2-.32l0,0a1.88,1.88,0,0,0-.24-.25l0,0a1.46,1.46,0,0,0-.24-.17l-.1-.06-.06,0a.85.85,0,0,0-.17-.06l-.14-.06-.22,0-.18,0h-.41l-.15,0-.24,0-.13.05-.18.07-.06,0-.09,0a2.27,2.27,0,0,0-.25.18l0,0a2,2,0,0,0-.24.26h0a3,3,0,0,0-.21.33h0l-23,45.93a2,2,0,1,0,3.63,1.82l8.61-17.22h10.45a2,2,0,0,0,0-4.07H239.5l10.5-21,11.55,23.11L252.87,1657a2,2,0,0,0,.91,2.73,2.16,2.16,0,0,0,.91.21,2,2,0,0,0,1.82-1.12l7.32-14.63,7.32,14.64a2,2,0,1,0,3.63-1.82Z" style="fill:#f80096"/><path d="M374.78,1657.05l-8.68-17.36,7.31-14.62a2,2,0,0,0-3.64-1.82l-5.94,11.89-12-24h0a2.14,2.14,0,0,0-.2-.32l0,0a1.88,1.88,0,0,0-.24-.25l0,0a1.46,1.46,0,0,0-.24-.17l-.1-.06-.06,0a.85.85,0,0,0-.17-.06l-.14-.06-.22,0-.18,0h-.41l-.15,0-.24,0-.13.05-.18.07-.06,0-.09,0a2.27,2.27,0,0,0-.25.18l0,0a2,2,0,0,0-.24.26h0a3,3,0,0,0-.21.33h0l-23,45.93a2,2,0,1,0,3.63,1.82l8.61-17.22h10.45a2,2,0,0,0,0-4.07H339.5l10.5-21,11.55,23.11L352.87,1657a2,2,0,0,0,.91,2.73,2.16,2.16,0,0,0,.91.21,2,2,0,0,0,1.82-1.12l7.32-14.63,7.32,14.64a2,2,0,1,0,3.63-1.82Z" style="fill:#f80096"/><path d="M32.17,832.28H24.11a1.61,1.61,0,0,0-1.61,1.61v35.45a4.83,4.83,0,0,0,4.83,4.83H41.84V832.28Z" style="fill:#afafaf"/><path d="M77.5,827.44v40.28a6.47,6.47,0,0,1-6.45,6.45H27.33a4.83,4.83,0,0,0,4.84-4.83v-41.9a1.6,1.6,0,0,1,1.61-1.61H75.89A1.6,1.6,0,0,1,77.5,827.44Z" style="fill:#fff"/><path d="M69.44,864.5h-13a1.61,1.61,0,0,1-1.62-1.61V850a1.61,1.61,0,0,1,1.62-1.61h13A1.61,1.61,0,0,1,71.05,850v12.89A1.61,1.61,0,0,1,69.44,864.5Z" style="fill:#c8c8c8"/><path d="M50,864.5H40.22a1.61,1.61,0,1,1,0-3.22H50a1.61,1.61,0,0,1,0,3.22Z" style="fill:#c8c8c8"/><path d="M50,858.06H40.22a1.62,1.62,0,0,1,0-3.23H50a1.62,1.62,0,0,1,0,3.23Z" style="fill:#c8c8c8"/><path d="M50,851.61H40.22a1.61,1.61,0,1,1,0-3.22H50a1.61,1.61,0,0,1,0,3.22Z" style="fill:#c8c8c8"/><path d="M69.44,835.5H40.22a1.6,1.6,0,0,0-1.61,1.61v6.44a1.6,1.6,0,0,0,1.61,1.62H69.44a1.59,1.59,0,0,0,1.61-1.62v-6.44A1.59,1.59,0,0,0,69.44,835.5Z" style="fill:#c8c8c8"/><path d="M132.17,832.28h-8.06a1.61,1.61,0,0,0-1.61,1.61v35.45a4.83,4.83,0,0,0,4.83,4.83h14.51V832.28Z" style="fill:#191919"/><path d="M177.5,827.44v40.28a6.47,6.47,0,0,1-6.45,6.45H127.33a4.83,4.83,0,0,0,4.84-4.83v-41.9a1.6,1.6,0,0,1,1.61-1.61h42.11A1.6,1.6,0,0,1,177.5,827.44Z" style="fill:#646464"/><path d="M169.44,864.5h-13a1.61,1.61,0,0,1-1.62-1.61V850a1.61,1.61,0,0,1,1.62-1.61h13a1.61,1.61,0,0,1,1.61,1.61v12.89A1.61,1.61,0,0,1,169.44,864.5Z" style="fill:#323232"/><path d="M150,864.5h-9.78a1.61,1.61,0,1,1,0-3.22H150a1.61,1.61,0,1,1,0,3.22Z" style="fill:#323232"/><path d="M150,858.06h-9.78a1.62,1.62,0,0,1,0-3.23H150a1.62,1.62,0,0,1,0,3.23Z" style="fill:#323232"/><path d="M150,851.61h-9.78a1.61,1.61,0,1,1,0-3.22H150a1.61,1.61,0,0,1,0,3.22Z" style="fill:#323232"/><path d="M169.44,835.5H140.22a1.6,1.6,0,0,0-1.61,1.61v6.44a1.6,1.6,0,0,0,1.61,1.62h29.22a1.59,1.59,0,0,0,1.61-1.62v-6.44A1.59,1.59,0,0,0,169.44,835.5Z" style="fill:#323232"/><path d="M232.17,832.28h-8.06a1.61,1.61,0,0,0-1.61,1.61v35.45a4.83,4.83,0,0,0,4.83,4.83h14.51V832.28Z" style="fill:#19c819"/><path d="M277.5,827.44v40.28a6.47,6.47,0,0,1-6.45,6.45H227.33a4.83,4.83,0,0,0,4.84-4.83v-41.9a1.6,1.6,0,0,1,1.61-1.61h42.11A1.6,1.6,0,0,1,277.5,827.44Z" style="fill:#32e14b"/><path d="M269.44,864.5h-13a1.61,1.61,0,0,1-1.62-1.61V850a1.61,1.61,0,0,1,1.62-1.61h13a1.61,1.61,0,0,1,1.61,1.61v12.89A1.61,1.61,0,0,1,269.44,864.5Z" style="fill:#199619"/><path d="M250,864.5h-9.78a1.61,1.61,0,1,1,0-3.22H250a1.61,1.61,0,1,1,0,3.22Z" style="fill:#199619"/><path d="M250,858.06h-9.78a1.62,1.62,0,0,1,0-3.23H250a1.62,1.62,0,0,1,0,3.23Z" style="fill:#199619"/><path d="M250,851.61h-9.78a1.61,1.61,0,1,1,0-3.22H250a1.61,1.61,0,0,1,0,3.22Z" style="fill:#199619"/><path d="M269.44,835.5H240.22a1.6,1.6,0,0,0-1.61,1.61v6.44a1.6,1.6,0,0,0,1.61,1.62h29.22a1.59,1.59,0,0,0,1.61-1.62v-6.44A1.59,1.59,0,0,0,269.44,835.5Z" style="fill:#199619"/><path d="M332.17,832.28h-8.06a1.61,1.61,0,0,0-1.61,1.61v35.45a4.83,4.83,0,0,0,4.83,4.83h14.51V832.28Z" style="fill:#3200af"/><path d="M377.5,827.44v40.28a6.47,6.47,0,0,1-6.45,6.45H327.33a4.83,4.83,0,0,0,4.84-4.83v-41.9a1.6,1.6,0,0,1,1.61-1.61h42.11A1.6,1.6,0,0,1,377.5,827.44Z" style="fill:#6400fa"/><path d="M369.44,864.5h-13a1.61,1.61,0,0,1-1.62-1.61V850a1.61,1.61,0,0,1,1.62-1.61h13a1.61,1.61,0,0,1,1.61,1.61v12.89A1.61,1.61,0,0,1,369.44,864.5Z" style="fill:#32007d"/><path d="M350,864.5h-9.78a1.61,1.61,0,1,1,0-3.22H350a1.61,1.61,0,1,1,0,3.22Z" style="fill:#32007d"/><path d="M350,858.06h-9.78a1.62,1.62,0,0,1,0-3.23H350a1.62,1.62,0,0,1,0,3.23Z" style="fill:#32007d"/><path d="M350,851.61h-9.78a1.61,1.61,0,0,1,0-3.22H350a1.61,1.61,0,0,1,0,3.22Z" style="fill:#32007d"/><path d="M369.44,835.5H340.22a1.6,1.6,0,0,0-1.61,1.61v6.44a1.6,1.6,0,0,0,1.61,1.62h29.22a1.59,1.59,0,0,0,1.61-1.62v-6.44A1.59,1.59,0,0,0,369.44,835.5Z" style="fill:#32007d"/></svg>