<svg xmlns="http://www.w3.org/2000/svg" viewBox="0 0 10 10"><title>icon-google</title><rect width="10" height="10" style="fill:none"/><path d="M8.75,4.26H4.9V5.84H7.1a1.87,1.87,0,0,1-.82,1.23l1.32,1a4,4,0,0,0,1.22-3A5.57,5.57,0,0,0,8.75,4.26Z" style="fill:#4285f4"/><path d="M4.9,7.46A2.43,2.43,0,0,1,2.62,5.78l-1.37,1A4.09,4.09,0,0,0,4.9,9.08a3.86,3.86,0,0,0,2.7-1l-1.32-1A2.47,2.47,0,0,1,4.9,7.46Z" style="fill:#34a853"/><path d="M2.49,5a2.55,2.55,0,0,1,.13-.78l-1.37-1a4.11,4.11,0,0,0,0,3.66l1.37-1A2.55,2.55,0,0,1,2.49,5Z" style="fill:#fbbc05"/><path d="M4.9,2.54a2.22,2.22,0,0,1,1.56.61L7.63,2A3.9,3.9,0,0,0,4.9.92,4.09,4.09,0,0,0,1.25,3.17l1.37,1A2.43,2.43,0,0,1,4.9,2.54Z" style="fill:#ea4335"/></svg>